# Blender v2.63 (sub 0) OBJ File: ''
# www.blender.org
o Cylinder
v 0.933546 0.009500 -0.050000
v 0.016455 0.009500 -0.050000
v 0.475000 0.803724 -0.049999
v 0.475000 0.803724 0.050001
v 0.016454 0.009500 0.050000
v 0.933546 0.009500 0.050000
v 0.945250 0.008227 -0.040000
v 0.479750 0.814497 -0.039999
v 0.479750 0.814497 0.040001
v 0.945250 0.008227 0.040000
v 0.475000 -0.803724 -0.050000
v 0.016454 -0.009500 -0.050000
v 0.933546 -0.009500 -0.050000
v 0.933546 -0.009500 0.050000
v 0.016454 -0.009500 0.050000
v 0.475000 -0.803724 0.050000
v 0.479750 -0.814497 -0.040000
v 0.945250 -0.008228 -0.040000
v 0.945250 -0.008228 0.040000
v 0.479750 -0.814497 0.040000
v -0.458546 -0.813224 -0.050001
v 0.000000 -0.019000 -0.050000
v 0.458545 -0.813224 -0.050000
v 0.458545 -0.813224 0.050000
v -0.000000 -0.019000 0.050000
v -0.458546 -0.813224 0.049999
v -0.465500 -0.822724 -0.040001
v 0.465500 -0.822724 -0.040000
v 0.465500 -0.822724 0.040000
v -0.465500 -0.822724 0.039999
v -0.933546 -0.009500 -0.050000
v -0.016454 -0.009500 -0.050000
v -0.475000 -0.803724 -0.050001
v -0.475000 -0.803724 0.049999
v -0.016455 -0.009500 0.050000
v -0.933546 -0.009500 0.050000
v -0.945250 -0.008227 -0.040000
v -0.479750 -0.814497 -0.040001
v -0.479750 -0.814497 0.039999
v -0.945250 -0.008227 0.040000
v -0.475000 0.803724 -0.050000
v -0.016454 0.009500 -0.050000
v -0.933546 0.009500 -0.050000
v -0.933546 0.009500 0.050000
v -0.016455 0.009500 0.050000
v -0.475000 0.803724 0.050000
v -0.479750 0.814497 -0.040000
v -0.945250 0.008228 -0.040000
v -0.945250 0.008228 0.040000
v -0.479750 0.814497 0.040000
v 0.458546 0.813224 -0.049999
v 0.000000 0.019000 -0.050000
v -0.458545 0.813224 -0.050000
v -0.458545 0.813224 0.050000
v -0.000000 0.019000 0.050000
v 0.458546 0.813224 0.050001
v 0.465500 0.822724 -0.039999
v -0.465500 0.822724 -0.040000
v -0.465500 0.822724 0.040000
v 0.465500 0.822724 0.040001
vn 0.000000 0.000001 -1.000000
vn -0.000000 -0.000001 1.000000
vn 0.866026 0.500000 0.000000
vn 0.866025 -0.500000 -0.000000
vn -0.000000 -1.000000 0.000000
vn -0.866026 -0.500000 0.000000
vn -0.866025 0.500000 0.000000
vn 0.000000 1.000000 0.000000
vn 0.627868 0.362499 0.688750
vn 0.627868 -0.362500 -0.688749
vn 0.499999 -0.866026 0.000000
vn 0.627866 -0.362500 0.688751
vn -0.324789 0.562549 0.760296
vn -0.000000 -0.725000 -0.688749
vn -0.499999 -0.866026 0.000000
vn -0.649578 -0.000000 0.760295
vn -0.324789 -0.562551 0.760295
vn -0.649578 0.000000 -0.760295
vn -0.000001 -0.725000 0.688749
vn -0.324788 -0.562550 -0.760296
vn -0.627868 -0.362499 -0.688750
vn -1.000000 -0.000000 0.000000
vn -0.324787 0.562549 -0.760297
vn 0.649577 -0.000001 -0.760296
vn 0.649577 -0.000001 0.760296
vn -0.627869 -0.362500 0.688748
vn 0.324789 -0.562549 -0.760296
vn -0.627867 0.362500 -0.688750
vn -0.499998 0.866026 0.000000
vn 0.324788 -0.562549 0.760297
vn -0.000000 0.724999 0.688749
vn 0.627868 0.362500 -0.688749
vn 0.500000 0.866025 0.000000
vn -0.627868 0.362500 0.688749
vn 1.000000 -0.000000 0.000000
vn 0.000000 0.725000 -0.688749
vn 0.324789 0.562549 0.760296
vn 0.324789 0.562551 -0.760295
s off
f 3//1 1//1 2//1
f 5//2 6//2 4//2
f 8//3 9//3 10//3 7//3
f 12//1 13//1 11//1
f 15//2 16//2 14//2
f 18//4 19//4 20//4 17//4
f 22//1 23//1 21//1
f 25//2 26//2 24//2
f 28//5 29//5 30//5 27//5
f 32//1 33//1 31//1
f 35//2 36//2 34//2
f 38//6 39//6 40//6 37//6
f 42//1 43//1 41//1
f 45//2 46//2 44//2
f 48//7 49//7 50//7 47//7
f 52//1 53//1 51//1
f 55//2 56//2 54//2
f 58//8 59//8 60//8 57//8
f 2//1 1//1 13//1 12//1
f 5//2 4//2 56//2 55//2
f 12//1 11//1 23//1 22//1
f 6//2 5//2 15//2 14//2
f 4//9 6//9 10//9 9//9
f 18//10 17//10 11//10 13//10
f 17//11 20//11 29//11 28//11
f 22//1 21//1 33//1 32//1
f 16//2 15//2 25//2 24//2
f 14//12 16//12 20//12 19//12
f 54//13 59//13 50//13 46//13
f 28//14 27//14 21//14 23//14
f 27//15 30//15 39//15 38//15
f 32//1 31//1 43//1 42//1
f 26//2 25//2 35//2 34//2
f 44//16 49//16 40//16 36//16
f 34//17 39//17 30//17 26//17
f 37//18 48//18 43//18 31//18
f 24//19 26//19 30//19 29//19
f 27//20 38//20 33//20 21//20
f 38//21 37//21 31//21 33//21
f 37//22 40//22 49//22 48//22
f 47//23 58//23 53//23 41//23
f 42//1 41//1 53//1 52//1
f 36//2 35//2 45//2 44//2
f 13//24 1//24 7//24 18//24
f 42//1 52//1 2//1
f 42//1 2//1 12//1
f 32//1 42//1 12//1
f 32//1 12//1 22//1
f 14//25 19//25 10//25 6//25
f 34//26 36//26 40//26 39//26
f 17//27 28//27 23//27 11//27
f 48//28 47//28 41//28 43//28
f 47//29 50//29 59//29 58//29
f 24//30 29//30 20//30 16//30
f 54//31 56//31 60//31 59//31
f 46//2 45//2 55//2 54//2
f 1//32 3//32 8//32 7//32
f 45//2 5//2 55//2
f 45//2 15//2 5//2
f 45//2 35//2 15//2
f 35//2 25//2 15//2
f 9//33 8//33 57//33 60//33
f 44//34 46//34 50//34 49//34
f 7//35 10//35 19//35 18//35
f 58//36 57//36 51//36 53//36
f 9//37 60//37 56//37 4//37
f 57//38 8//38 3//38 51//38
f 3//1 2//1 52//1 51//1
