<?xml version="1.0" encoding="utf-8"?>
<!-- Generator: Adobe Illustrator 18.0.0, SVG Export Plug-In . SVG Version: 6.00 Build 0)  -->
<!DOCTYPE svg PUBLIC "-//W3C//DTD SVG 1.1//EN" "http://www.w3.org/Graphics/SVG/1.1/DTD/svg11.dtd">
<svg version="1.1" id="Layer_1" xmlns="http://www.w3.org/2000/svg" xmlns:xlink="http://www.w3.org/1999/xlink" x="0px" y="0px"
	 viewBox="30.3 28.4 538.3 163.3" enable-background="new 30.3 28.4 538.3 163.3" xml:space="preserve">
<path fill="#58585A" d="M191.6,181v-53.8l10.8-10.7h33.3l10.3,10.3v13.5h-12.7v-9.3l-4.7-4.7h-19.1l-5.1,5.1v45.2l5.1,5.1h19.1
	l4.7-4.7v-9.8H246v13.9l-10.3,10.3h-33.3L191.6,181z"/>
<path fill="#58585A" d="M294.6,182.3h8.3v-56.4h-8.3v-9.4h20.8l31,54.2v-44.9h-9.3v-9.4h28.2v9.4h-7.6v65.8h-12.4l-31.1-54.8v45.4
	h9.3v9.4h-28.9L294.6,182.3L294.6,182.3z"/>
<path fill="#58585A" d="M370.4,182.3h8.3v-56.4h-8.3v-9.4h51.5l10.8,10.8v53.6l-10.8,10.8h-51.5V182.3z M414.7,181.9l5.1-5.1v-45.3
	l-5.1-5.1h-23.2v55.5H414.7z"/>
<path fill="#58585A" d="M437.2,182.3h8.3v-56.4h-8.3v-9.4h57.4v20h-10.9v-10.7h-25.4v22.9h29.1v10h-29.1v23.5h25.5v-10.7h11v20
	h-57.6L437.2,182.3L437.2,182.3z"/>
<path fill="#58585A" d="M500.5,182.3h8.3v-56.4h-8.3v-9.4h52.1l9.9,9.9v20.7l-7.6,7.6l7.6,7.6v19.2l0.8,0.8h5.4v9.4h-13.2l-5.9-5.9
	v-20.9l-5.1-5.1h-22.9v22.6h9v9.4h-30.2L500.5,182.3L500.5,182.3z M544.7,150.2l4.9-4.9v-14.8l-4.5-4.6h-23.5v24.3H544.7z"/>
<rect x="276" y="167.7" fill="#F05129" width="13.7" height="12"/>
<rect x="253.8" y="167.7" fill="#F05129" width="13.5" height="12"/>
<rect x="265.8" y="155.7" fill="#F15A22" width="12" height="13.8"/>
<rect x="265.8" y="178.2" fill="#BE1E2D" width="12" height="13.5"/>
<rect x="265.8" y="116.7" fill="#FFD529" width="12" height="13.2"/>
<rect x="265.8" y="138.8" fill="#F36C21" width="12" height="13.7"/>
<rect x="253.8" y="128.6" fill="#FBB040" width="14.2" height="12"/>
<rect x="276" y="128.6" fill="#FBB040" width="13.7" height="12"/>
<rect x="85.7" y="82.4" fill="#EF4123" width="8.5" height="7.4"/>
<rect x="98.8" y="82.4" fill="#EF4123" width="9" height="7.4"/>
<rect x="93.1" y="75" fill="#F15A22" width="7.4" height="9"/>
<rect x="93.1" y="88.2" fill="#C9252C" width="7.4" height="8.9"/>
<rect x="113.5" y="61.6" fill="#F7941E" width="5.4" height="6.6"/>
<rect x="113.5" y="71.1" fill="#ED1C24" width="5.4" height="6.6"/>
<rect x="117.7" y="67" fill="#F58220" width="6.5" height="5.4"/>
<rect x="108.1" y="67" fill="#F58220" width="6.1" height="5.4"/>
<rect x="99.5" y="101.8" fill="#DA2128" width="3.2" height="4.1"/>
<rect x="99.5" y="107.9" fill="#962F34" width="3.2" height="3.7"/>
<rect x="102.1" y="105.1" fill="#C9252C" width="3.9" height="3.2"/>
<rect x="96.3" y="105.1" fill="#C9252C" width="3.9" height="3.2"/>
<rect x="83.2" y="56.3" fill="#F7941E" width="6.8" height="5.6"/>
<rect x="93.2" y="56.3" fill="#F7941E" width="6.6" height="5.6"/>
<rect x="88.7" y="50.8" fill="#FAA61A" width="5.6" height="6.6"/>
<rect x="88.7" y="60.9" fill="#F15A22" width="5.6" height="6.6"/>
<rect x="107.9" y="28.4" fill="#FFF200" width="8.1" height="10.7"/>
<rect x="107.9" y="43.3" fill="#F7941E" width="8.1" height="9.4"/>
<rect x="114.5" y="36.5" fill="#FFDD00" width="9.7" height="8.1"/>
<rect x="99.8" y="36.5" fill="#FFDD00" width="10.2" height="8.1"/>
<g>
	<polygon fill="#58585A" points="30.3,191.7 85.7,108.6 141.1,191.7 	"/>
	<polygon fill="#58585A" points="67,191.7 123.7,96.6 177.7,191.7 	"/>
</g>
<rect x="265.8" y="128.6" fill="#F7941E" width="12" height="12"/>
<rect x="265.8" y="167.7" fill="#D51920" width="12" height="12"/>
<rect x="93.1" y="82.4" fill="#ED1C24" width="7.4" height="7.4"/>
<rect x="113.5" y="67" fill="#F15A22" width="5.4" height="5.4"/>
<rect x="99.5" y="105.1" fill="#B8292F" width="3.2" height="3.2"/>
<rect x="88.7" y="56.3" fill="#F37021" width="5.6" height="5.6"/>
<rect x="107.9" y="36.5" fill="#FDB913" width="8.1" height="8.1"/>
</svg>
