<?xml version="1.0" encoding="utf-8"?>
<!-- Generator: Adobe Illustrator 16.0.0, SVG Export Plug-In . SVG Version: 6.00 Build 0)  -->
<!DOCTYPE svg PUBLIC "-//W3C//DTD SVG 1.1//EN" "http://www.w3.org/Graphics/SVG/1.1/DTD/svg11.dtd">
<svg version="1.1" id="Layer_1" xmlns="http://www.w3.org/2000/svg" xmlns:xlink="http://www.w3.org/1999/xlink" x="0px" y="0px"
	 width="612px" height="792px" viewBox="0 0 612 792" enable-background="new 0 0 612 792" xml:space="preserve">
<path fill="#333333" d="M191.598,181.035v-53.804l10.783-10.669h33.328l10.34,10.339v13.508h-12.736v-9.259l-4.689-4.681h-19.059
	l-5.126,5.116v45.203l5.126,5.116h19.059l4.689-4.682v-9.797h12.736v13.938l-10.34,10.349h-33.328L191.598,181.035z"/>
<path fill="#333333" d="M294.624,182.349h8.271v-56.421h-8.271v-9.366h20.803l31.041,54.239v-44.873h-9.258v-9.366h28.209v9.366
	h-7.625v65.784h-12.417l-31.146-54.786v45.422h9.259v9.363h-28.866V182.349z"/>
<path fill="#333333" d="M370.367,182.349h8.282v-56.421h-8.282v-9.366h51.518l10.783,10.781v53.585l-10.783,10.784h-51.518V182.349z
	 M414.691,181.904l5.129-5.116v-45.31l-5.129-5.119h-23.197v55.545H414.691z"/>
<path fill="#333333" d="M437.235,182.349h8.274v-56.421h-8.274v-9.366h57.395v20.032h-10.888v-10.666h-25.381v22.863h29.089v10.02
	h-29.089v23.538h25.488V171.67h10.995v20.042h-57.609V182.349z"/>
<path fill="#333333" d="M500.473,182.349h8.277v-56.421h-8.277v-9.366h52.069l9.905,9.908v20.688l-7.618,7.628l7.618,7.625v19.174
	l0.764,0.764h5.443v9.363h-13.176l-5.883-5.888v-20.911l-5.123-5.118h-22.864v22.554h9.036v9.363h-30.172V182.349z M544.702,150.207
	l4.894-4.892v-14.813l-4.469-4.574h-23.519v24.279H544.702z"/>
<rect x="275.99" y="167.695" fill="#F05129" width="13.71" height="11.959"/>
<rect x="253.816" y="167.695" fill="#F05129" width="13.459" height="11.959"/>
<rect x="265.778" y="155.732" fill="#F15A22" width="11.96" height="13.835"/>
<rect x="265.778" y="178.157" fill="#BE1E2D" width="11.96" height="13.46"/>
<rect x="265.778" y="116.665" fill="#FFD529" width="11.96" height="13.212"/>
<rect x="265.778" y="138.839" fill="#F36C21" width="11.96" height="13.712"/>
<rect x="253.816" y="128.626" fill="#FBB040" width="14.209" height="11.962"/>
<rect x="275.99" y="128.626" fill="#FBB040" width="13.71" height="11.962"/>
<rect x="85.708" y="82.424" fill="#EF4123" width="8.502" height="7.378"/>
<rect x="98.843" y="82.424" fill="#EF4123" width="9.006" height="7.378"/>
<rect x="93.088" y="75.042" fill="#F15A22" width="7.379" height="9.004"/>
<rect x="93.088" y="88.242" fill="#C9252C" width="7.379" height="8.942"/>
<rect x="113.487" y="61.619" fill="#F7941E" width="5.355" height="6.607"/>
<rect x="113.487" y="71.083" fill="#ED1C24" width="5.355" height="6.607"/>
<rect x="117.721" y="66.976" fill="#F58220" width="6.48" height="5.357"/>
<rect x="108.132" y="66.976" fill="#F58220" width="6.105" height="5.357"/>
<rect x="99.548" y="101.843" fill="#DA2128" width="3.226" height="4.101"/>
<rect x="99.548" y="107.859" fill="#962F34" width="3.226" height="3.664"/>
<rect x="102.086" y="105.069" fill="#C9252C" width="3.913" height="3.228"/>
<rect x="96.321" y="105.069" fill="#C9252C" width="3.914" height="3.228"/>
<rect x="83.15" y="56.323" fill="#F7941E" width="6.756" height="5.568"/>
<rect x="93.229" y="56.323" fill="#F7941E" width="6.629" height="5.568"/>
<rect x="88.722" y="50.753" fill="#FAA61A" width="5.567" height="6.631"/>
<rect x="88.722" y="60.894" fill="#F15A22" width="5.567" height="6.568"/>
<rect x="107.897" y="28.366" fill="#FFF200" width="8.124" height="10.688"/>
<rect x="107.897" y="43.307" fill="#F7941E" width="8.124" height="9.44"/>
<rect x="114.462" y="36.492" fill="#FFDD00" width="9.688" height="8.127"/>
<rect x="99.77" y="36.492" fill="#FFDD00" width="10.188" height="8.127"/>
<g>
	<polygon fill="#333333" points="30.346,191.712 85.7,108.649 141.055,191.712 	"/>
	<polygon fill="#333333" points="66.969,191.712 123.652,96.612 177.669,191.712 	"/>
</g>
<rect x="265.778" y="128.626" fill="#F7941E" width="11.96" height="11.962"/>
<rect x="265.778" y="167.695" fill="#D51920" width="11.96" height="11.959"/>
<rect x="93.088" y="82.424" fill="#ED1C24" width="7.379" height="7.378"/>
<rect x="113.487" y="66.976" fill="#F15A22" width="5.355" height="5.357"/>
<rect x="99.548" y="105.069" fill="#B8292F" width="3.226" height="3.228"/>
<rect x="88.722" y="56.323" fill="#F37021" width="5.567" height="5.568"/>
<rect x="107.897" y="36.492" fill="#FDB913" width="8.124" height="8.127"/>
</svg>
