<?xml version="1.0" encoding="utf-8"?>
<!-- Generator: Adobe Illustrator 19.2.1, SVG Export Plug-In . SVG Version: 6.00 Build 0)  -->
<svg version="1.1"
	 id="Layer_1" color-rendering="auto" text-rendering="auto" shape-rendering="auto" image-rendering="auto" color-interpolation="auto"
	 xmlns="http://www.w3.org/2000/svg" xmlns:xlink="http://www.w3.org/1999/xlink" x="0px" y="0px" viewBox="0 0 849 285"
	 style="enable-background:new 0 0 849 285;" xml:space="preserve">
<style type="text/css">
	.st0{clip-path:url(#SVGID_2_);fill:#FFFFFF;}
	.st1{clip-path:url(#SVGID_4_);fill:#FFCC00;}
	.st2{clip-path:url(#SVGID_6_);fill:none;stroke:#000000;stroke-miterlimit:1.45;stroke-dasharray:6,2;}
	.st3{clip-path:url(#SVGID_8_);enable-background:new    ;}
	.st4{clip-path:url(#SVGID_10_);fill:#FFCC00;}
	.st5{clip-path:url(#SVGID_12_);fill:none;stroke:#000000;stroke-miterlimit:1.45;stroke-dasharray:6,2;}
	.st6{clip-path:url(#SVGID_14_);enable-background:new    ;}
	.st7{clip-path:url(#SVGID_16_);fill:#FFCC00;}
	.st8{clip-path:url(#SVGID_18_);fill:none;stroke:#000000;stroke-miterlimit:1.45;stroke-dasharray:6,2;}
	.st9{clip-path:url(#SVGID_20_);enable-background:new    ;}
	.st10{clip-path:url(#SVGID_22_);fill:#FFCC00;}
	.st11{clip-path:url(#SVGID_24_);fill:none;stroke:#000000;stroke-width:2;stroke-miterlimit:1.45;}
	.st12{clip-path:url(#SVGID_26_);enable-background:new    ;}
	.st13{clip-path:url(#SVGID_28_);fill:#FFCC00;}
	.st14{clip-path:url(#SVGID_30_);fill:none;stroke:#000000;stroke-width:2;stroke-miterlimit:1.45;}
	.st15{clip-path:url(#SVGID_32_);enable-background:new    ;}
	.st16{clip-path:url(#SVGID_34_);fill:#FFCC00;}
	.st17{clip-path:url(#SVGID_36_);fill:none;stroke:#000000;stroke-width:2;stroke-miterlimit:1.45;}
	.st18{clip-path:url(#SVGID_38_);enable-background:new    ;}
	.st19{clip-path:url(#SVGID_40_);fill:#FFCC00;}
	.st20{clip-path:url(#SVGID_42_);fill:none;stroke:#000000;stroke-width:2;stroke-miterlimit:1.45;}
	.st21{clip-path:url(#SVGID_44_);enable-background:new    ;}
	.st22{clip-path:url(#SVGID_46_);fill:#FFCC00;}
	.st23{clip-path:url(#SVGID_48_);fill:none;stroke:#000000;stroke-width:2;stroke-miterlimit:1.45;}
	.st24{clip-path:url(#SVGID_50_);enable-background:new    ;}
	.st25{clip-path:url(#SVGID_52_);fill:#FFCC00;}
	.st26{clip-path:url(#SVGID_54_);fill:none;stroke:#000000;stroke-width:2;stroke-miterlimit:1.45;}
	.st27{clip-path:url(#SVGID_56_);enable-background:new    ;}
	.st28{clip-path:url(#SVGID_58_);fill:#FFCC00;}
	.st29{clip-path:url(#SVGID_60_);fill:none;stroke:#000000;stroke-miterlimit:1.45;stroke-dasharray:6,2;}
	.st30{clip-path:url(#SVGID_62_);enable-background:new    ;}
	.st31{clip-path:url(#SVGID_64_);fill:none;stroke:#000000;stroke-miterlimit:1.45;}
	.st32{clip-path:url(#SVGID_66_);fill:none;stroke:#000000;stroke-miterlimit:1.45;}
	.st33{clip-path:url(#SVGID_68_);fill:none;stroke:#000000;stroke-miterlimit:1.45;}
	.st34{clip-path:url(#SVGID_70_);fill:none;stroke:#000000;stroke-miterlimit:1.45;}
	.st35{clip-path:url(#SVGID_72_);fill:none;stroke:#000000;stroke-miterlimit:1.45;}
	.st36{clip-path:url(#SVGID_74_);fill:none;stroke:#000000;stroke-miterlimit:1.45;}
	.st37{clip-path:url(#SVGID_76_);fill:none;stroke:#000000;stroke-miterlimit:1.45;}
	.st38{clip-path:url(#SVGID_78_);fill:none;stroke:#000000;stroke-miterlimit:1.45;}
	.st39{clip-path:url(#SVGID_80_);fill:none;stroke:#000000;stroke-miterlimit:1.45;}
</style>
<g>
	<g transform="translate(-47,-101)" text-rendering="geometricPrecision" shape-rendering="geometricPrecision">
		<g>
			<defs>
				<rect id="SVGID_1_" x="47" y="101" width="849" height="285"/>
			</defs>
			<clipPath id="SVGID_2_">
				<use xlink:href="#SVGID_1_"  style="overflow:visible;"/>
			</clipPath>
			<rect x="47" y="101" class="st0" width="849" height="285"/>
		</g>
	</g>
	<g transform="matrix(1,0,0,1,-47,-101)" text-rendering="geometricPrecision" shape-rendering="geometricPrecision">
		<g>
			<defs>
				<rect id="SVGID_3_" x="47" y="101" width="849" height="285"/>
			</defs>
			<clipPath id="SVGID_4_">
				<use xlink:href="#SVGID_3_"  style="overflow:visible;"/>
			</clipPath>
			<path class="st1" d="M661,191h101c2.2,0,4,1.8,4,4v22c0,2.2-1.8,4-4,4H661c-2.2,0-4-1.8-4-4v-22C657,192.8,658.8,191,661,191z"/>
		</g>
	</g>
	<g transform="matrix(1,0,0,1,-47,-101)" text-rendering="geometricPrecision" shape-rendering="geometricPrecision">
		<g>
			<defs>
				<rect id="SVGID_5_" x="47" y="101" width="849" height="285"/>
			</defs>
			<clipPath id="SVGID_6_">
				<use xlink:href="#SVGID_5_"  style="overflow:visible;"/>
			</clipPath>
			<path class="st2" d="M661,191h101c2.2,0,4,1.8,4,4v22c0,2.2-1.8,4-4,4H661c-2.2,0-4-1.8-4-4v-22C657,192.8,658.8,191,661,191z"/>
		</g>
		<g>
			<defs>
				<rect id="SVGID_7_" x="47" y="101" width="849" height="285"/>
			</defs>
			<clipPath id="SVGID_8_">
				<use xlink:href="#SVGID_7_"  style="overflow:visible;"/>
			</clipPath>
			<g class="st3">
				<path d="M682.1,203.9c0-0.1,0-0.2,0-0.2c-0.2-0.3-0.4-0.5-0.7-0.7c-0.3-0.2-0.6-0.3-1-0.3c-0.3,0-0.6,0.1-0.9,0.2
					c-0.3,0.2-0.5,0.4-0.7,0.7c-0.2,0.3-0.4,0.7-0.5,1.1c-0.1,0.4-0.2,1-0.2,1.5c0,0.6,0.1,1.1,0.2,1.5c0.1,0.5,0.3,0.8,0.5,1.2
					c0.2,0.3,0.5,0.6,0.8,0.7c0.3,0.2,0.6,0.3,0.9,0.3c0.3,0,0.7-0.1,1-0.3c0.3-0.2,0.6-0.5,0.8-0.8l0.7,0.5
					c-0.1,0.2-0.3,0.4-0.5,0.6c-0.2,0.2-0.4,0.3-0.6,0.4c-0.2,0.1-0.4,0.2-0.7,0.3c-0.2,0.1-0.4,0.1-0.7,0.1c-0.5,0-1-0.1-1.3-0.3
					c-0.4-0.2-0.7-0.4-1.1-0.8c-0.3-0.4-0.6-0.8-0.7-1.4c-0.2-0.6-0.3-1.2-0.3-2c0-0.9,0.1-1.6,0.3-2.1c0.2-0.6,0.5-1,0.8-1.4
					s0.7-0.6,1.1-0.7c0.4-0.1,0.7-0.2,1.1-0.2c0.3,0,0.6,0,0.8,0.1s0.5,0.2,0.8,0.3c0.2,0.1,0.5,0.3,0.6,0.5s0.3,0.4,0.4,0.7
					l-0.9,0.5C682.1,204,682.1,204,682.1,203.9z"/>
				<path d="M684.7,202h4.4v0.8h-1.7v7.1h1.8v0.8h-4.5v-0.8h1.7v-7.1h-1.6V202z"/>
				<path d="M691.2,210.7V202h1l3.7,6.5v-6.5h1c0,0.1,0,0.1,0,0.2c0,0.1,0,0.1,0,0.2v8.4H696l-3.8-6.9v6.9H691.2z"/>
				<path d="M698.3,202h2c0.7,0,1.3,0.1,1.7,0.3c0.4,0.2,0.8,0.5,1.1,0.9s0.5,0.8,0.6,1.4c0.1,0.5,0.2,1.2,0.2,1.8
					c0,0.7-0.1,1.3-0.3,1.8s-0.4,1-0.7,1.4s-0.7,0.7-1.1,0.9c-0.5,0.2-1,0.3-1.7,0.3h-1.9V202z M699.2,202.8v7.2h0.9
					c1,0,1.7-0.3,2.2-0.9c0.5-0.6,0.7-1.5,0.7-2.6c0-1.1-0.2-2-0.6-2.7c-0.4-0.6-1.1-1-2.1-1H699.2z"/>
				<path d="M705.3,201.9h5.3v0.9h-4.4v2.9h3.7v0.9h-3.7v3.2h4.4v0.9h-5.3V201.9z"/>
				<path d="M712.3,202h2.6c1,0,1.8,0.2,2.2,0.7c0.5,0.5,0.7,1.1,0.7,1.8c0,0.3,0,0.5-0.1,0.7c-0.1,0.2-0.2,0.5-0.4,0.7
					s-0.3,0.4-0.6,0.6c-0.2,0.2-0.5,0.3-0.7,0.3l2,3.9h-1.1l-1.9-3.8h-1.7v3.8h-1V202z M713.3,202.9v3.1h1.7c0.6,0,1.1-0.1,1.4-0.4
					c0.3-0.3,0.4-0.6,0.4-1.1c0-0.2,0-0.4-0.1-0.6s-0.2-0.4-0.3-0.5s-0.3-0.3-0.5-0.3s-0.5-0.1-0.8-0.1H713.3z"/>
				<path d="M719,210.9h6v0.9h-6V210.9z"/>
				<path d="M726.1,202h0.8l2.2,4.3l2.2-4.3h0.7v8.7H731v-6.6l-1.9,3.5h-0.4l-1.8-3.5v6.5h-0.9V202z"/>
				<path d="M738.6,203l-0.6,0.8c0,0-0.1-0.1-0.1-0.1c0-0.1,0-0.1,0-0.1c-0.2-0.3-0.4-0.5-0.7-0.6c-0.3-0.2-0.7-0.2-1.1-0.2
					c-0.4,0-0.8,0.1-1.1,0.4c-0.3,0.3-0.4,0.6-0.4,0.9c0,0.2,0,0.4,0.1,0.5s0.2,0.3,0.3,0.4c0.1,0.1,0.4,0.3,0.6,0.4
					c0.3,0.1,0.6,0.3,1.1,0.5c0.4,0.2,0.8,0.4,1.1,0.5c0.3,0.2,0.5,0.4,0.7,0.6c0.2,0.2,0.3,0.4,0.4,0.6c0.1,0.2,0.1,0.5,0.1,0.7
					c0,0.3-0.1,0.6-0.2,0.9c-0.1,0.3-0.3,0.6-0.5,0.8c-0.2,0.2-0.5,0.4-0.9,0.6c-0.4,0.1-0.8,0.2-1.3,0.2c-1.1,0-2-0.4-2.7-1.1
					l0.6-1c0,0,0.1,0.1,0.1,0.1s0,0.1,0,0.2c0.2,0.3,0.5,0.5,0.9,0.7c0.4,0.2,0.8,0.3,1.3,0.3c0.3,0,0.5,0,0.7-0.1
					c0.2-0.1,0.4-0.2,0.6-0.3c0.2-0.1,0.3-0.3,0.4-0.5c0.1-0.2,0.1-0.4,0.1-0.6c0-0.2,0-0.3-0.1-0.5c-0.1-0.1-0.2-0.3-0.3-0.4
					c-0.1-0.1-0.3-0.3-0.6-0.4s-0.6-0.3-1-0.4c-0.5-0.2-0.8-0.4-1.1-0.5c-0.3-0.2-0.5-0.4-0.7-0.6c-0.2-0.2-0.3-0.4-0.4-0.6
					c-0.1-0.2-0.1-0.4-0.1-0.7c0-0.3,0.1-0.6,0.2-0.9s0.3-0.5,0.6-0.7c0.2-0.2,0.5-0.4,0.8-0.5c0.3-0.1,0.7-0.2,1-0.2
					c0.5,0,0.9,0.1,1.3,0.3S738.3,202.7,738.6,203z"/>
				<path d="M739.7,202h0.9l0.9,5.9l1.4-5.2h0.3l1.4,5.3l0.8-5.9h0.8l-1.4,8.8h-0.4l-1.5-5.8l-1.5,5.8h-0.4L739.7,202z"/>
			</g>
		</g>
	</g>
	<g transform="matrix(1,0,0,1,-47,-101)" text-rendering="geometricPrecision" shape-rendering="geometricPrecision">
		<g>
			<defs>
				<rect id="SVGID_9_" x="47" y="101" width="849" height="285"/>
			</defs>
			<clipPath id="SVGID_10_">
				<use xlink:href="#SVGID_9_"  style="overflow:visible;"/>
			</clipPath>
			<path class="st4" d="M275,191h101c2.2,0,4,1.8,4,4v22c0,2.2-1.8,4-4,4H275c-2.2,0-4-1.8-4-4v-22C271,192.8,272.8,191,275,191z"/>
		</g>
	</g>
	<g transform="matrix(1,0,0,1,-47,-101)" text-rendering="geometricPrecision" shape-rendering="geometricPrecision">
		<g>
			<defs>
				<rect id="SVGID_11_" x="47" y="101" width="849" height="285"/>
			</defs>
			<clipPath id="SVGID_12_">
				<use xlink:href="#SVGID_11_"  style="overflow:visible;"/>
			</clipPath>
			<path class="st5" d="M275,191h101c2.2,0,4,1.8,4,4v22c0,2.2-1.8,4-4,4H275c-2.2,0-4-1.8-4-4v-22C271,192.8,272.8,191,275,191z"/>
		</g>
		<g>
			<defs>
				<rect id="SVGID_13_" x="47" y="101" width="849" height="285"/>
			</defs>
			<clipPath id="SVGID_14_">
				<use xlink:href="#SVGID_13_"  style="overflow:visible;"/>
			</clipPath>
			<g class="st6">
				<path d="M289.1,203.9c0-0.1,0-0.2,0-0.2c-0.2-0.3-0.4-0.5-0.7-0.7c-0.3-0.2-0.6-0.3-1-0.3c-0.3,0-0.6,0.1-0.9,0.2
					c-0.3,0.2-0.5,0.4-0.7,0.7c-0.2,0.3-0.4,0.7-0.5,1.1c-0.1,0.4-0.2,1-0.2,1.5c0,0.6,0.1,1.1,0.2,1.5c0.1,0.5,0.3,0.8,0.5,1.2
					c0.2,0.3,0.5,0.6,0.8,0.7c0.3,0.2,0.6,0.3,0.9,0.3c0.3,0,0.7-0.1,1-0.3c0.3-0.2,0.6-0.5,0.8-0.8l0.7,0.5
					c-0.1,0.2-0.3,0.4-0.5,0.6s-0.4,0.3-0.6,0.4s-0.4,0.2-0.7,0.3s-0.4,0.1-0.7,0.1c-0.5,0-1-0.1-1.3-0.3s-0.7-0.4-1.1-0.8
					c-0.3-0.4-0.6-0.8-0.7-1.4c-0.2-0.6-0.3-1.2-0.3-2c0-0.9,0.1-1.6,0.3-2.1c0.2-0.6,0.5-1,0.8-1.4s0.7-0.6,1.1-0.7
					s0.7-0.2,1.1-0.2c0.3,0,0.6,0,0.8,0.1s0.5,0.2,0.8,0.3c0.2,0.1,0.5,0.3,0.6,0.5c0.2,0.2,0.3,0.4,0.4,0.7l-0.9,0.5
					C289.1,204,289.1,204,289.1,203.9z"/>
				<path d="M291.7,202h4.4v0.8h-1.7v7.1h1.8v0.8h-4.5v-0.8h1.7v-7.1h-1.6V202z"/>
				<path d="M298.2,210.7V202h1l3.7,6.5v-6.5h1c0,0.1,0,0.1,0,0.2c0,0.1,0,0.1,0,0.2v8.4H303l-3.8-6.9v6.9H298.2z"/>
				<path d="M305.3,202h2c0.7,0,1.3,0.1,1.7,0.3c0.4,0.2,0.8,0.5,1.1,0.9c0.3,0.4,0.5,0.8,0.6,1.4c0.1,0.5,0.2,1.2,0.2,1.8
					c0,0.7-0.1,1.3-0.3,1.8s-0.4,1-0.7,1.4s-0.7,0.7-1.1,0.9c-0.5,0.2-1,0.3-1.7,0.3h-1.9V202z M306.2,202.8v7.2h0.9
					c1,0,1.7-0.3,2.2-0.9c0.5-0.6,0.7-1.5,0.7-2.6c0-1.1-0.2-2-0.6-2.7c-0.4-0.6-1.1-1-2.1-1H306.2z"/>
				<path d="M312.3,201.9h5.3v0.9h-4.4v2.9h3.7v0.9h-3.7v3.2h4.4v0.9h-5.3V201.9z"/>
				<path d="M319.3,202h2.6c1,0,1.8,0.2,2.2,0.7c0.5,0.5,0.7,1.1,0.7,1.8c0,0.3,0,0.5-0.1,0.7c-0.1,0.2-0.2,0.5-0.4,0.7
					c-0.2,0.2-0.3,0.4-0.6,0.6c-0.2,0.2-0.5,0.3-0.7,0.3l2,3.9h-1.1l-1.9-3.8h-1.7v3.8h-1V202z M320.3,202.9v3.1h1.7
					c0.6,0,1.1-0.1,1.4-0.4s0.4-0.6,0.4-1.1c0-0.2,0-0.4-0.1-0.6c-0.1-0.2-0.2-0.4-0.3-0.5s-0.3-0.3-0.5-0.3s-0.5-0.1-0.8-0.1H320.3
					z"/>
				<path d="M326,210.9h6v0.9h-6V210.9z"/>
				<path d="M333.3,202h2.8c0.5,0,0.9,0.1,1.2,0.2c0.3,0.1,0.6,0.3,0.8,0.5c0.2,0.2,0.4,0.5,0.5,0.8s0.2,0.6,0.2,1
					c0,0.3-0.1,0.7-0.2,0.9c-0.1,0.3-0.3,0.5-0.5,0.8c-0.2,0.2-0.5,0.4-0.8,0.5c-0.3,0.1-0.7,0.2-1.2,0.2h-1.9v3.8h-1V202z
					 M334.3,202.9v3.1h1.8c0.6,0,1.1-0.1,1.4-0.4s0.4-0.6,0.4-1.1c0-0.2-0.1-0.4-0.1-0.6c-0.1-0.2-0.2-0.4-0.3-0.5
					c-0.1-0.1-0.3-0.3-0.5-0.3c-0.2-0.1-0.5-0.1-0.8-0.1H334.3z"/>
				<path d="M343.1,210.8c-0.5,0-0.9-0.1-1.3-0.3c-0.4-0.2-0.7-0.5-1-0.9c-0.3-0.4-0.5-0.9-0.6-1.4c-0.1-0.6-0.2-1.2-0.2-1.8
					s0.1-1.3,0.2-1.8c0.2-0.6,0.4-1,0.7-1.4c0.3-0.4,0.6-0.7,1-0.9s0.8-0.3,1.3-0.3c0.4,0,0.8,0.1,1.1,0.3c0.4,0.2,0.7,0.4,1,0.8
					s0.5,0.8,0.7,1.4c0.1,0.6,0.2,1.2,0.2,2c0,0.8-0.1,1.5-0.3,2.1c-0.2,0.6-0.4,1-0.7,1.4c-0.3,0.4-0.6,0.6-1,0.8
					S343.4,210.8,343.1,210.8z M341.6,209.1c0.4,0.5,0.9,0.8,1.4,0.8c0.3,0,0.5-0.1,0.7-0.2c0.2-0.1,0.5-0.3,0.7-0.6
					c0.2-0.3,0.4-0.6,0.5-1.1c0.1-0.5,0.2-1,0.2-1.8c0-0.7-0.1-1.3-0.2-1.7s-0.3-0.8-0.5-1.1c-0.2-0.3-0.4-0.5-0.6-0.6
					c-0.2-0.1-0.5-0.2-0.7-0.2c-0.3,0-0.6,0-0.8,0.2c-0.2,0.1-0.5,0.3-0.7,0.5c-0.2,0.3-0.4,0.6-0.5,1c-0.1,0.4-0.2,1-0.2,1.7
					c0,0.6,0.1,1.2,0.2,1.7C341.2,208.4,341.4,208.8,341.6,209.1z"/>
				<path d="M352.6,203l-0.6,0.8c0,0-0.1-0.1-0.1-0.1c0-0.1,0-0.1,0-0.1c-0.2-0.3-0.4-0.5-0.7-0.6c-0.3-0.2-0.7-0.2-1.1-0.2
					c-0.4,0-0.8,0.1-1.1,0.4s-0.4,0.6-0.4,0.9c0,0.2,0,0.4,0.1,0.5c0.1,0.1,0.2,0.3,0.3,0.4c0.1,0.1,0.4,0.3,0.6,0.4
					c0.3,0.1,0.6,0.3,1.1,0.5c0.4,0.2,0.8,0.4,1.1,0.5c0.3,0.2,0.5,0.4,0.7,0.6c0.2,0.2,0.3,0.4,0.4,0.6c0.1,0.2,0.1,0.5,0.1,0.7
					c0,0.3-0.1,0.6-0.2,0.9c-0.1,0.3-0.3,0.6-0.5,0.8c-0.2,0.2-0.5,0.4-0.9,0.6c-0.4,0.1-0.8,0.2-1.3,0.2c-1.1,0-2-0.4-2.7-1.1
					l0.6-1c0,0,0.1,0.1,0.1,0.1s0,0.1,0,0.2c0.2,0.3,0.5,0.5,0.9,0.7c0.4,0.2,0.8,0.3,1.3,0.3c0.3,0,0.5,0,0.7-0.1s0.4-0.2,0.6-0.3
					c0.2-0.1,0.3-0.3,0.4-0.5c0.1-0.2,0.1-0.4,0.1-0.6c0-0.2,0-0.3-0.1-0.5c-0.1-0.1-0.2-0.3-0.3-0.4c-0.1-0.1-0.3-0.3-0.6-0.4
					s-0.6-0.3-1-0.4c-0.5-0.2-0.8-0.4-1.1-0.5c-0.3-0.2-0.5-0.4-0.7-0.6s-0.3-0.4-0.4-0.6c-0.1-0.2-0.1-0.4-0.1-0.7
					c0-0.3,0.1-0.6,0.2-0.9s0.3-0.5,0.6-0.7s0.5-0.4,0.8-0.5c0.3-0.1,0.7-0.2,1-0.2c0.5,0,0.9,0.1,1.3,0.3
					C351.9,202.4,352.3,202.7,352.6,203z"/>
				<path d="M354.7,202h4.4v0.8h-1.7v7.1h1.8v0.8h-4.5v-0.8h1.7v-7.1h-1.6V202z"/>
				<path d="M365.8,201.9h1l-2.2,4.3l2.5,4.5H366l-1.9-3.5l-1.9,3.5h-1.1l2.4-4.5l-2.3-4.3h1l1.8,3.3L365.8,201.9z"/>
			</g>
		</g>
	</g>
	<g transform="matrix(1,0,0,1,-47,-101)" text-rendering="geometricPrecision" shape-rendering="geometricPrecision">
		<g>
			<defs>
				<rect id="SVGID_15_" x="47" y="101" width="849" height="285"/>
			</defs>
			<clipPath id="SVGID_16_">
				<use xlink:href="#SVGID_15_"  style="overflow:visible;"/>
			</clipPath>
			<path class="st7" d="M136,266h101c2.2,0,4,1.8,4,4v22c0,2.2-1.8,4-4,4H136c-2.2,0-4-1.8-4-4v-22C132,267.8,133.8,266,136,266z"/>
		</g>
	</g>
	<g transform="matrix(1,0,0,1,-47,-101)" text-rendering="geometricPrecision" shape-rendering="geometricPrecision">
		<g>
			<defs>
				<rect id="SVGID_17_" x="47" y="101" width="849" height="285"/>
			</defs>
			<clipPath id="SVGID_18_">
				<use xlink:href="#SVGID_17_"  style="overflow:visible;"/>
			</clipPath>
			<path class="st8" d="M136,266h101c2.2,0,4,1.8,4,4v22c0,2.2-1.8,4-4,4H136c-2.2,0-4-1.8-4-4v-22C132,267.8,133.8,266,136,266z"/>
		</g>
		<g>
			<defs>
				<rect id="SVGID_19_" x="47" y="101" width="849" height="285"/>
			</defs>
			<clipPath id="SVGID_20_">
				<use xlink:href="#SVGID_19_"  style="overflow:visible;"/>
			</clipPath>
			<g class="st9">
				<path d="M150.1,278.9c0-0.1,0-0.2,0-0.2c-0.2-0.3-0.4-0.5-0.7-0.7c-0.3-0.2-0.6-0.3-1-0.3c-0.3,0-0.6,0.1-0.9,0.2
					c-0.3,0.2-0.5,0.4-0.7,0.7c-0.2,0.3-0.4,0.7-0.5,1.1c-0.1,0.4-0.2,1-0.2,1.5c0,0.6,0.1,1.1,0.2,1.5c0.1,0.5,0.3,0.8,0.5,1.2
					c0.2,0.3,0.5,0.6,0.8,0.7c0.3,0.2,0.6,0.3,0.9,0.3c0.3,0,0.7-0.1,1-0.3c0.3-0.2,0.6-0.5,0.8-0.8l0.7,0.5
					c-0.1,0.2-0.3,0.4-0.5,0.6s-0.4,0.3-0.6,0.4s-0.4,0.2-0.7,0.3s-0.4,0.1-0.7,0.1c-0.5,0-1-0.1-1.3-0.3s-0.7-0.4-1.1-0.8
					c-0.3-0.4-0.6-0.8-0.7-1.4c-0.2-0.6-0.3-1.2-0.3-2c0-0.9,0.1-1.6,0.3-2.1c0.2-0.6,0.5-1,0.8-1.4s0.7-0.6,1.1-0.7
					s0.7-0.2,1.1-0.2c0.3,0,0.6,0,0.8,0.1s0.5,0.2,0.8,0.3c0.2,0.1,0.5,0.3,0.6,0.5c0.2,0.2,0.3,0.4,0.4,0.7l-0.9,0.5
					C150.1,279,150.1,279,150.1,278.9z"/>
				<path d="M152.7,277h4.4v0.8h-1.7v7.1h1.8v0.8h-4.5v-0.8h1.7v-7.1h-1.6V277z"/>
				<path d="M159.2,285.7V277h1l3.7,6.5v-6.5h1c0,0.1,0,0.1,0,0.2c0,0.1,0,0.1,0,0.2v8.4H164l-3.8-6.9v6.9H159.2z"/>
				<path d="M166.3,277h2c0.7,0,1.3,0.1,1.7,0.3c0.4,0.2,0.8,0.5,1.1,0.9c0.3,0.4,0.5,0.8,0.6,1.4c0.1,0.5,0.2,1.2,0.2,1.8
					c0,0.7-0.1,1.3-0.3,1.8s-0.4,1-0.7,1.4s-0.7,0.7-1.1,0.9c-0.5,0.2-1,0.3-1.7,0.3h-1.9V277z M167.2,277.8v7.2h0.9
					c1,0,1.7-0.3,2.2-0.9c0.5-0.6,0.7-1.5,0.7-2.6c0-1.1-0.2-2-0.6-2.7c-0.4-0.6-1.1-1-2.1-1H167.2z"/>
				<path d="M173.3,276.9h5.3v0.9h-4.4v2.9h3.7v0.9h-3.7v3.2h4.4v0.9h-5.3V276.9z"/>
				<path d="M180.3,277h2.6c1,0,1.8,0.2,2.2,0.7c0.5,0.5,0.7,1.1,0.7,1.8c0,0.3,0,0.5-0.1,0.7c-0.1,0.2-0.2,0.5-0.4,0.7
					c-0.2,0.2-0.3,0.4-0.6,0.6c-0.2,0.2-0.5,0.3-0.7,0.3l2,3.9h-1.1l-1.9-3.8h-1.7v3.8h-1V277z M181.3,277.9v3.1h1.7
					c0.6,0,1.1-0.1,1.4-0.4s0.4-0.6,0.4-1.1c0-0.2,0-0.4-0.1-0.6c-0.1-0.2-0.2-0.4-0.3-0.5s-0.3-0.3-0.5-0.3s-0.5-0.1-0.8-0.1H181.3
					z"/>
				<path d="M187,285.9h6v0.9h-6V285.9z"/>
				<path d="M199.1,278.9c0-0.1,0-0.2,0-0.2c-0.2-0.3-0.4-0.5-0.7-0.7c-0.3-0.2-0.6-0.3-1-0.3c-0.3,0-0.6,0.1-0.9,0.2
					c-0.3,0.2-0.5,0.4-0.7,0.7c-0.2,0.3-0.4,0.7-0.5,1.1c-0.1,0.4-0.2,1-0.2,1.5c0,0.6,0.1,1.1,0.2,1.5c0.1,0.5,0.3,0.8,0.5,1.2
					c0.2,0.3,0.5,0.6,0.8,0.7c0.3,0.2,0.6,0.3,0.9,0.3c0.3,0,0.7-0.1,1-0.3c0.3-0.2,0.6-0.5,0.8-0.8l0.7,0.5
					c-0.1,0.2-0.3,0.4-0.5,0.6s-0.4,0.3-0.6,0.4s-0.4,0.2-0.7,0.3s-0.4,0.1-0.7,0.1c-0.5,0-1-0.1-1.3-0.3s-0.7-0.4-1.1-0.8
					c-0.3-0.4-0.6-0.8-0.7-1.4c-0.2-0.6-0.3-1.2-0.3-2c0-0.9,0.1-1.6,0.3-2.1c0.2-0.6,0.5-1,0.8-1.4s0.7-0.6,1.1-0.7
					s0.7-0.2,1.1-0.2c0.3,0,0.6,0,0.8,0.1s0.5,0.2,0.8,0.3c0.2,0.1,0.5,0.3,0.6,0.5c0.2,0.2,0.3,0.4,0.4,0.7l-0.9,0.5
					C199.1,279,199.1,279,199.1,278.9z"/>
				<path d="M204.1,285.8c-0.5,0-0.9-0.1-1.3-0.3c-0.4-0.2-0.7-0.5-1-0.9c-0.3-0.4-0.5-0.9-0.6-1.4c-0.1-0.6-0.2-1.2-0.2-1.8
					s0.1-1.3,0.2-1.8c0.2-0.6,0.4-1,0.7-1.4c0.3-0.4,0.6-0.7,1-0.9s0.8-0.3,1.3-0.3c0.4,0,0.8,0.1,1.1,0.3c0.4,0.2,0.7,0.4,1,0.8
					s0.5,0.8,0.7,1.4c0.1,0.6,0.2,1.2,0.2,2c0,0.8-0.1,1.5-0.3,2.1c-0.2,0.6-0.4,1-0.7,1.4c-0.3,0.4-0.6,0.6-1,0.8
					S204.4,285.8,204.1,285.8z M202.6,284.1c0.4,0.5,0.9,0.8,1.4,0.8c0.3,0,0.5-0.1,0.7-0.2c0.2-0.1,0.5-0.3,0.7-0.6
					c0.2-0.3,0.4-0.6,0.5-1.1c0.1-0.5,0.2-1,0.2-1.8c0-0.7-0.1-1.3-0.2-1.7s-0.3-0.8-0.5-1.1c-0.2-0.3-0.4-0.5-0.6-0.6
					c-0.2-0.1-0.5-0.2-0.7-0.2c-0.3,0-0.6,0-0.8,0.2c-0.2,0.1-0.5,0.3-0.7,0.5c-0.2,0.3-0.4,0.6-0.5,1c-0.1,0.4-0.2,1-0.2,1.7
					c0,0.6,0.1,1.2,0.2,1.7C202.2,283.4,202.4,283.8,202.6,284.1z"/>
				<path d="M213.1,278.9c0-0.1,0-0.2,0-0.2c-0.2-0.3-0.4-0.5-0.7-0.7c-0.3-0.2-0.6-0.3-1-0.3c-0.3,0-0.6,0.1-0.9,0.2
					c-0.3,0.2-0.5,0.4-0.7,0.7c-0.2,0.3-0.4,0.7-0.5,1.1c-0.1,0.4-0.2,1-0.2,1.5c0,0.6,0.1,1.1,0.2,1.5c0.1,0.5,0.3,0.8,0.5,1.2
					c0.2,0.3,0.5,0.6,0.8,0.7c0.3,0.2,0.6,0.3,0.9,0.3c0.3,0,0.7-0.1,1-0.3c0.3-0.2,0.6-0.5,0.8-0.8l0.7,0.5
					c-0.1,0.2-0.3,0.4-0.5,0.6s-0.4,0.3-0.6,0.4s-0.4,0.2-0.7,0.3s-0.4,0.1-0.7,0.1c-0.5,0-1-0.1-1.3-0.3s-0.7-0.4-1.1-0.8
					c-0.3-0.4-0.6-0.8-0.7-1.4c-0.2-0.6-0.3-1.2-0.3-2c0-0.9,0.1-1.6,0.3-2.1c0.2-0.6,0.5-1,0.8-1.4s0.7-0.6,1.1-0.7
					s0.7-0.2,1.1-0.2c0.3,0,0.6,0,0.8,0.1s0.5,0.2,0.8,0.3c0.2,0.1,0.5,0.3,0.6,0.5c0.2,0.2,0.3,0.4,0.4,0.7l-0.9,0.5
					C213.1,279,213.1,279,213.1,278.9z"/>
				<path d="M218.1,285.8c-0.5,0-0.9-0.1-1.3-0.3c-0.4-0.2-0.7-0.5-1-0.9c-0.3-0.4-0.5-0.9-0.6-1.4c-0.1-0.6-0.2-1.2-0.2-1.8
					s0.1-1.3,0.2-1.8c0.2-0.6,0.4-1,0.7-1.4c0.3-0.4,0.6-0.7,1-0.9s0.8-0.3,1.3-0.3c0.4,0,0.8,0.1,1.1,0.3c0.4,0.2,0.7,0.4,1,0.8
					s0.5,0.8,0.7,1.4c0.1,0.6,0.2,1.2,0.2,2c0,0.8-0.1,1.5-0.3,2.1c-0.2,0.6-0.4,1-0.7,1.4c-0.3,0.4-0.6,0.6-1,0.8
					S218.4,285.8,218.1,285.8z M216.6,284.1c0.4,0.5,0.9,0.8,1.4,0.8c0.3,0,0.5-0.1,0.7-0.2c0.2-0.1,0.5-0.3,0.7-0.6
					c0.2-0.3,0.4-0.6,0.5-1.1c0.1-0.5,0.2-1,0.2-1.8c0-0.7-0.1-1.3-0.2-1.7s-0.3-0.8-0.5-1.1c-0.2-0.3-0.4-0.5-0.6-0.6
					c-0.2-0.1-0.5-0.2-0.7-0.2c-0.3,0-0.6,0-0.8,0.2c-0.2,0.1-0.5,0.3-0.7,0.5c-0.2,0.3-0.4,0.6-0.5,1c-0.1,0.4-0.2,1-0.2,1.7
					c0,0.6,0.1,1.2,0.2,1.7C216.2,283.4,216.4,283.8,216.6,284.1z"/>
				<path d="M221.7,285.7l3.1-8.9h0.1l3.4,8.9h-1l-1-2.5h-2.8l-0.8,2.5H221.7z M226.1,282.4l-1.2-3.3l-1.1,3.3H226.1z"/>
			</g>
		</g>
	</g>
	<g transform="matrix(1,0,0,1,-47,-101)" text-rendering="geometricPrecision" shape-rendering="geometricPrecision">
		<g>
			<defs>
				<rect id="SVGID_21_" x="47" y="101" width="849" height="285"/>
			</defs>
			<clipPath id="SVGID_22_">
				<use xlink:href="#SVGID_21_"  style="overflow:visible;"/>
			</clipPath>
			<path class="st10" d="M205,341h145c2.2,0,4,1.8,4,4v22c0,2.2-1.8,4-4,4H205c-2.2,0-4-1.8-4-4v-22C201,342.8,202.8,341,205,341z"
				/>
		</g>
	</g>
	<g transform="matrix(1,0,0,1,-47,-101)" text-rendering="geometricPrecision" shape-rendering="geometricPrecision">
		<g>
			<defs>
				<rect id="SVGID_23_" x="47" y="101" width="849" height="285"/>
			</defs>
			<clipPath id="SVGID_24_">
				<use xlink:href="#SVGID_23_"  style="overflow:visible;"/>
			</clipPath>
			<path class="st11" d="M205,341h145c2.2,0,4,1.8,4,4v22c0,2.2-1.8,4-4,4H205c-2.2,0-4-1.8-4-4v-22C201,342.8,202.8,341,205,341z"
				/>
		</g>
		<g>
			<defs>
				<rect id="SVGID_25_" x="47" y="101" width="849" height="285"/>
			</defs>
			<clipPath id="SVGID_26_">
				<use xlink:href="#SVGID_25_"  style="overflow:visible;"/>
			</clipPath>
			<g class="st12">
				<path d="M220.1,353.9c0-0.1,0-0.2,0-0.2c-0.2-0.3-0.4-0.5-0.7-0.7c-0.3-0.2-0.6-0.3-1-0.3c-0.3,0-0.6,0.1-0.9,0.2
					c-0.3,0.2-0.5,0.4-0.7,0.7c-0.2,0.3-0.4,0.7-0.5,1.1c-0.1,0.4-0.2,1-0.2,1.5c0,0.6,0.1,1.1,0.2,1.5c0.1,0.5,0.3,0.8,0.5,1.2
					c0.2,0.3,0.5,0.6,0.8,0.7c0.3,0.2,0.6,0.3,0.9,0.3c0.3,0,0.7-0.1,1-0.3c0.3-0.2,0.6-0.5,0.8-0.8l0.7,0.5
					c-0.1,0.2-0.3,0.4-0.5,0.6s-0.4,0.3-0.6,0.4s-0.4,0.2-0.7,0.3s-0.4,0.1-0.7,0.1c-0.5,0-1-0.1-1.3-0.3s-0.7-0.4-1.1-0.8
					c-0.3-0.4-0.6-0.8-0.7-1.4c-0.2-0.6-0.3-1.2-0.3-2c0-0.9,0.1-1.6,0.3-2.1c0.2-0.6,0.5-1,0.8-1.4s0.7-0.6,1.1-0.7
					s0.7-0.2,1.1-0.2c0.3,0,0.6,0,0.8,0.1s0.5,0.2,0.8,0.3c0.2,0.1,0.5,0.3,0.6,0.5c0.2,0.2,0.3,0.4,0.4,0.7l-0.9,0.5
					C220.1,354,220.1,354,220.1,353.9z"/>
				<path d="M222.7,352h4.4v0.8h-1.7v7.1h1.8v0.8h-4.5v-0.8h1.7v-7.1h-1.6V352z"/>
				<path d="M229.2,360.7V352h1l3.7,6.5v-6.5h1c0,0.1,0,0.1,0,0.2c0,0.1,0,0.1,0,0.2v8.4H234l-3.8-6.9v6.9H229.2z"/>
				<path d="M236.3,352h2c0.7,0,1.3,0.1,1.7,0.3c0.4,0.2,0.8,0.5,1.1,0.9c0.3,0.4,0.5,0.8,0.6,1.4c0.1,0.5,0.2,1.2,0.2,1.8
					c0,0.7-0.1,1.3-0.3,1.8s-0.4,1-0.7,1.4s-0.7,0.7-1.1,0.9c-0.5,0.2-1,0.3-1.7,0.3h-1.9V352z M237.2,352.8v7.2h0.9
					c1,0,1.7-0.3,2.2-0.9c0.5-0.6,0.7-1.5,0.7-2.6c0-1.1-0.2-2-0.6-2.7c-0.4-0.6-1.1-1-2.1-1H237.2z"/>
				<path d="M243.3,351.9h5.3v0.9h-4.4v2.9h3.7v0.9h-3.7v3.2h4.4v0.9h-5.3V351.9z"/>
				<path d="M250.3,352h2.6c1,0,1.8,0.2,2.2,0.7c0.5,0.5,0.7,1.1,0.7,1.8c0,0.3,0,0.5-0.1,0.7c-0.1,0.2-0.2,0.5-0.4,0.7
					c-0.2,0.2-0.3,0.4-0.6,0.6c-0.2,0.2-0.5,0.3-0.7,0.3l2,3.9h-1.1l-1.9-3.8h-1.7v3.8h-1V352z M251.3,352.9v3.1h1.7
					c0.6,0,1.1-0.1,1.4-0.4s0.4-0.6,0.4-1.1c0-0.2,0-0.4-0.1-0.6c-0.1-0.2-0.2-0.4-0.3-0.5s-0.3-0.3-0.5-0.3s-0.5-0.1-0.8-0.1H251.3
					z"/>
				<path d="M257,360.9h6v0.9h-6V360.9z"/>
				<path d="M269.1,353.9c0-0.1,0-0.2,0-0.2c-0.2-0.3-0.4-0.5-0.7-0.7c-0.3-0.2-0.6-0.3-1-0.3c-0.3,0-0.6,0.1-0.9,0.2
					c-0.3,0.2-0.5,0.4-0.7,0.7c-0.2,0.3-0.4,0.7-0.5,1.1c-0.1,0.4-0.2,1-0.2,1.5c0,0.6,0.1,1.1,0.2,1.5c0.1,0.5,0.3,0.8,0.5,1.2
					c0.2,0.3,0.5,0.6,0.8,0.7c0.3,0.2,0.6,0.3,0.9,0.3c0.3,0,0.7-0.1,1-0.3c0.3-0.2,0.6-0.5,0.8-0.8l0.7,0.5
					c-0.1,0.2-0.3,0.4-0.5,0.6s-0.4,0.3-0.6,0.4s-0.4,0.2-0.7,0.3s-0.4,0.1-0.7,0.1c-0.5,0-1-0.1-1.3-0.3s-0.7-0.4-1.1-0.8
					c-0.3-0.4-0.6-0.8-0.7-1.4c-0.2-0.6-0.3-1.2-0.3-2c0-0.9,0.1-1.6,0.3-2.1c0.2-0.6,0.5-1,0.8-1.4s0.7-0.6,1.1-0.7
					s0.7-0.2,1.1-0.2c0.3,0,0.6,0,0.8,0.1s0.5,0.2,0.8,0.3c0.2,0.1,0.5,0.3,0.6,0.5c0.2,0.2,0.3,0.4,0.4,0.7l-0.9,0.5
					C269.1,354,269.1,354,269.1,353.9z"/>
				<path d="M274.1,360.8c-0.5,0-0.9-0.1-1.3-0.3c-0.4-0.2-0.7-0.5-1-0.9c-0.3-0.4-0.5-0.9-0.6-1.4c-0.1-0.6-0.2-1.2-0.2-1.8
					s0.1-1.3,0.2-1.8c0.2-0.6,0.4-1,0.7-1.4c0.3-0.4,0.6-0.7,1-0.9s0.8-0.3,1.3-0.3c0.4,0,0.8,0.1,1.1,0.3c0.4,0.2,0.7,0.4,1,0.8
					s0.5,0.8,0.7,1.4c0.1,0.6,0.2,1.2,0.2,2c0,0.8-0.1,1.5-0.3,2.1c-0.2,0.6-0.4,1-0.7,1.4c-0.3,0.4-0.6,0.6-1,0.8
					S274.4,360.8,274.1,360.8z M272.6,359.1c0.4,0.5,0.9,0.8,1.4,0.8c0.3,0,0.5-0.1,0.7-0.2c0.2-0.1,0.5-0.3,0.7-0.6
					c0.2-0.3,0.4-0.6,0.5-1.1c0.1-0.5,0.2-1,0.2-1.8c0-0.7-0.1-1.3-0.2-1.7s-0.3-0.8-0.5-1.1c-0.2-0.3-0.4-0.5-0.6-0.6
					c-0.2-0.1-0.5-0.2-0.7-0.2c-0.3,0-0.6,0-0.8,0.2c-0.2,0.1-0.5,0.3-0.7,0.5c-0.2,0.3-0.4,0.6-0.5,1c-0.1,0.4-0.2,1-0.2,1.7
					c0,0.6,0.1,1.2,0.2,1.7C272.2,358.4,272.4,358.8,272.6,359.1z"/>
				<path d="M283.1,353.9c0-0.1,0-0.2,0-0.2c-0.2-0.3-0.4-0.5-0.7-0.7c-0.3-0.2-0.6-0.3-1-0.3c-0.3,0-0.6,0.1-0.9,0.2
					c-0.3,0.2-0.5,0.4-0.7,0.7c-0.2,0.3-0.4,0.7-0.5,1.1c-0.1,0.4-0.2,1-0.2,1.5c0,0.6,0.1,1.1,0.2,1.5c0.1,0.5,0.3,0.8,0.5,1.2
					c0.2,0.3,0.5,0.6,0.8,0.7c0.3,0.2,0.6,0.3,0.9,0.3c0.3,0,0.7-0.1,1-0.3c0.3-0.2,0.6-0.5,0.8-0.8l0.7,0.5
					c-0.1,0.2-0.3,0.4-0.5,0.6s-0.4,0.3-0.6,0.4s-0.4,0.2-0.7,0.3s-0.4,0.1-0.7,0.1c-0.5,0-1-0.1-1.3-0.3s-0.7-0.4-1.1-0.8
					c-0.3-0.4-0.6-0.8-0.7-1.4c-0.2-0.6-0.3-1.2-0.3-2c0-0.9,0.1-1.6,0.3-2.1c0.2-0.6,0.5-1,0.8-1.4s0.7-0.6,1.1-0.7
					s0.7-0.2,1.1-0.2c0.3,0,0.6,0,0.8,0.1s0.5,0.2,0.8,0.3c0.2,0.1,0.5,0.3,0.6,0.5c0.2,0.2,0.3,0.4,0.4,0.7l-0.9,0.5
					C283.1,354,283.1,354,283.1,353.9z"/>
				<path d="M288.1,360.8c-0.5,0-0.9-0.1-1.3-0.3c-0.4-0.2-0.7-0.5-1-0.9c-0.3-0.4-0.5-0.9-0.6-1.4c-0.1-0.6-0.2-1.2-0.2-1.8
					s0.1-1.3,0.2-1.8c0.2-0.6,0.4-1,0.7-1.4c0.3-0.4,0.6-0.7,1-0.9s0.8-0.3,1.3-0.3c0.4,0,0.8,0.1,1.1,0.3c0.4,0.2,0.7,0.4,1,0.8
					s0.5,0.8,0.7,1.4c0.1,0.6,0.2,1.2,0.2,2c0,0.8-0.1,1.5-0.3,2.1c-0.2,0.6-0.4,1-0.7,1.4c-0.3,0.4-0.6,0.6-1,0.8
					S288.4,360.8,288.1,360.8z M286.6,359.1c0.4,0.5,0.9,0.8,1.4,0.8c0.3,0,0.5-0.1,0.7-0.2c0.2-0.1,0.5-0.3,0.7-0.6
					c0.2-0.3,0.4-0.6,0.5-1.1c0.1-0.5,0.2-1,0.2-1.8c0-0.7-0.1-1.3-0.2-1.7s-0.3-0.8-0.5-1.1c-0.2-0.3-0.4-0.5-0.6-0.6
					c-0.2-0.1-0.5-0.2-0.7-0.2c-0.3,0-0.6,0-0.8,0.2c-0.2,0.1-0.5,0.3-0.7,0.5c-0.2,0.3-0.4,0.6-0.5,1c-0.1,0.4-0.2,1-0.2,1.7
					c0,0.6,0.1,1.2,0.2,1.7C286.2,358.4,286.4,358.8,286.6,359.1z"/>
				<path d="M291.7,360.7l3.1-8.9h0.1l3.4,8.9h-1l-1-2.5h-2.8l-0.8,2.5H291.7z M296.1,357.4l-1.2-3.3l-1.1,3.3H296.1z"/>
				<path d="M299,360.9h6v0.9h-6V360.9z"/>
				<path d="M305.9,351.9h6.1v0.9h-2.6v7.9h-1v-7.9h-2.5V351.9z"/>
				<path d="M316.1,360.8c-0.5,0-0.9-0.1-1.3-0.3c-0.4-0.2-0.7-0.5-1-0.9c-0.3-0.4-0.5-0.9-0.6-1.4c-0.1-0.6-0.2-1.2-0.2-1.8
					s0.1-1.3,0.2-1.8c0.2-0.6,0.4-1,0.7-1.4c0.3-0.4,0.6-0.7,1-0.9s0.8-0.3,1.3-0.3c0.4,0,0.8,0.1,1.1,0.3c0.4,0.2,0.7,0.4,1,0.8
					s0.5,0.8,0.7,1.4c0.1,0.6,0.2,1.2,0.2,2c0,0.8-0.1,1.5-0.3,2.1c-0.2,0.6-0.4,1-0.7,1.4c-0.3,0.4-0.6,0.6-1,0.8
					S316.4,360.8,316.1,360.8z M314.6,359.1c0.4,0.5,0.9,0.8,1.4,0.8c0.3,0,0.5-0.1,0.7-0.2c0.2-0.1,0.5-0.3,0.7-0.6
					c0.2-0.3,0.4-0.6,0.5-1.1c0.1-0.5,0.2-1,0.2-1.8c0-0.7-0.1-1.3-0.2-1.7s-0.3-0.8-0.5-1.1c-0.2-0.3-0.4-0.5-0.6-0.6
					c-0.2-0.1-0.5-0.2-0.7-0.2c-0.3,0-0.6,0-0.8,0.2c-0.2,0.1-0.5,0.3-0.7,0.5c-0.2,0.3-0.4,0.6-0.5,1c-0.1,0.4-0.2,1-0.2,1.7
					c0,0.6,0.1,1.2,0.2,1.7C314.2,358.4,314.4,358.8,314.6,359.1z"/>
				<path d="M320.2,352h1.1c0,0,0,0,0,0c0,0,0,0.1-0.1,0.2c0,0.1-0.1,0.2-0.1,0.3v5.3c0,0.5,0,0.9,0.1,1.1c0.1,0.3,0.2,0.5,0.4,0.7
					c0.2,0.2,0.4,0.3,0.6,0.4c0.2,0.1,0.5,0.1,0.7,0.2c0.3,0,0.5-0.1,0.7-0.1c0.2-0.1,0.4-0.2,0.6-0.4c0.2-0.2,0.3-0.4,0.4-0.7
					c0.1-0.3,0.1-0.7,0.1-1.2V352h0.9v5.7c0,0.6-0.1,1-0.2,1.4c-0.1,0.4-0.3,0.7-0.6,1s-0.6,0.5-0.9,0.6s-0.7,0.2-1.2,0.2
					c-0.4,0-0.8-0.1-1.1-0.2c-0.3-0.1-0.6-0.3-0.9-0.6c-0.2-0.3-0.4-0.6-0.6-0.9s-0.2-0.9-0.2-1.5V352z"/>
				<path d="M332.1,353.9c0-0.1,0-0.2,0-0.2c-0.2-0.3-0.4-0.5-0.7-0.7c-0.3-0.2-0.6-0.3-1-0.3c-0.3,0-0.6,0.1-0.9,0.2
					c-0.3,0.2-0.5,0.4-0.7,0.7c-0.2,0.3-0.4,0.7-0.5,1.1c-0.1,0.4-0.2,1-0.2,1.5c0,0.6,0.1,1.1,0.2,1.5c0.1,0.5,0.3,0.8,0.5,1.2
					c0.2,0.3,0.5,0.6,0.8,0.7c0.3,0.2,0.6,0.3,0.9,0.3c0.3,0,0.7-0.1,1-0.3c0.3-0.2,0.6-0.5,0.8-0.8l0.7,0.5
					c-0.1,0.2-0.3,0.4-0.5,0.6s-0.4,0.3-0.6,0.4s-0.4,0.2-0.7,0.3s-0.4,0.1-0.7,0.1c-0.5,0-1-0.1-1.3-0.3s-0.7-0.4-1.1-0.8
					c-0.3-0.4-0.6-0.8-0.7-1.4c-0.2-0.6-0.3-1.2-0.3-2c0-0.9,0.1-1.6,0.3-2.1c0.2-0.6,0.5-1,0.8-1.4s0.7-0.6,1.1-0.7
					s0.7-0.2,1.1-0.2c0.3,0,0.6,0,0.8,0.1s0.5,0.2,0.8,0.3c0.2,0.1,0.5,0.3,0.6,0.5c0.2,0.2,0.3,0.4,0.4,0.7l-0.9,0.5
					C332.1,354,332.1,354,332.1,353.9z"/>
				<path d="M334.3,352h1.1c0,0,0,0,0,0c0,0,0,0.1,0,0.1c0,0,0,0.1,0,0.2v3.4h3.4V352h1.1c0,0,0,0,0,0c0,0,0,0.1,0,0.1
					s0,0.1-0.1,0.1v8.4h-1v-4.2h-3.4v4.2h-1V352z"/>
			</g>
		</g>
	</g>
	<g transform="matrix(1,0,0,1,-47,-101)" text-rendering="geometricPrecision" shape-rendering="geometricPrecision">
		<g>
			<defs>
				<rect id="SVGID_27_" x="47" y="101" width="849" height="285"/>
			</defs>
			<clipPath id="SVGID_28_">
				<use xlink:href="#SVGID_27_"  style="overflow:visible;"/>
			</clipPath>
			<path class="st13" d="M66,341h101c2.2,0,4,1.8,4,4v22c0,2.2-1.8,4-4,4H66c-2.2,0-4-1.8-4-4v-22C62,342.8,63.8,341,66,341z"/>
		</g>
	</g>
	<g transform="matrix(1,0,0,1,-47,-101)" text-rendering="geometricPrecision" shape-rendering="geometricPrecision">
		<g>
			<defs>
				<rect id="SVGID_29_" x="47" y="101" width="849" height="285"/>
			</defs>
			<clipPath id="SVGID_30_">
				<use xlink:href="#SVGID_29_"  style="overflow:visible;"/>
			</clipPath>
			<path class="st14" d="M66,341h101c2.2,0,4,1.8,4,4v22c0,2.2-1.8,4-4,4H66c-2.2,0-4-1.8-4-4v-22C62,342.8,63.8,341,66,341z"/>
		</g>
		<g>
			<defs>
				<rect id="SVGID_31_" x="47" y="101" width="849" height="285"/>
			</defs>
			<clipPath id="SVGID_32_">
				<use xlink:href="#SVGID_31_"  style="overflow:visible;"/>
			</clipPath>
			<g class="st15">
				<path d="M87.1,353.9c0-0.1,0-0.2,0-0.2c-0.2-0.3-0.4-0.5-0.7-0.7c-0.3-0.2-0.6-0.3-1-0.3c-0.3,0-0.6,0.1-0.9,0.2
					c-0.3,0.2-0.5,0.4-0.7,0.7c-0.2,0.3-0.4,0.7-0.5,1.1c-0.1,0.4-0.2,1-0.2,1.5c0,0.6,0.1,1.1,0.2,1.5c0.1,0.5,0.3,0.8,0.5,1.2
					c0.2,0.3,0.5,0.6,0.8,0.7c0.3,0.2,0.6,0.3,0.9,0.3c0.3,0,0.7-0.1,1-0.3c0.3-0.2,0.6-0.5,0.8-0.8l0.7,0.5
					c-0.1,0.2-0.3,0.4-0.5,0.6s-0.4,0.3-0.6,0.4s-0.4,0.2-0.7,0.3s-0.4,0.1-0.7,0.1c-0.5,0-1-0.1-1.3-0.3s-0.7-0.4-1.1-0.8
					c-0.3-0.4-0.6-0.8-0.7-1.4c-0.2-0.6-0.3-1.2-0.3-2c0-0.9,0.1-1.6,0.3-2.1c0.2-0.6,0.5-1,0.8-1.4s0.7-0.6,1.1-0.7
					s0.7-0.2,1.1-0.2c0.3,0,0.6,0,0.8,0.1s0.5,0.2,0.8,0.3c0.2,0.1,0.5,0.3,0.6,0.5c0.2,0.2,0.3,0.4,0.4,0.7l-0.9,0.5
					C87.1,354,87.1,354,87.1,353.9z"/>
				<path d="M89.7,352h4.4v0.8h-1.7v7.1h1.8v0.8h-4.5v-0.8h1.7v-7.1h-1.6V352z"/>
				<path d="M96.2,360.7V352h1l3.7,6.5v-6.5h1c0,0.1,0,0.1,0,0.2c0,0.1,0,0.1,0,0.2v8.4H101l-3.8-6.9v6.9H96.2z"/>
				<path d="M103.3,352h2c0.7,0,1.3,0.1,1.7,0.3c0.4,0.2,0.8,0.5,1.1,0.9c0.3,0.4,0.5,0.8,0.6,1.4c0.1,0.5,0.2,1.2,0.2,1.8
					c0,0.7-0.1,1.3-0.3,1.8s-0.4,1-0.7,1.4s-0.7,0.7-1.1,0.9c-0.5,0.2-1,0.3-1.7,0.3h-1.9V352z M104.2,352.8v7.2h0.9
					c1,0,1.7-0.3,2.2-0.9c0.5-0.6,0.7-1.5,0.7-2.6c0-1.1-0.2-2-0.6-2.7c-0.4-0.6-1.1-1-2.1-1H104.2z"/>
				<path d="M110.3,351.9h5.3v0.9h-4.4v2.9h3.7v0.9h-3.7v3.2h4.4v0.9h-5.3V351.9z"/>
				<path d="M117.3,352h2.6c1,0,1.8,0.2,2.2,0.7c0.5,0.5,0.7,1.1,0.7,1.8c0,0.3,0,0.5-0.1,0.7c-0.1,0.2-0.2,0.5-0.4,0.7
					c-0.2,0.2-0.3,0.4-0.6,0.6c-0.2,0.2-0.5,0.3-0.7,0.3l2,3.9h-1.1l-1.9-3.8h-1.7v3.8h-1V352z M118.3,352.9v3.1h1.7
					c0.6,0,1.1-0.1,1.4-0.4s0.4-0.6,0.4-1.1c0-0.2,0-0.4-0.1-0.6c-0.1-0.2-0.2-0.4-0.3-0.5s-0.3-0.3-0.5-0.3s-0.5-0.1-0.8-0.1H118.3
					z"/>
				<path d="M124,360.9h6v0.9h-6V360.9z"/>
				<path d="M131.1,352h0.8l2.2,4.3l2.2-4.3h0.7v8.7H136v-6.6l-1.9,3.5h-0.4l-1.8-3.5v6.5h-0.9V352z"/>
				<path d="M137.7,360.7l3.1-8.9h0.1l3.4,8.9h-1l-1-2.5h-2.8l-0.8,2.5H137.7z M142.1,357.4l-1.2-3.3l-1.1,3.3H142.1z"/>
				<path d="M150.1,353.9c0-0.1,0-0.2,0-0.2c-0.2-0.3-0.4-0.5-0.7-0.7c-0.3-0.2-0.6-0.3-1-0.3c-0.3,0-0.6,0.1-0.9,0.2
					c-0.3,0.2-0.5,0.4-0.7,0.7c-0.2,0.3-0.4,0.7-0.5,1.1c-0.1,0.4-0.2,1-0.2,1.5c0,0.6,0.1,1.1,0.2,1.5c0.1,0.5,0.3,0.8,0.5,1.2
					c0.2,0.3,0.5,0.6,0.8,0.7c0.3,0.2,0.6,0.3,0.9,0.3c0.3,0,0.7-0.1,1-0.3c0.3-0.2,0.6-0.5,0.8-0.8l0.7,0.5
					c-0.1,0.2-0.3,0.4-0.5,0.6s-0.4,0.3-0.6,0.4s-0.4,0.2-0.7,0.3s-0.4,0.1-0.7,0.1c-0.5,0-1-0.1-1.3-0.3s-0.7-0.4-1.1-0.8
					c-0.3-0.4-0.6-0.8-0.7-1.4c-0.2-0.6-0.3-1.2-0.3-2c0-0.9,0.1-1.6,0.3-2.1c0.2-0.6,0.5-1,0.8-1.4s0.7-0.6,1.1-0.7
					s0.7-0.2,1.1-0.2c0.3,0,0.6,0,0.8,0.1s0.5,0.2,0.8,0.3c0.2,0.1,0.5,0.3,0.6,0.5c0.2,0.2,0.3,0.4,0.4,0.7l-0.9,0.5
					C150.1,354,150.1,354,150.1,353.9z"/>
			</g>
		</g>
	</g>
	<g transform="matrix(1,0,0,1,-47,-101)" text-rendering="geometricPrecision" shape-rendering="geometricPrecision">
		<g>
			<defs>
				<rect id="SVGID_33_" x="47" y="101" width="849" height="285"/>
			</defs>
			<clipPath id="SVGID_34_">
				<use xlink:href="#SVGID_33_"  style="overflow:visible;"/>
			</clipPath>
			<path class="st16" d="M275,266h101c2.2,0,4,1.8,4,4v22c0,2.2-1.8,4-4,4H275c-2.2,0-4-1.8-4-4v-22C271,267.8,272.8,266,275,266z"
				/>
		</g>
	</g>
	<g transform="matrix(1,0,0,1,-47,-101)" text-rendering="geometricPrecision" shape-rendering="geometricPrecision">
		<g>
			<defs>
				<rect id="SVGID_35_" x="47" y="101" width="849" height="285"/>
			</defs>
			<clipPath id="SVGID_36_">
				<use xlink:href="#SVGID_35_"  style="overflow:visible;"/>
			</clipPath>
			<path class="st17" d="M275,266h101c2.2,0,4,1.8,4,4v22c0,2.2-1.8,4-4,4H275c-2.2,0-4-1.8-4-4v-22C271,267.8,272.8,266,275,266z"
				/>
		</g>
		<g>
			<defs>
				<rect id="SVGID_37_" x="47" y="101" width="849" height="285"/>
			</defs>
			<clipPath id="SVGID_38_">
				<use xlink:href="#SVGID_37_"  style="overflow:visible;"/>
			</clipPath>
			<g class="st18">
				<path d="M289.1,278.9c0-0.1,0-0.2,0-0.2c-0.2-0.3-0.4-0.5-0.7-0.7c-0.3-0.2-0.6-0.3-1-0.3c-0.3,0-0.6,0.1-0.9,0.2
					c-0.3,0.2-0.5,0.4-0.7,0.7c-0.2,0.3-0.4,0.7-0.5,1.1c-0.1,0.4-0.2,1-0.2,1.5c0,0.6,0.1,1.1,0.2,1.5c0.1,0.5,0.3,0.8,0.5,1.2
					c0.2,0.3,0.5,0.6,0.8,0.7c0.3,0.2,0.6,0.3,0.9,0.3c0.3,0,0.7-0.1,1-0.3c0.3-0.2,0.6-0.5,0.8-0.8l0.7,0.5
					c-0.1,0.2-0.3,0.4-0.5,0.6s-0.4,0.3-0.6,0.4s-0.4,0.2-0.7,0.3s-0.4,0.1-0.7,0.1c-0.5,0-1-0.1-1.3-0.3s-0.7-0.4-1.1-0.8
					c-0.3-0.4-0.6-0.8-0.7-1.4c-0.2-0.6-0.3-1.2-0.3-2c0-0.9,0.1-1.6,0.3-2.1c0.2-0.6,0.5-1,0.8-1.4s0.7-0.6,1.1-0.7
					s0.7-0.2,1.1-0.2c0.3,0,0.6,0,0.8,0.1s0.5,0.2,0.8,0.3c0.2,0.1,0.5,0.3,0.6,0.5c0.2,0.2,0.3,0.4,0.4,0.7l-0.9,0.5
					C289.1,279,289.1,279,289.1,278.9z"/>
				<path d="M291.7,277h4.4v0.8h-1.7v7.1h1.8v0.8h-4.5v-0.8h1.7v-7.1h-1.6V277z"/>
				<path d="M298.2,285.7V277h1l3.7,6.5v-6.5h1c0,0.1,0,0.1,0,0.2c0,0.1,0,0.1,0,0.2v8.4H303l-3.8-6.9v6.9H298.2z"/>
				<path d="M305.3,277h2c0.7,0,1.3,0.1,1.7,0.3c0.4,0.2,0.8,0.5,1.1,0.9c0.3,0.4,0.5,0.8,0.6,1.4c0.1,0.5,0.2,1.2,0.2,1.8
					c0,0.7-0.1,1.3-0.3,1.8s-0.4,1-0.7,1.4s-0.7,0.7-1.1,0.9c-0.5,0.2-1,0.3-1.7,0.3h-1.9V277z M306.2,277.8v7.2h0.9
					c1,0,1.7-0.3,2.2-0.9c0.5-0.6,0.7-1.5,0.7-2.6c0-1.1-0.2-2-0.6-2.7c-0.4-0.6-1.1-1-2.1-1H306.2z"/>
				<path d="M312.3,276.9h5.3v0.9h-4.4v2.9h3.7v0.9h-3.7v3.2h4.4v0.9h-5.3V276.9z"/>
				<path d="M319.3,277h2.6c1,0,1.8,0.2,2.2,0.7c0.5,0.5,0.7,1.1,0.7,1.8c0,0.3,0,0.5-0.1,0.7c-0.1,0.2-0.2,0.5-0.4,0.7
					c-0.2,0.2-0.3,0.4-0.6,0.6c-0.2,0.2-0.5,0.3-0.7,0.3l2,3.9h-1.1l-1.9-3.8h-1.7v3.8h-1V277z M320.3,277.9v3.1h1.7
					c0.6,0,1.1-0.1,1.4-0.4s0.4-0.6,0.4-1.1c0-0.2,0-0.4-0.1-0.6c-0.1-0.2-0.2-0.4-0.3-0.5s-0.3-0.3-0.5-0.3s-0.5-0.1-0.8-0.1H320.3
					z"/>
				<path d="M326,285.9h6v0.9h-6V285.9z"/>
				<path d="M333.4,277h1.1c0,0.1,0,0.1-0.1,0.2s-0.1,0.2-0.1,0.3v7.4h4.2v0.9h-5.2V277z"/>
				<path d="M340.7,277h4.4v0.8h-1.7v7.1h1.8v0.8h-4.5v-0.8h1.7v-7.1h-1.6V277z"/>
				<path d="M347.2,285.7V277h1l3.7,6.5v-6.5h1c0,0.1,0,0.1,0,0.2c0,0.1,0,0.1,0,0.2v8.4H352l-3.8-6.9v6.9H347.2z"/>
				<path d="M354.2,277h1.1c0,0,0,0,0,0c0,0,0,0.1-0.1,0.2c0,0.1-0.1,0.2-0.1,0.3v5.3c0,0.5,0,0.9,0.1,1.1c0.1,0.3,0.2,0.5,0.4,0.7
					c0.2,0.2,0.4,0.3,0.6,0.4c0.2,0.1,0.5,0.1,0.7,0.2c0.3,0,0.5-0.1,0.7-0.1c0.2-0.1,0.4-0.2,0.6-0.4c0.2-0.2,0.3-0.4,0.4-0.7
					c0.1-0.3,0.1-0.7,0.1-1.2V277h0.9v5.7c0,0.6-0.1,1-0.2,1.4c-0.1,0.4-0.3,0.7-0.6,1s-0.6,0.5-0.9,0.6s-0.7,0.2-1.2,0.2
					c-0.4,0-0.8-0.1-1.1-0.2c-0.3-0.1-0.6-0.3-0.9-0.6c-0.2-0.3-0.4-0.6-0.6-0.9s-0.2-0.9-0.2-1.5V277z"/>
				<path d="M365.8,276.9h1l-2.2,4.3l2.5,4.5H366l-1.9-3.5l-1.9,3.5h-1.1l2.4-4.5l-2.3-4.3h1l1.8,3.3L365.8,276.9z"/>
			</g>
		</g>
	</g>
	<g transform="matrix(1,0,0,1,-47,-101)" text-rendering="geometricPrecision" shape-rendering="geometricPrecision">
		<g>
			<defs>
				<rect id="SVGID_39_" x="47" y="101" width="849" height="285"/>
			</defs>
			<clipPath id="SVGID_40_">
				<use xlink:href="#SVGID_39_"  style="overflow:visible;"/>
			</clipPath>
			<path class="st19" d="M414,266h114c2.2,0,4,1.8,4,4v22c0,2.2-1.8,4-4,4H414c-2.2,0-4-1.8-4-4v-22C410,267.8,411.8,266,414,266z"
				/>
		</g>
	</g>
	<g transform="matrix(1,0,0,1,-47,-101)" text-rendering="geometricPrecision" shape-rendering="geometricPrecision">
		<g>
			<defs>
				<rect id="SVGID_41_" x="47" y="101" width="849" height="285"/>
			</defs>
			<clipPath id="SVGID_42_">
				<use xlink:href="#SVGID_41_"  style="overflow:visible;"/>
			</clipPath>
			<path class="st20" d="M414,266h114c2.2,0,4,1.8,4,4v22c0,2.2-1.8,4-4,4H414c-2.2,0-4-1.8-4-4v-22C410,267.8,411.8,266,414,266z"
				/>
		</g>
		<g>
			<defs>
				<rect id="SVGID_43_" x="47" y="101" width="849" height="285"/>
			</defs>
			<clipPath id="SVGID_44_">
				<use xlink:href="#SVGID_43_"  style="overflow:visible;"/>
			</clipPath>
			<g class="st21">
				<path d="M427.6,278.9c0-0.1,0-0.2,0-0.2c-0.2-0.3-0.4-0.5-0.7-0.7c-0.3-0.2-0.6-0.3-1-0.3c-0.3,0-0.6,0.1-0.9,0.2
					c-0.3,0.2-0.5,0.4-0.7,0.7c-0.2,0.3-0.4,0.7-0.5,1.1c-0.1,0.4-0.2,1-0.2,1.5c0,0.6,0.1,1.1,0.2,1.5c0.1,0.5,0.3,0.8,0.5,1.2
					c0.2,0.3,0.5,0.6,0.8,0.7c0.3,0.2,0.6,0.3,0.9,0.3c0.3,0,0.7-0.1,1-0.3c0.3-0.2,0.6-0.5,0.8-0.8l0.7,0.5
					c-0.1,0.2-0.3,0.4-0.5,0.6s-0.4,0.3-0.6,0.4s-0.4,0.2-0.7,0.3s-0.4,0.1-0.7,0.1c-0.5,0-1-0.1-1.3-0.3s-0.7-0.4-1.1-0.8
					c-0.3-0.4-0.6-0.8-0.7-1.4c-0.2-0.6-0.3-1.2-0.3-2c0-0.9,0.1-1.6,0.3-2.1c0.2-0.6,0.5-1,0.8-1.4s0.7-0.6,1.1-0.7
					s0.7-0.2,1.1-0.2c0.3,0,0.6,0,0.8,0.1s0.5,0.2,0.8,0.3c0.2,0.1,0.5,0.3,0.6,0.5c0.2,0.2,0.3,0.4,0.4,0.7l-0.9,0.5
					C427.6,279,427.6,279,427.6,278.9z"/>
				<path d="M430.2,277h4.4v0.8h-1.7v7.1h1.8v0.8h-4.5v-0.8h1.7v-7.1h-1.6V277z"/>
				<path d="M436.7,285.7V277h1l3.7,6.5v-6.5h1c0,0.1,0,0.1,0,0.2c0,0.1,0,0.1,0,0.2v8.4h-0.8l-3.8-6.9v6.9H436.7z"/>
				<path d="M443.8,277h2c0.7,0,1.3,0.1,1.7,0.3c0.4,0.2,0.8,0.5,1.1,0.9c0.3,0.4,0.5,0.8,0.6,1.4c0.1,0.5,0.2,1.2,0.2,1.8
					c0,0.7-0.1,1.3-0.3,1.8s-0.4,1-0.7,1.4s-0.7,0.7-1.1,0.9c-0.5,0.2-1,0.3-1.7,0.3h-1.9V277z M444.7,277.8v7.2h0.9
					c1,0,1.7-0.3,2.2-0.9c0.5-0.6,0.7-1.5,0.7-2.6c0-1.1-0.2-2-0.6-2.7c-0.4-0.6-1.1-1-2.1-1H444.7z"/>
				<path d="M450.8,276.9h5.3v0.9h-4.4v2.9h3.7v0.9h-3.7v3.2h4.4v0.9h-5.3V276.9z"/>
				<path d="M457.8,277h2.6c1,0,1.8,0.2,2.2,0.7c0.5,0.5,0.7,1.1,0.7,1.8c0,0.3,0,0.5-0.1,0.7c-0.1,0.2-0.2,0.5-0.4,0.7
					c-0.2,0.2-0.3,0.4-0.6,0.6c-0.2,0.2-0.5,0.3-0.7,0.3l2,3.9h-1.1l-1.9-3.8h-1.7v3.8h-1V277z M458.8,277.9v3.1h1.7
					c0.6,0,1.1-0.1,1.4-0.4s0.4-0.6,0.4-1.1c0-0.2,0-0.4-0.1-0.6c-0.1-0.2-0.2-0.4-0.3-0.5s-0.3-0.3-0.5-0.3s-0.5-0.1-0.8-0.1H458.8
					z"/>
				<path d="M464.5,285.9h6v0.9h-6V285.9z"/>
				<path d="M471.2,285.7l3.1-8.9h0.1l3.4,8.9h-1l-1-2.5H473l-0.8,2.5H471.2z M475.6,282.4l-1.2-3.3l-1.1,3.3H475.6z"/>
				<path d="M478.7,285.7V277h1l3.7,6.5v-6.5h1c0,0.1,0,0.1,0,0.2c0,0.1,0,0.1,0,0.2v8.4h-0.8l-3.8-6.9v6.9H478.7z"/>
				<path d="M485.8,277h2c0.7,0,1.3,0.1,1.7,0.3c0.4,0.2,0.8,0.5,1.1,0.9s0.5,0.8,0.6,1.4c0.1,0.5,0.2,1.2,0.2,1.8
					c0,0.7-0.1,1.3-0.3,1.8s-0.4,1-0.7,1.4s-0.7,0.7-1.1,0.9c-0.5,0.2-1,0.3-1.7,0.3h-1.9V277z M486.7,277.8v7.2h0.9
					c1,0,1.7-0.3,2.2-0.9c0.5-0.6,0.7-1.5,0.7-2.6c0-1.1-0.2-2-0.6-2.7c-0.4-0.6-1.1-1-2.1-1H486.7z"/>
				<path d="M492.8,277h2.6c1,0,1.8,0.2,2.2,0.7c0.5,0.5,0.7,1.1,0.7,1.8c0,0.3,0,0.5-0.1,0.7c-0.1,0.2-0.2,0.5-0.4,0.7
					s-0.3,0.4-0.6,0.6c-0.2,0.2-0.5,0.3-0.7,0.3l2,3.9h-1.1l-1.9-3.8h-1.7v3.8h-1V277z M493.8,277.9v3.1h1.7c0.6,0,1.1-0.1,1.4-0.4
					c0.3-0.3,0.4-0.6,0.4-1.1c0-0.2,0-0.4-0.1-0.6s-0.2-0.4-0.3-0.5s-0.3-0.3-0.5-0.3s-0.5-0.1-0.8-0.1H493.8z"/>
				<path d="M502.6,285.8c-0.5,0-0.9-0.1-1.3-0.3c-0.4-0.2-0.7-0.5-1-0.9c-0.3-0.4-0.5-0.9-0.6-1.4c-0.1-0.6-0.2-1.2-0.2-1.8
					s0.1-1.3,0.2-1.8s0.4-1,0.7-1.4s0.6-0.7,1-0.9s0.8-0.3,1.3-0.3c0.4,0,0.8,0.1,1.1,0.3c0.4,0.2,0.7,0.4,1,0.8s0.5,0.8,0.7,1.4
					c0.1,0.6,0.2,1.2,0.2,2c0,0.8-0.1,1.5-0.3,2.1s-0.4,1-0.7,1.4c-0.3,0.4-0.6,0.6-1,0.8S502.9,285.8,502.6,285.8z M501.1,284.1
					c0.4,0.5,0.9,0.8,1.4,0.8c0.3,0,0.5-0.1,0.7-0.2c0.2-0.1,0.5-0.3,0.7-0.6s0.4-0.6,0.5-1.1c0.1-0.5,0.2-1,0.2-1.8
					c0-0.7-0.1-1.3-0.2-1.7c-0.1-0.4-0.3-0.8-0.5-1.1c-0.2-0.3-0.4-0.5-0.6-0.6c-0.2-0.1-0.5-0.2-0.7-0.2c-0.3,0-0.6,0-0.8,0.2
					c-0.2,0.1-0.5,0.3-0.7,0.5c-0.2,0.3-0.4,0.6-0.5,1c-0.1,0.4-0.2,1-0.2,1.7c0,0.6,0.1,1.2,0.2,1.7
					C500.7,283.4,500.9,283.8,501.1,284.1z"/>
				<path d="M507.2,277h4.4v0.8h-1.7v7.1h1.8v0.8h-4.5v-0.8h1.7v-7.1h-1.6V277z"/>
				<path d="M513.8,277h2c0.7,0,1.3,0.1,1.7,0.3c0.4,0.2,0.8,0.5,1.1,0.9s0.5,0.8,0.6,1.4c0.1,0.5,0.2,1.2,0.2,1.8
					c0,0.7-0.1,1.3-0.3,1.8s-0.4,1-0.7,1.4s-0.7,0.7-1.1,0.9c-0.5,0.2-1,0.3-1.7,0.3h-1.9V277z M514.7,277.8v7.2h0.9
					c1,0,1.7-0.3,2.2-0.9c0.5-0.6,0.7-1.5,0.7-2.6c0-1.1-0.2-2-0.6-2.7c-0.4-0.6-1.1-1-2.1-1H514.7z"/>
			</g>
		</g>
	</g>
	<g transform="matrix(1,0,0,1,-47,-101)" text-rendering="geometricPrecision" shape-rendering="geometricPrecision">
		<g>
			<defs>
				<rect id="SVGID_45_" x="47" y="101" width="849" height="285"/>
			</defs>
			<clipPath id="SVGID_46_">
				<use xlink:href="#SVGID_45_"  style="overflow:visible;"/>
			</clipPath>
			<path class="st22" d="M594,266h93c2.2,0,4,1.8,4,4v22c0,2.2-1.8,4-4,4h-93c-2.2,0-4-1.8-4-4v-22C590,267.8,591.8,266,594,266z"/>
		</g>
	</g>
	<g transform="matrix(1,0,0,1,-47,-101)" text-rendering="geometricPrecision" shape-rendering="geometricPrecision">
		<g>
			<defs>
				<rect id="SVGID_47_" x="47" y="101" width="849" height="285"/>
			</defs>
			<clipPath id="SVGID_48_">
				<use xlink:href="#SVGID_47_"  style="overflow:visible;"/>
			</clipPath>
			<path class="st23" d="M594,266h93c2.2,0,4,1.8,4,4v22c0,2.2-1.8,4-4,4h-93c-2.2,0-4-1.8-4-4v-22C590,267.8,591.8,266,594,266z"/>
		</g>
		<g>
			<defs>
				<rect id="SVGID_49_" x="47" y="101" width="849" height="285"/>
			</defs>
			<clipPath id="SVGID_50_">
				<use xlink:href="#SVGID_49_"  style="overflow:visible;"/>
			</clipPath>
			<g class="st24">
				<path d="M611.1,278.9c0-0.1,0-0.2,0-0.2c-0.2-0.3-0.4-0.5-0.7-0.7c-0.3-0.2-0.6-0.3-1-0.3c-0.3,0-0.6,0.1-0.9,0.2
					c-0.3,0.2-0.5,0.4-0.7,0.7c-0.2,0.3-0.4,0.7-0.5,1.1c-0.1,0.4-0.2,1-0.2,1.5c0,0.6,0.1,1.1,0.2,1.5c0.1,0.5,0.3,0.8,0.5,1.2
					c0.2,0.3,0.5,0.6,0.8,0.7c0.3,0.2,0.6,0.3,0.9,0.3c0.3,0,0.7-0.1,1-0.3c0.3-0.2,0.6-0.5,0.8-0.8l0.7,0.5
					c-0.1,0.2-0.3,0.4-0.5,0.6c-0.2,0.2-0.4,0.3-0.6,0.4c-0.2,0.1-0.4,0.2-0.7,0.3c-0.2,0.1-0.4,0.1-0.7,0.1c-0.5,0-1-0.1-1.3-0.3
					c-0.4-0.2-0.7-0.4-1.1-0.8c-0.3-0.4-0.6-0.8-0.7-1.4c-0.2-0.6-0.3-1.2-0.3-2c0-0.9,0.1-1.6,0.3-2.1c0.2-0.6,0.5-1,0.8-1.4
					s0.7-0.6,1.1-0.7c0.4-0.1,0.7-0.2,1.1-0.2c0.3,0,0.6,0,0.8,0.1s0.5,0.2,0.8,0.3c0.2,0.1,0.5,0.3,0.6,0.5s0.3,0.4,0.4,0.7
					l-0.9,0.5C611.1,279,611.1,279,611.1,278.9z"/>
				<path d="M613.7,277h4.4v0.8h-1.7v7.1h1.8v0.8h-4.5v-0.8h1.7v-7.1h-1.6V277z"/>
				<path d="M620.2,285.7V277h1l3.7,6.5v-6.5h1c0,0.1,0,0.1,0,0.2c0,0.1,0,0.1,0,0.2v8.4H625l-3.8-6.9v6.9H620.2z"/>
				<path d="M627.3,277h2c0.7,0,1.3,0.1,1.7,0.3c0.4,0.2,0.8,0.5,1.1,0.9s0.5,0.8,0.6,1.4c0.1,0.5,0.2,1.2,0.2,1.8
					c0,0.7-0.1,1.3-0.3,1.8s-0.4,1-0.7,1.4s-0.7,0.7-1.1,0.9c-0.5,0.2-1,0.3-1.7,0.3h-1.9V277z M628.2,277.8v7.2h0.9
					c1,0,1.7-0.3,2.2-0.9c0.5-0.6,0.7-1.5,0.7-2.6c0-1.1-0.2-2-0.6-2.7c-0.4-0.6-1.1-1-2.1-1H628.2z"/>
				<path d="M634.3,276.9h5.3v0.9h-4.4v2.9h3.7v0.9h-3.7v3.2h4.4v0.9h-5.3V276.9z"/>
				<path d="M641.3,277h2.6c1,0,1.8,0.2,2.2,0.7c0.5,0.5,0.7,1.1,0.7,1.8c0,0.3,0,0.5-0.1,0.7c-0.1,0.2-0.2,0.5-0.4,0.7
					s-0.3,0.4-0.6,0.6c-0.2,0.2-0.5,0.3-0.7,0.3l2,3.9h-1.1l-1.9-3.8h-1.7v3.8h-1V277z M642.3,277.9v3.1h1.7c0.6,0,1.1-0.1,1.4-0.4
					c0.3-0.3,0.4-0.6,0.4-1.1c0-0.2,0-0.4-0.1-0.6s-0.2-0.4-0.3-0.5s-0.3-0.3-0.5-0.3s-0.5-0.1-0.8-0.1H642.3z"/>
				<path d="M648,285.9h6v0.9h-6V285.9z"/>
				<path d="M655.2,277h1.1c0,0,0,0,0,0c0,0,0,0.1-0.1,0.2c0,0.1-0.1,0.2-0.1,0.3v5.3c0,0.5,0,0.9,0.1,1.1c0.1,0.3,0.2,0.5,0.4,0.7
					c0.2,0.2,0.4,0.3,0.6,0.4c0.2,0.1,0.5,0.1,0.7,0.2c0.3,0,0.5-0.1,0.7-0.1c0.2-0.1,0.4-0.2,0.6-0.4c0.2-0.2,0.3-0.4,0.4-0.7
					c0.1-0.3,0.1-0.7,0.1-1.2V277h0.9v5.7c0,0.6-0.1,1-0.2,1.4c-0.1,0.4-0.3,0.7-0.6,1s-0.6,0.5-0.9,0.6s-0.7,0.2-1.2,0.2
					c-0.4,0-0.8-0.1-1.1-0.2c-0.3-0.1-0.6-0.3-0.9-0.6c-0.2-0.3-0.4-0.6-0.6-0.9c-0.1-0.4-0.2-0.9-0.2-1.5V277z"/>
				<path d="M661.7,277h0.9l0.9,5.9l1.4-5.2h0.3l1.4,5.3l0.8-5.9h0.8l-1.4,8.8h-0.4l-1.5-5.8l-1.5,5.8h-0.4L661.7,277z"/>
				<path d="M669.3,277h2.8c0.5,0,0.9,0.1,1.2,0.2c0.3,0.1,0.6,0.3,0.8,0.5c0.2,0.2,0.4,0.5,0.5,0.8s0.2,0.6,0.2,1
					c0,0.3-0.1,0.7-0.2,0.9c-0.1,0.3-0.3,0.5-0.5,0.8c-0.2,0.2-0.5,0.4-0.8,0.5s-0.7,0.2-1.2,0.2h-1.9v3.8h-1V277z M670.3,277.9v3.1
					h1.8c0.6,0,1.1-0.1,1.4-0.4c0.3-0.3,0.4-0.6,0.4-1.1c0-0.2-0.1-0.4-0.1-0.6c-0.1-0.2-0.2-0.4-0.3-0.5c-0.1-0.1-0.3-0.3-0.5-0.3
					c-0.2-0.1-0.5-0.1-0.8-0.1H670.3z"/>
			</g>
		</g>
	</g>
	<g transform="matrix(1,0,0,1,-47,-101)" text-rendering="geometricPrecision" shape-rendering="geometricPrecision">
		<g>
			<defs>
				<rect id="SVGID_51_" x="47" y="101" width="849" height="285"/>
			</defs>
			<clipPath id="SVGID_52_">
				<use xlink:href="#SVGID_51_"  style="overflow:visible;"/>
			</clipPath>
			<path class="st25" d="M737,266h140c2.2,0,4,1.8,4,4v22c0,2.2-1.8,4-4,4H737c-2.2,0-4-1.8-4-4v-22C733,267.8,734.8,266,737,266z"
				/>
		</g>
	</g>
	<g transform="matrix(1,0,0,1,-47,-101)" text-rendering="geometricPrecision" shape-rendering="geometricPrecision">
		<g>
			<defs>
				<rect id="SVGID_53_" x="47" y="101" width="849" height="285"/>
			</defs>
			<clipPath id="SVGID_54_">
				<use xlink:href="#SVGID_53_"  style="overflow:visible;"/>
			</clipPath>
			<path class="st26" d="M737,266h140c2.2,0,4,1.8,4,4v22c0,2.2-1.8,4-4,4H737c-2.2,0-4-1.8-4-4v-22C733,267.8,734.8,266,737,266z"
				/>
		</g>
		<g>
			<defs>
				<rect id="SVGID_55_" x="47" y="101" width="849" height="285"/>
			</defs>
			<clipPath id="SVGID_56_">
				<use xlink:href="#SVGID_55_"  style="overflow:visible;"/>
			</clipPath>
			<g class="st27">
				<path d="M749.6,278.9c0-0.1,0-0.2,0-0.2c-0.2-0.3-0.4-0.5-0.7-0.7c-0.3-0.2-0.6-0.3-1-0.3c-0.3,0-0.6,0.1-0.9,0.2
					c-0.3,0.2-0.5,0.4-0.7,0.7c-0.2,0.3-0.4,0.7-0.5,1.1c-0.1,0.4-0.2,1-0.2,1.5c0,0.6,0.1,1.1,0.2,1.5c0.1,0.5,0.3,0.8,0.5,1.2
					c0.2,0.3,0.5,0.6,0.8,0.7c0.3,0.2,0.6,0.3,0.9,0.3c0.3,0,0.7-0.1,1-0.3c0.3-0.2,0.6-0.5,0.8-0.8l0.7,0.5
					c-0.1,0.2-0.3,0.4-0.5,0.6c-0.2,0.2-0.4,0.3-0.6,0.4c-0.2,0.1-0.4,0.2-0.7,0.3c-0.2,0.1-0.4,0.1-0.7,0.1c-0.5,0-1-0.1-1.3-0.3
					c-0.4-0.2-0.7-0.4-1.1-0.8c-0.3-0.4-0.6-0.8-0.7-1.4c-0.2-0.6-0.3-1.2-0.3-2c0-0.9,0.1-1.6,0.3-2.1c0.2-0.6,0.5-1,0.8-1.4
					s0.7-0.6,1.1-0.7c0.4-0.1,0.7-0.2,1.1-0.2c0.3,0,0.6,0,0.8,0.1s0.5,0.2,0.8,0.3c0.2,0.1,0.5,0.3,0.6,0.5s0.3,0.4,0.4,0.7
					l-0.9,0.5C749.6,279,749.6,279,749.6,278.9z"/>
				<path d="M752.2,277h4.4v0.8h-1.7v7.1h1.8v0.8h-4.5v-0.8h1.7v-7.1h-1.6V277z"/>
				<path d="M758.7,285.7V277h1l3.7,6.5v-6.5h1c0,0.1,0,0.1,0,0.2c0,0.1,0,0.1,0,0.2v8.4h-0.8l-3.8-6.9v6.9H758.7z"/>
				<path d="M765.8,277h2c0.7,0,1.3,0.1,1.7,0.3c0.4,0.2,0.8,0.5,1.1,0.9s0.5,0.8,0.6,1.4c0.1,0.5,0.2,1.2,0.2,1.8
					c0,0.7-0.1,1.3-0.3,1.8s-0.4,1-0.7,1.4s-0.7,0.7-1.1,0.9c-0.5,0.2-1,0.3-1.7,0.3h-1.9V277z M766.7,277.8v7.2h0.9
					c1,0,1.7-0.3,2.2-0.9c0.5-0.6,0.7-1.5,0.7-2.6c0-1.1-0.2-2-0.6-2.7c-0.4-0.6-1.1-1-2.1-1H766.7z"/>
				<path d="M772.8,276.9h5.3v0.9h-4.4v2.9h3.7v0.9h-3.7v3.2h4.4v0.9h-5.3V276.9z"/>
				<path d="M779.8,277h2.6c1,0,1.8,0.2,2.2,0.7c0.5,0.5,0.7,1.1,0.7,1.8c0,0.3,0,0.5-0.1,0.7c-0.1,0.2-0.2,0.5-0.4,0.7
					s-0.3,0.4-0.6,0.6c-0.2,0.2-0.5,0.3-0.7,0.3l2,3.9h-1.1l-1.9-3.8h-1.7v3.8h-1V277z M780.8,277.9v3.1h1.7c0.6,0,1.1-0.1,1.4-0.4
					c0.3-0.3,0.4-0.6,0.4-1.1c0-0.2,0-0.4-0.1-0.6s-0.2-0.4-0.3-0.5s-0.3-0.3-0.5-0.3s-0.5-0.1-0.8-0.1H780.8z"/>
				<path d="M786.5,285.9h6v0.9h-6V285.9z"/>
				<path d="M793.6,277h0.8l2.2,4.3l2.2-4.3h0.7v8.7h-0.9v-6.6l-1.9,3.5h-0.4l-1.8-3.5v6.5h-0.9V277z"/>
				<path d="M806.1,278l-0.6,0.8c0,0-0.1-0.1-0.1-0.1c0-0.1,0-0.1,0-0.1c-0.2-0.3-0.4-0.5-0.7-0.6c-0.3-0.2-0.7-0.2-1.1-0.2
					c-0.4,0-0.8,0.1-1.1,0.4c-0.3,0.3-0.4,0.6-0.4,0.9c0,0.2,0,0.4,0.1,0.5s0.2,0.3,0.3,0.4c0.1,0.1,0.4,0.3,0.6,0.4
					c0.3,0.1,0.6,0.3,1.1,0.5c0.4,0.2,0.8,0.4,1.1,0.5c0.3,0.2,0.5,0.4,0.7,0.6c0.2,0.2,0.3,0.4,0.4,0.6c0.1,0.2,0.1,0.5,0.1,0.7
					c0,0.3-0.1,0.6-0.2,0.9c-0.1,0.3-0.3,0.6-0.5,0.8c-0.2,0.2-0.5,0.4-0.9,0.6c-0.4,0.1-0.8,0.2-1.3,0.2c-1.1,0-2-0.4-2.7-1.1
					l0.6-1c0,0,0.1,0.1,0.1,0.1s0,0.1,0,0.2c0.2,0.3,0.5,0.5,0.9,0.7c0.4,0.2,0.8,0.3,1.3,0.3c0.3,0,0.5,0,0.7-0.1
					c0.2-0.1,0.4-0.2,0.6-0.3c0.2-0.1,0.3-0.3,0.4-0.5c0.1-0.2,0.1-0.4,0.1-0.6c0-0.2,0-0.3-0.1-0.5c-0.1-0.1-0.2-0.3-0.3-0.4
					c-0.1-0.1-0.3-0.3-0.6-0.4s-0.6-0.3-1-0.4c-0.5-0.2-0.8-0.4-1.1-0.5c-0.3-0.2-0.5-0.4-0.7-0.6c-0.2-0.2-0.3-0.4-0.4-0.6
					c-0.1-0.2-0.1-0.4-0.1-0.7c0-0.3,0.1-0.6,0.2-0.9s0.3-0.5,0.6-0.7c0.2-0.2,0.5-0.4,0.8-0.5c0.3-0.1,0.7-0.2,1-0.2
					c0.5,0,0.9,0.1,1.3,0.3S805.8,277.7,806.1,278z"/>
				<path d="M807.2,277h0.9l0.9,5.9l1.4-5.2h0.3l1.4,5.3l0.8-5.9h0.8l-1.4,8.8h-0.4l-1.5-5.8l-1.5,5.8h-0.4L807.2,277z"/>
				<path d="M814.5,285.9h6v0.9h-6V285.9z"/>
				<path d="M821.8,277h2c0.7,0,1.3,0.1,1.7,0.3c0.4,0.2,0.8,0.5,1.1,0.9s0.5,0.8,0.6,1.4c0.1,0.5,0.2,1.2,0.2,1.8
					c0,0.7-0.1,1.3-0.3,1.8s-0.4,1-0.7,1.4s-0.7,0.7-1.1,0.9c-0.5,0.2-1,0.3-1.7,0.3h-1.9V277z M822.7,277.8v7.2h0.9
					c1,0,1.7-0.3,2.2-0.9c0.5-0.6,0.7-1.5,0.7-2.6c0-1.1-0.2-2-0.6-2.7c-0.4-0.6-1.1-1-2.1-1H822.7z"/>
				<path d="M828.8,276.9h5.3v0.9h-4.4v2.9h3.7v0.9h-3.7v3.2h4.4v0.9h-5.3V276.9z"/>
				<path d="M841.1,278l-0.6,0.8c0,0-0.1-0.1-0.1-0.1c0-0.1,0-0.1,0-0.1c-0.2-0.3-0.4-0.5-0.7-0.6c-0.3-0.2-0.7-0.2-1.1-0.2
					c-0.4,0-0.8,0.1-1.1,0.4c-0.3,0.3-0.4,0.6-0.4,0.9c0,0.2,0,0.4,0.1,0.5s0.2,0.3,0.3,0.4c0.1,0.1,0.4,0.3,0.6,0.4
					c0.3,0.1,0.6,0.3,1.1,0.5c0.4,0.2,0.8,0.4,1.1,0.5c0.3,0.2,0.5,0.4,0.7,0.6c0.2,0.2,0.3,0.4,0.4,0.6c0.1,0.2,0.1,0.5,0.1,0.7
					c0,0.3-0.1,0.6-0.2,0.9c-0.1,0.3-0.3,0.6-0.5,0.8c-0.2,0.2-0.5,0.4-0.9,0.6c-0.4,0.1-0.8,0.2-1.3,0.2c-1.1,0-2-0.4-2.7-1.1
					l0.6-1c0,0,0.1,0.1,0.1,0.1s0,0.1,0,0.2c0.2,0.3,0.5,0.5,0.9,0.7c0.4,0.2,0.8,0.3,1.3,0.3c0.3,0,0.5,0,0.7-0.1
					c0.2-0.1,0.4-0.2,0.6-0.3c0.2-0.1,0.3-0.3,0.4-0.5c0.1-0.2,0.1-0.4,0.1-0.6c0-0.2,0-0.3-0.1-0.5c-0.1-0.1-0.2-0.3-0.3-0.4
					c-0.1-0.1-0.3-0.3-0.6-0.4s-0.6-0.3-1-0.4c-0.5-0.2-0.8-0.4-1.1-0.5c-0.3-0.2-0.5-0.4-0.7-0.6c-0.2-0.2-0.3-0.4-0.4-0.6
					c-0.1-0.2-0.1-0.4-0.1-0.7c0-0.3,0.1-0.6,0.2-0.9s0.3-0.5,0.6-0.7c0.2-0.2,0.5-0.4,0.8-0.5c0.3-0.1,0.7-0.2,1-0.2
					c0.5,0,0.9,0.1,1.3,0.3S840.8,277.7,841.1,278z"/>
				<path d="M842.6,276.9h1.2c0,0.1,0,0.1-0.1,0.2c0,0.1-0.1,0.1-0.1,0.2v3.7l3.6-4.1c0.2,0,0.4,0.1,0.7,0.1h0.4l-3.3,3.8l3.5,5
					l-1.3,0.1l-3-4.4l-0.7,0.8v3.6h-1.1V276.9z"/>
				<path d="M849.4,276.9h6.1v0.9h-2.6v7.9h-1v-7.9h-2.5V276.9z"/>
				<path d="M859.6,285.8c-0.5,0-0.9-0.1-1.3-0.3c-0.4-0.2-0.7-0.5-1-0.9c-0.3-0.4-0.5-0.9-0.6-1.4c-0.1-0.6-0.2-1.2-0.2-1.8
					s0.1-1.3,0.2-1.8s0.4-1,0.7-1.4s0.6-0.7,1-0.9s0.8-0.3,1.3-0.3c0.4,0,0.8,0.1,1.1,0.3c0.4,0.2,0.7,0.4,1,0.8s0.5,0.8,0.7,1.4
					c0.1,0.6,0.2,1.2,0.2,2c0,0.8-0.1,1.5-0.3,2.1s-0.4,1-0.7,1.4c-0.3,0.4-0.6,0.6-1,0.8S859.9,285.8,859.6,285.8z M858.1,284.1
					c0.4,0.5,0.9,0.8,1.4,0.8c0.3,0,0.5-0.1,0.7-0.2c0.2-0.1,0.5-0.3,0.7-0.6s0.4-0.6,0.5-1.1c0.1-0.5,0.2-1,0.2-1.8
					c0-0.7-0.1-1.3-0.2-1.7c-0.1-0.4-0.3-0.8-0.5-1.1c-0.2-0.3-0.4-0.5-0.6-0.6c-0.2-0.1-0.5-0.2-0.7-0.2c-0.3,0-0.6,0-0.8,0.2
					c-0.2,0.1-0.5,0.3-0.7,0.5c-0.2,0.3-0.4,0.6-0.5,1c-0.1,0.4-0.2,1-0.2,1.7c0,0.6,0.1,1.2,0.2,1.7
					C857.7,283.4,857.9,283.8,858.1,284.1z"/>
				<path d="M863.8,277h2.8c0.5,0,0.9,0.1,1.2,0.2c0.3,0.1,0.6,0.3,0.8,0.5c0.2,0.2,0.4,0.5,0.5,0.8s0.2,0.6,0.2,1
					c0,0.3-0.1,0.7-0.2,0.9c-0.1,0.3-0.3,0.5-0.5,0.8c-0.2,0.2-0.5,0.4-0.8,0.5s-0.7,0.2-1.2,0.2h-1.9v3.8h-1V277z M864.8,277.9v3.1
					h1.8c0.6,0,1.1-0.1,1.4-0.4c0.3-0.3,0.4-0.6,0.4-1.1c0-0.2-0.1-0.4-0.1-0.6c-0.1-0.2-0.2-0.4-0.3-0.5c-0.1-0.1-0.3-0.3-0.5-0.3
					c-0.2-0.1-0.5-0.1-0.8-0.1H864.8z"/>
			</g>
		</g>
	</g>
	<g transform="matrix(1,0,0,1,-47,-101)" text-rendering="geometricPrecision" shape-rendering="geometricPrecision">
		<g>
			<defs>
				<rect id="SVGID_57_" x="47" y="101" width="849" height="285"/>
			</defs>
			<clipPath id="SVGID_58_">
				<use xlink:href="#SVGID_57_"  style="overflow:visible;"/>
			</clipPath>
			<path class="st28" d="M464,116h101c2.2,0,4,1.8,4,4v22c0,2.2-1.8,4-4,4H464c-2.2,0-4-1.8-4-4v-22C460,117.8,461.8,116,464,116z"
				/>
		</g>
	</g>
	<g transform="matrix(1,0,0,1,-47,-101)" text-rendering="geometricPrecision" shape-rendering="geometricPrecision">
		<g>
			<defs>
				<rect id="SVGID_59_" x="47" y="101" width="849" height="285"/>
			</defs>
			<clipPath id="SVGID_60_">
				<use xlink:href="#SVGID_59_"  style="overflow:visible;"/>
			</clipPath>
			<path class="st29" d="M464,116h101c2.2,0,4,1.8,4,4v22c0,2.2-1.8,4-4,4H464c-2.2,0-4-1.8-4-4v-22C460,117.8,461.8,116,464,116z"
				/>
		</g>
		<g>
			<defs>
				<rect id="SVGID_61_" x="47" y="101" width="849" height="285"/>
			</defs>
			<clipPath id="SVGID_62_">
				<use xlink:href="#SVGID_61_"  style="overflow:visible;"/>
			</clipPath>
			<g class="st30">
				<path d="M474.6,128.9c0-0.1,0-0.2,0-0.2c-0.2-0.3-0.4-0.5-0.7-0.7c-0.3-0.2-0.6-0.3-1-0.3c-0.3,0-0.6,0.1-0.9,0.2
					c-0.3,0.2-0.5,0.4-0.7,0.7c-0.2,0.3-0.4,0.7-0.5,1.1c-0.1,0.4-0.2,1-0.2,1.5c0,0.6,0.1,1.1,0.2,1.5c0.1,0.5,0.3,0.8,0.5,1.2
					c0.2,0.3,0.5,0.6,0.8,0.7c0.3,0.2,0.6,0.3,0.9,0.3c0.3,0,0.7-0.1,1-0.3c0.3-0.2,0.6-0.5,0.8-0.8l0.7,0.5
					c-0.1,0.2-0.3,0.4-0.5,0.6c-0.2,0.2-0.4,0.3-0.6,0.4c-0.2,0.1-0.4,0.2-0.7,0.3c-0.2,0.1-0.4,0.1-0.7,0.1c-0.5,0-1-0.1-1.3-0.3
					s-0.7-0.4-1.1-0.8c-0.3-0.4-0.6-0.8-0.7-1.4c-0.2-0.6-0.3-1.2-0.3-2c0-0.9,0.1-1.6,0.3-2.1c0.2-0.6,0.5-1,0.8-1.4
					s0.7-0.6,1.1-0.7c0.4-0.1,0.7-0.2,1.1-0.2c0.3,0,0.6,0,0.8,0.1s0.5,0.2,0.8,0.3c0.2,0.1,0.5,0.3,0.6,0.5s0.3,0.4,0.4,0.7
					l-0.9,0.5C474.6,129,474.6,129,474.6,128.9z"/>
				<path d="M477.2,127h4.4v0.8h-1.7v7.1h1.8v0.8h-4.5v-0.8h1.7v-7.1h-1.6V127z"/>
				<path d="M483.7,135.7V127h1l3.7,6.5v-6.5h1c0,0.1,0,0.1,0,0.2c0,0.1,0,0.1,0,0.2v8.4h-0.8l-3.8-6.9v6.9H483.7z"/>
				<path d="M490.8,127h2c0.7,0,1.3,0.1,1.7,0.3c0.4,0.2,0.8,0.5,1.1,0.9s0.5,0.8,0.6,1.4c0.1,0.5,0.2,1.2,0.2,1.8
					c0,0.7-0.1,1.3-0.3,1.8s-0.4,1-0.7,1.4s-0.7,0.7-1.1,0.9c-0.5,0.2-1,0.3-1.7,0.3h-1.9V127z M491.7,127.8v7.2h0.9
					c1,0,1.7-0.3,2.2-0.9c0.5-0.6,0.7-1.5,0.7-2.6c0-1.1-0.2-2-0.6-2.7c-0.4-0.6-1.1-1-2.1-1H491.7z"/>
				<path d="M497.8,126.9h5.3v0.9h-4.4v2.9h3.7v0.9h-3.7v3.2h4.4v0.9h-5.3V126.9z"/>
				<path d="M504.8,127h2.6c1,0,1.8,0.2,2.2,0.7c0.5,0.5,0.7,1.1,0.7,1.8c0,0.3,0,0.5-0.1,0.7c-0.1,0.2-0.2,0.5-0.4,0.7
					s-0.3,0.4-0.6,0.6c-0.2,0.2-0.5,0.3-0.7,0.3l2,3.9h-1.1l-1.9-3.8h-1.7v3.8h-1V127z M505.8,127.9v3.1h1.7c0.6,0,1.1-0.1,1.4-0.4
					c0.3-0.3,0.4-0.6,0.4-1.1c0-0.2,0-0.4-0.1-0.6s-0.2-0.4-0.3-0.5s-0.3-0.3-0.5-0.3s-0.5-0.1-0.8-0.1H505.8z"/>
				<path d="M511.5,135.9h6v0.9h-6V135.9z"/>
				<path d="M523.6,128.9c0-0.1,0-0.2,0-0.2c-0.2-0.3-0.4-0.5-0.7-0.7c-0.3-0.2-0.6-0.3-1-0.3c-0.3,0-0.6,0.1-0.9,0.2
					c-0.3,0.2-0.5,0.4-0.7,0.7c-0.2,0.3-0.4,0.7-0.5,1.1c-0.1,0.4-0.2,1-0.2,1.5c0,0.6,0.1,1.1,0.2,1.5c0.1,0.5,0.3,0.8,0.5,1.2
					c0.2,0.3,0.5,0.6,0.8,0.7c0.3,0.2,0.6,0.3,0.9,0.3c0.3,0,0.7-0.1,1-0.3c0.3-0.2,0.6-0.5,0.8-0.8l0.7,0.5
					c-0.1,0.2-0.3,0.4-0.5,0.6c-0.2,0.2-0.4,0.3-0.6,0.4c-0.2,0.1-0.4,0.2-0.7,0.3c-0.2,0.1-0.4,0.1-0.7,0.1c-0.5,0-1-0.1-1.3-0.3
					c-0.4-0.2-0.7-0.4-1.1-0.8c-0.3-0.4-0.6-0.8-0.7-1.4c-0.2-0.6-0.3-1.2-0.3-2c0-0.9,0.1-1.6,0.3-2.1c0.2-0.6,0.5-1,0.8-1.4
					s0.7-0.6,1.1-0.7c0.4-0.1,0.7-0.2,1.1-0.2c0.3,0,0.6,0,0.8,0.1s0.5,0.2,0.8,0.3c0.2,0.1,0.5,0.3,0.6,0.5s0.3,0.4,0.4,0.7
					l-0.9,0.5C523.6,129,523.6,129,523.6,128.9z"/>
				<path d="M526.2,127h4.4v0.8h-1.7v7.1h1.8v0.8h-4.5v-0.8h1.7v-7.1h-1.6V127z"/>
				<path d="M532.7,135.7V127h1l3.7,6.5v-6.5h1c0,0.1,0,0.1,0,0.2c0,0.1,0,0.1,0,0.2v8.4h-0.8l-3.8-6.9v6.9H532.7z"/>
				<path d="M539.8,127h2c0.7,0,1.3,0.1,1.7,0.3c0.4,0.2,0.8,0.5,1.1,0.9s0.5,0.8,0.6,1.4c0.1,0.5,0.2,1.2,0.2,1.8
					c0,0.7-0.1,1.3-0.3,1.8s-0.4,1-0.7,1.4s-0.7,0.7-1.1,0.9c-0.5,0.2-1,0.3-1.7,0.3h-1.9V127z M540.7,127.8v7.2h0.9
					c1,0,1.7-0.3,2.2-0.9c0.5-0.6,0.7-1.5,0.7-2.6c0-1.1-0.2-2-0.6-2.7c-0.4-0.6-1.1-1-2.1-1H540.7z"/>
				<path d="M546.8,126.9h5.3v0.9h-4.4v2.9h3.7v0.9h-3.7v3.2h4.4v0.9h-5.3V126.9z"/>
				<path d="M553.8,127h2.6c1,0,1.8,0.2,2.2,0.7c0.5,0.5,0.7,1.1,0.7,1.8c0,0.3,0,0.5-0.1,0.7c-0.1,0.2-0.2,0.5-0.4,0.7
					s-0.3,0.4-0.6,0.6c-0.2,0.2-0.5,0.3-0.7,0.3l2,3.9h-1.1l-1.9-3.8h-1.7v3.8h-1V127z M554.8,127.9v3.1h1.7c0.6,0,1.1-0.1,1.4-0.4
					c0.3-0.3,0.4-0.6,0.4-1.1c0-0.2,0-0.4-0.1-0.6s-0.2-0.4-0.3-0.5s-0.3-0.3-0.5-0.3s-0.5-0.1-0.8-0.1H554.8z"/>
			</g>
		</g>
		<g>
			<defs>
				<rect id="SVGID_63_" x="47" y="101" width="849" height="285"/>
			</defs>
			<clipPath id="SVGID_64_">
				<use xlink:href="#SVGID_63_"  style="overflow:visible;"/>
			</clipPath>
			<path class="st31" d="M271,206h-84.5v60"/>
		</g>
		<g>
			<defs>
				<rect id="SVGID_65_" x="47" y="101" width="849" height="285"/>
			</defs>
			<clipPath id="SVGID_66_">
				<use xlink:href="#SVGID_65_"  style="overflow:visible;"/>
			</clipPath>
			<path class="st32" d="M221,296v45"/>
		</g>
		<g>
			<defs>
				<rect id="SVGID_67_" x="47" y="101" width="849" height="285"/>
			</defs>
			<clipPath id="SVGID_68_">
				<use xlink:href="#SVGID_67_"  style="overflow:visible;"/>
			</clipPath>
			<path class="st33" d="M151.5,296v45"/>
		</g>
		<g>
			<defs>
				<rect id="SVGID_69_" x="47" y="101" width="849" height="285"/>
			</defs>
			<clipPath id="SVGID_70_">
				<use xlink:href="#SVGID_69_"  style="overflow:visible;"/>
			</clipPath>
			<path class="st34" d="M325.5,221v45"/>
		</g>
		<g>
			<defs>
				<rect id="SVGID_71_" x="47" y="101" width="849" height="285"/>
			</defs>
			<clipPath id="SVGID_72_">
				<use xlink:href="#SVGID_71_"  style="overflow:visible;"/>
			</clipPath>
			<path class="st35" d="M380,206h91v60"/>
		</g>
		<g>
			<defs>
				<rect id="SVGID_73_" x="47" y="101" width="849" height="285"/>
			</defs>
			<clipPath id="SVGID_74_">
				<use xlink:href="#SVGID_73_"  style="overflow:visible;"/>
			</clipPath>
			<path class="st36" d="M674,221v45"/>
		</g>
		<g>
			<defs>
				<rect id="SVGID_75_" x="47" y="101" width="849" height="285"/>
			</defs>
			<clipPath id="SVGID_76_">
				<use xlink:href="#SVGID_75_"  style="overflow:visible;"/>
			</clipPath>
			<path class="st37" d="M749.5,221v45"/>
		</g>
		<g>
			<defs>
				<rect id="SVGID_77_" x="47" y="101" width="849" height="285"/>
			</defs>
			<clipPath id="SVGID_78_">
				<use xlink:href="#SVGID_77_"  style="overflow:visible;"/>
			</clipPath>
			<path class="st38" d="M460,131H325.5v60"/>
		</g>
		<g>
			<defs>
				<rect id="SVGID_79_" x="47" y="101" width="849" height="285"/>
			</defs>
			<clipPath id="SVGID_80_">
				<use xlink:href="#SVGID_79_"  style="overflow:visible;"/>
			</clipPath>
			<path class="st39" d="M569,131h142.5v60"/>
		</g>
	</g>
</g>
</svg>
