<?xml version="1.0" encoding="UTF-8"?><svg xmlns="http://www.w3.org/2000/svg" xmlns:xlink="http://www.w3.org/1999/xlink" fill-opacity="1" color-rendering="auto" color-interpolation="auto" text-rendering="auto" stroke="black" stroke-linecap="square" width="849" stroke-miterlimit="10" shape-rendering="auto" stroke-opacity="1" fill="black" stroke-dasharray="none" font-weight="normal" stroke-width="1" height="285" font-family="'Dialog'" font-style="normal" stroke-linejoin="miter" font-size="12px" stroke-dashoffset="0" image-rendering="auto">
  <!--Generated by ySVG 2.5-->
  <defs id="genericDefs"/>
  <g>
    <defs id="defs1">
      <clipPath clipPathUnits="userSpaceOnUse" id="clipPath1">
        <path d="M0 0 L849 0 L849 285 L0 285 L0 0 Z"/>
      </clipPath>
      <clipPath clipPathUnits="userSpaceOnUse" id="clipPath2">
        <path d="M47 101 L896 101 L896 386 L47 386 L47 101 Z"/>
      </clipPath>
    </defs>
    <g fill="white" text-rendering="geometricPrecision" shape-rendering="geometricPrecision" transform="translate(-47,-101)" stroke="white">
      <rect x="47" width="849" height="285" y="101" clip-path="url(#clipPath2)" stroke="none"/>
    </g>
    <g fill="rgb(255,204,0)" text-rendering="geometricPrecision" shape-rendering="geometricPrecision" transform="matrix(1,0,0,1,-47,-101)" stroke="rgb(255,204,0)">
      <rect x="657" y="191" clip-path="url(#clipPath2)" width="109" rx="4" ry="4" height="30" stroke="none"/>
    </g>
    <g text-rendering="geometricPrecision" stroke-miterlimit="1.45" stroke-dasharray="6,2" shape-rendering="geometricPrecision" transform="matrix(1,0,0,1,-47,-101)" stroke-linecap="butt">
      <rect x="657" y="191" clip-path="url(#clipPath2)" fill="none" width="109" rx="4" ry="4" height="30"/>
      <text x="676.5" font-size="14px" y="210.683" clip-path="url(#clipPath2)" font-family="'Inconsolata'" stroke-dasharray="none" stroke="none" xml:space="preserve">CINDER_MSW</text>
    </g>
    <g fill="rgb(255,204,0)" text-rendering="geometricPrecision" shape-rendering="geometricPrecision" transform="matrix(1,0,0,1,-47,-101)" stroke="rgb(255,204,0)">
      <rect x="271" y="191" clip-path="url(#clipPath2)" width="109" rx="4" ry="4" height="30" stroke="none"/>
    </g>
    <g text-rendering="geometricPrecision" stroke-miterlimit="1.45" stroke-dasharray="6,2" shape-rendering="geometricPrecision" transform="matrix(1,0,0,1,-47,-101)" stroke-linecap="butt">
      <rect x="271" y="191" clip-path="url(#clipPath2)" fill="none" width="109" rx="4" ry="4" height="30"/>
      <text x="283.5" font-size="14px" y="210.683" clip-path="url(#clipPath2)" font-family="'Inconsolata'" stroke-dasharray="none" stroke="none" xml:space="preserve">CINDER_POSIX</text>
    </g>
    <g fill="rgb(255,204,0)" text-rendering="geometricPrecision" shape-rendering="geometricPrecision" transform="matrix(1,0,0,1,-47,-101)" stroke="rgb(255,204,0)">
      <rect x="132" y="266" clip-path="url(#clipPath2)" width="109" rx="4" ry="4" height="30" stroke="none"/>
    </g>
    <g text-rendering="geometricPrecision" stroke-miterlimit="1.45" stroke-dasharray="6,2" shape-rendering="geometricPrecision" transform="matrix(1,0,0,1,-47,-101)" stroke-linecap="butt">
      <rect x="132" y="266" clip-path="url(#clipPath2)" fill="none" width="109" rx="4" ry="4" height="30"/>
      <text x="144.5" font-size="14px" y="285.683" clip-path="url(#clipPath2)" font-family="'Inconsolata'" stroke-dasharray="none" stroke="none" xml:space="preserve">CINDER_COCOA</text>
    </g>
    <g fill="rgb(255,204,0)" text-rendering="geometricPrecision" shape-rendering="geometricPrecision" transform="matrix(1,0,0,1,-47,-101)" stroke="rgb(255,204,0)">
      <rect x="201" y="341" clip-path="url(#clipPath2)" width="153" rx="4" ry="4" height="30" stroke="none"/>
    </g>
    <g text-rendering="geometricPrecision" stroke-miterlimit="1.45" stroke-width="2" shape-rendering="geometricPrecision" transform="matrix(1,0,0,1,-47,-101)" stroke-linecap="butt">
      <rect x="201" y="341" clip-path="url(#clipPath2)" fill="none" width="153" rx="4" ry="4" height="30"/>
      <text x="214.5" font-size="14px" y="360.683" clip-path="url(#clipPath2)" font-family="'Inconsolata'" stroke="none" stroke-width="1" xml:space="preserve">CINDER_COCOA_TOUCH</text>
    </g>
    <g fill="rgb(255,204,0)" text-rendering="geometricPrecision" shape-rendering="geometricPrecision" transform="matrix(1,0,0,1,-47,-101)" stroke="rgb(255,204,0)">
      <rect x="62" y="341" clip-path="url(#clipPath2)" width="109" rx="4" ry="4" height="30" stroke="none"/>
    </g>
    <g text-rendering="geometricPrecision" stroke-miterlimit="1.45" stroke-width="2" shape-rendering="geometricPrecision" transform="matrix(1,0,0,1,-47,-101)" stroke-linecap="butt">
      <rect x="62" y="341" clip-path="url(#clipPath2)" fill="none" width="109" rx="4" ry="4" height="30"/>
      <text x="81.5" font-size="14px" y="360.683" clip-path="url(#clipPath2)" font-family="'Inconsolata'" stroke="none" stroke-width="1" xml:space="preserve">CINDER_MAC</text>
    </g>
    <g fill="rgb(255,204,0)" text-rendering="geometricPrecision" shape-rendering="geometricPrecision" transform="matrix(1,0,0,1,-47,-101)" stroke="rgb(255,204,0)">
      <rect x="271" y="266" clip-path="url(#clipPath2)" width="109" rx="4" ry="4" height="30" stroke="none"/>
    </g>
    <g text-rendering="geometricPrecision" stroke-miterlimit="1.45" stroke-width="2" shape-rendering="geometricPrecision" transform="matrix(1,0,0,1,-47,-101)" stroke-linecap="butt">
      <rect x="271" y="266" clip-path="url(#clipPath2)" fill="none" width="109" rx="4" ry="4" height="30"/>
      <text x="283.5" font-size="14px" y="285.683" clip-path="url(#clipPath2)" font-family="'Inconsolata'" stroke="none" stroke-width="1" xml:space="preserve">CINDER_LINUX</text>
    </g>
    <g fill="rgb(255,204,0)" text-rendering="geometricPrecision" shape-rendering="geometricPrecision" transform="matrix(1,0,0,1,-47,-101)" stroke="rgb(255,204,0)">
      <rect x="410" y="266" clip-path="url(#clipPath2)" width="122" rx="4" ry="4" height="30" stroke="none"/>
    </g>
    <g text-rendering="geometricPrecision" stroke-miterlimit="1.45" stroke-width="2" shape-rendering="geometricPrecision" transform="matrix(1,0,0,1,-47,-101)" stroke-linecap="butt">
      <rect x="410" y="266" clip-path="url(#clipPath2)" fill="none" width="122" rx="4" ry="4" height="30"/>
      <text x="422" font-size="14px" y="285.683" clip-path="url(#clipPath2)" font-family="'Inconsolata'" stroke="none" stroke-width="1" xml:space="preserve">CINDER_ANDROID</text>
    </g>
    <g fill="rgb(255,204,0)" text-rendering="geometricPrecision" shape-rendering="geometricPrecision" transform="matrix(1,0,0,1,-47,-101)" stroke="rgb(255,204,0)">
      <rect x="590" y="266" clip-path="url(#clipPath2)" width="101" rx="4" ry="4" height="30" stroke="none"/>
    </g>
    <g text-rendering="geometricPrecision" stroke-miterlimit="1.45" stroke-width="2" shape-rendering="geometricPrecision" transform="matrix(1,0,0,1,-47,-101)" stroke-linecap="butt">
      <rect x="590" y="266" clip-path="url(#clipPath2)" fill="none" width="101" rx="4" ry="4" height="30"/>
      <text x="605.5" font-size="14px" y="285.683" clip-path="url(#clipPath2)" font-family="'Inconsolata'" stroke="none" stroke-width="1" xml:space="preserve">CINDER_UWP</text>
    </g>
    <g fill="rgb(255,204,0)" text-rendering="geometricPrecision" shape-rendering="geometricPrecision" transform="matrix(1,0,0,1,-47,-101)" stroke="rgb(255,204,0)">
      <rect x="733" y="266" clip-path="url(#clipPath2)" width="148" rx="4" ry="4" height="30" stroke="none"/>
    </g>
    <g text-rendering="geometricPrecision" stroke-miterlimit="1.45" stroke-width="2" shape-rendering="geometricPrecision" transform="matrix(1,0,0,1,-47,-101)" stroke-linecap="butt">
      <rect x="733" y="266" clip-path="url(#clipPath2)" fill="none" width="148" rx="4" ry="4" height="30"/>
      <text x="744" font-size="14px" y="285.683" clip-path="url(#clipPath2)" font-family="'Inconsolata'" stroke="none" stroke-width="1" xml:space="preserve">CINDER_MSW_DESKTOP</text>
    </g>
    <g fill="rgb(255,204,0)" text-rendering="geometricPrecision" shape-rendering="geometricPrecision" transform="matrix(1,0,0,1,-47,-101)" stroke="rgb(255,204,0)">
      <rect x="460" y="116" clip-path="url(#clipPath2)" width="109" rx="4" ry="4" height="30" stroke="none"/>
    </g>
    <g text-rendering="geometricPrecision" stroke-miterlimit="1.45" stroke-dasharray="6,2" shape-rendering="geometricPrecision" transform="matrix(1,0,0,1,-47,-101)" stroke-linecap="butt">
      <rect x="460" y="116" clip-path="url(#clipPath2)" fill="none" width="109" rx="4" ry="4" height="30"/>
      <text x="469" font-size="14px" y="135.683" clip-path="url(#clipPath2)" font-family="'Inconsolata'" stroke-dasharray="none" stroke="none" xml:space="preserve">CINDER_CINDER</text>
      <path fill="none" stroke-dasharray="none" d="M270.9587 206 L186.5 206 L186.5 265.9707" clip-path="url(#clipPath2)"/>
      <path fill="none" stroke-dasharray="none" d="M221 296 L221 340.9561" clip-path="url(#clipPath2)"/>
      <path fill="none" stroke-dasharray="none" d="M151.5 296 L151.5 340.9561" clip-path="url(#clipPath2)"/>
      <path fill="none" stroke-dasharray="none" d="M325.5 221 L325.5 265.9561" clip-path="url(#clipPath2)"/>
      <path fill="none" stroke-dasharray="none" d="M380 206 L471 206 L471 265.9707" clip-path="url(#clipPath2)"/>
      <path fill="none" stroke-dasharray="none" d="M674 221 L674 265.9561" clip-path="url(#clipPath2)"/>
      <path fill="none" stroke-dasharray="none" d="M749.5 221 L749.5 265.9561" clip-path="url(#clipPath2)"/>
      <path fill="none" stroke-dasharray="none" d="M459.9672 131 L325.5 131 L325.5 190.9707" clip-path="url(#clipPath2)"/>
      <path fill="none" stroke-dasharray="none" d="M569 131 L711.5 131 L711.5 190.9707" clip-path="url(#clipPath2)"/>
    </g>
  </g>
</svg>
