<?xml version="1.0" encoding="utf-8"?>
<!-- Generator: Adobe Illustrator 18.0.0, SVG Export Plug-In . SVG Version: 6.00 Build 0)  -->
<!DOCTYPE svg PUBLIC "-//W3C//DTD SVG 1.1//EN" "http://www.w3.org/Graphics/SVG/1.1/DTD/svg11.dtd">
<svg version="1.1" id="Layer_1" xmlns="http://www.w3.org/2000/svg" xmlns:xlink="http://www.w3.org/1999/xlink" x="0px" y="0px"
	 viewBox="0 0 61.5 61.5" enable-background="new 0 0 61.5 61.5" xml:space="preserve">
<g>
	<g>
		<circle fill-rule="evenodd" clip-rule="evenodd" fill="#2D3333" cx="30.7" cy="30.8" r="30.7"/>
		<circle fill="#A41C12" cx="30.7" cy="30.8" r="25.1"/>
	</g>
	<g>
		<g>
			<g>
				<g enable-background="new    ">
					<defs>
						<polygon id="SVGID_1_" enable-background="new    " points="30,33.3 50.6,40.8 30.9,48.7 10.3,41.2 						"/>
					</defs>
					<clipPath id="SVGID_2_">
						<use xlink:href="#SVGID_1_"  overflow="visible"/>
					</clipPath>
					<g clip-path="url(#SVGID_2_)">
						<g>
							<g>
								<g>
									<path fill="#D65037" d="M28.7,47.9L12.6,42c-1.2-0.5-1.3-1.2-0.1-1.7l15.3-6.2c1.2-0.5,3.2-0.5,4.4-0.1L48.3,40
										c1.2,0.5,1.3,1.2,0.1,1.7l-15.3,6.2C31.9,48.3,29.9,48.3,28.7,47.9"/>
								</g>
							</g>
						</g>
					</g>
				</g>
			</g>
		</g>
		<polygon fill="#FFFFFF" points="35.5,17.1 33.6,17.1 33.6,15.2 31.8,15.2 31.8,17.1 30,17.1 30,18.8 31.8,18.8 31.8,20.7 
			33.6,20.7 33.6,18.8 35.5,18.8 		"/>
		<polygon fill="#FFFFFF" points="29.3,15.4 28,15.4 28,14.1 26.8,14.1 26.8,15.4 25.5,15.4 25.5,16.6 26.8,16.6 26.8,17.8 28,17.8 
			28,16.6 29.3,16.6 		"/>
		<polygon fill="#FFFFFF" points="31.8,21.9 29.9,21.9 29.9,20 28.1,20 28.1,21.9 26.2,21.9 26.2,23.7 28.1,23.7 28.1,25.5 
			29.9,25.5 29.9,23.7 31.8,23.7 		"/>
		<g>
			<polygon fill="#6D261D" points="23.9,41.2 33.7,24.1 43.6,41.2 			"/>
			<polygon fill="#491615" points="18.1,41.2 26.5,26.7 34.8,41.2 			"/>
		</g>
	</g>
	<g>
		<defs>
			<circle id="SVGID_3_" cx="30.8" cy="30.7" r="30.7"/>
		</defs>
		<clipPath id="SVGID_4_">
			<use xlink:href="#SVGID_3_"  overflow="visible"/>
		</clipPath>
		
			<linearGradient id="SVGID_5_" gradientUnits="userSpaceOnUse" x1="277.3827" y1="-13.2877" x2="330.9109" y2="-13.2877" gradientTransform="matrix(-0.4255 -0.4255 0.7071 -0.7071 158.2822 140.5058)">
			<stop  offset="0" style="stop-color:#FFFFFF;stop-opacity:0.05"/>
			<stop  offset="1" style="stop-color:#FBFBFB;stop-opacity:0"/>
		</linearGradient>
		<polygon clip-path="url(#SVGID_4_)" fill="url(#SVGID_5_)" points="31.5,-14.3 54.2,8.5 7.5,55.2 -15.3,32.5 		"/>
	</g>
</g>
</svg>
