<?xml version="1.0" encoding="utf-8"?>
<!-- Generator: Adobe Illustrator 18.0.0, SVG Export Plug-In . SVG Version: 6.00 Build 0)  -->
<!DOCTYPE svg PUBLIC "-//W3C//DTD SVG 1.1//EN" "http://www.w3.org/Graphics/SVG/1.1/DTD/svg11.dtd">
<svg version="1.1" id="Layer_1" xmlns="http://www.w3.org/2000/svg" xmlns:xlink="http://www.w3.org/1999/xlink" x="0px" y="0px"
	 width="30px" height="30px" viewBox="0 0 30 30" enable-background="new 0 0 30 30" xml:space="preserve">
<g id="audio_gray">
	<g>
		<path fill="#444747" d="M28,15.8h-1.3c0-6-5.2-10.9-11.7-10.9S3.3,9.8,3.3,15.8H2C2,9,7.8,3.5,15,3.5S28,9,28,15.8z"/>
		<path fill="#646868" d="M4.6,11.1L3,10.3c2.2-4.3,6.8-7,11.9-7s9.7,2.7,11.9,7l-1.6,0.8c-1.9-3.7-6-6-10.3-6
			C10.6,5.1,6.5,7.4,4.6,11.1z"/>
		<path fill="#646868" d="M3.4,24.4L3.4,24.4C2.1,24.4,0,23.3,0,22v-4.8c0-1.3,1.6-2.4,2.9-2.4h0.5"/>
		<path fill="#646868" d="M4.4,14.8L4.4,14.8c0.5,0,1.3,1.1,1.3,2.4V22c0,1.3-0.6,2.4-1.1,2.4H4.4"/>
		<path fill="#646868" d="M26.6,24.4L26.6,24.4c1.3,0,3.4-1.1,3.4-2.4v-4.8c0-1.3-1.6-2.4-2.9-2.4h-0.5"/>
		<path fill="#646868" d="M25.6,14.8L25.6,14.8c-0.5,0-1.3,1.1-1.3,2.4V22c0,1.3,0.6,2.4,1.1,2.4h0.2"/>
		<g>
			<path fill="#444747" d="M22.7,21.4c-0.2-0.4-0.3-1.1-0.4-1.6c-0.3-1.4-0.5-2.4-1.3-2.4s-0.9,1.1-1.3,4.6c-0.1,0.9-0.2,2.2-0.4,3
				c-0.2-1.2-0.3-3.4-0.4-5.1c-0.4-5.9-0.6-6.7-1.3-6.7c-0.8,0-0.9,1.1-1.3,4.6c-0.1,1.1-0.3,2.8-0.5,3.5c-0.1-0.4-0.3-1-0.4-1.4
				c-0.3-1.4-0.5-2.4-1.3-2.4s-1,1.1-1.3,3.5c-0.1,0.7-0.2,1.7-0.4,2.3c-0.2-0.8-0.3-2.3-0.4-3.4c-0.4-3.5-0.5-4.6-1.3-4.6
				s-1,1.1-1.3,3.5c-0.1,0.8-0.3,2-0.4,2.5c-0.1-0.4-0.3-1.1-0.4-1.5c-0.3-1.4-0.5-2.4-1.3-2.4v1.1c0.2,0.4,0.3,1.1,0.4,1.6
				C8,21.4,8.2,22.5,9,22.5s1-1.1,1.3-3.5c0.1-0.7,0.2-1.7,0.4-2.3c0.2,0.8,0.3,2.3,0.4,3.4c0.4,3.5,0.5,4.6,1.3,4.6s1-1.1,1.3-3.5
				c0.1-0.8,0.3-2,0.4-2.5c0.1,0.4,0.3,1.1,0.4,1.5c0.3,1.4,0.5,2.4,1.3,2.4c0.8,0,0.9-1.1,1.3-4.6c0.1-0.9,0.2-2.2,0.4-3
				c0.2,1.2,0.3,3.4,0.4,5.1c0.4,5.8,0.6,6.7,1.3,6.7c0.8,0,0.9-1.1,1.3-4.6c0.1-1.1,0.3-2.8,0.5-3.5c0.1,0.4,0.3,1,0.4,1.4
				c0.3,1.4,0.5,2.4,1.3,2.4C22.7,22.5,22.7,21.4,22.7,21.4z"/>
			<path fill="#FFFFFF" d="M22.7,20.5c-0.2-0.4-0.3-1.1-0.4-1.6c-0.3-1.4-0.5-2.4-1.3-2.4s-0.9,1.1-1.3,4.6c-0.1,0.9-0.2,2.2-0.4,3
				c-0.2-1.2-0.3-3.4-0.4-5.1c-0.4-5.9-0.6-6.7-1.3-6.7c-0.8,0-0.9,1.1-1.3,4.6c-0.1,1.1-0.3,2.8-0.5,3.5c-0.1-0.4-0.3-1-0.4-1.4
				c-0.3-1.4-0.5-2.4-1.3-2.4s-1,1.1-1.3,3.5c-0.1,0.7-0.2,1.7-0.4,2.3c-0.2-0.8-0.3-2.3-0.4-3.4c-0.4-3.5-0.5-4.6-1.3-4.6
				s-1,1.1-1.3,3.5c-0.1,0.8-0.3,2-0.4,2.5c-0.1-0.4-0.3-1.1-0.4-1.5c-0.3-1.4-0.5-2.4-1.3-2.4v1.1c0.2,0.4,0.3,1.1,0.4,1.6
				C8,20.5,8.2,21.6,9,21.6s1-1.1,1.3-3.5c0.1-0.7,0.2-1.7,0.4-2.3c0.2,0.8,0.3,2.3,0.4,3.4c0.4,3.5,0.5,4.6,1.3,4.6s1-1.1,1.3-3.5
				c0.1-0.8,0.3-2,0.4-2.5c0.1,0.4,0.3,1.1,0.4,1.5c0.3,1.4,0.5,2.4,1.3,2.4c0.8,0,0.9-1.1,1.3-4.6c0.1-0.9,0.2-2.2,0.4-3
				c0.2,1.2,0.3,3.4,0.4,5.1c0.4,5.8,0.6,6.7,1.3,6.7c0.8,0,0.9-1.1,1.3-4.6c0.1-1.1,0.3-2.8,0.5-3.5c0.1,0.4,0.3,1,0.4,1.4
				c0.3,1.4,0.5,2.4,1.3,2.4C22.7,21.6,22.7,20.5,22.7,20.5z"/>
		</g>
	</g>
</g>
</svg>
