<?xml version="1.0" encoding="utf-8"?>
<!-- Generator: Adobe Illustrator 18.0.0, SVG Export Plug-In . SVG Version: 6.00 Build 0)  -->
<!DOCTYPE svg PUBLIC "-//W3C//DTD SVG 1.1//EN" "http://www.w3.org/Graphics/SVG/1.1/DTD/svg11.dtd">
<svg version="1.1" id="Layer_1" xmlns="http://www.w3.org/2000/svg" xmlns:xlink="http://www.w3.org/1999/xlink" x="0px" y="0px"
	 viewBox="0 0 46 46" enable-background="new 0 0 46 46" xml:space="preserve">
<g>
	<defs>
		<path id="SVGID_1_" d="M23,45.9l-0.4,0c-6.1-0.1-11.9-2.6-16.2-7C2.2,34.6-0.1,28.8,0,22.6C0.2,10.1,10.5,0,23,0l0.3,0
			C36,0.2,46.2,10.6,46,23.3C45.8,35.8,35.5,45.9,23,45.9z"/>
	</defs>
	<clipPath id="SVGID_2_">
		<use xlink:href="#SVGID_1_"  overflow="visible"/>
	</clipPath>
	<g display="none" clip-path="url(#SVGID_2_)">
		<circle display="inline" fill="#CCCCCC" cx="23" cy="23" r="17.3"/>
		<g display="inline">
			<path fill="#E6E6E6" d="M23,46C10.3,46,0,35.7,0,23C0,10.3,10.3,0,23,0c12.7,0,23,10.3,23,23C46,35.7,35.7,46,23,46z M23,4.2
				C12.6,4.2,4.2,12.6,4.2,23S12.6,41.8,23,41.8S41.8,33.4,41.8,23S33.4,4.2,23,4.2z"/>
		</g>
		<g display="inline">
			<g>
				<path fill="#808080" d="M18.6,31.9c-0.4-0.1-0.4-1.6-0.8-1.8c-0.4-0.1-1.3,1.1-1.7,0.9c-0.4-0.2,0-1.7-0.4-1.9
					c-0.3-0.2-1.6,0.8-1.9,0.5c-0.3-0.3,0.4-1.6,0.1-1.9c-0.3-0.3-1.7,0.4-1.9,0c-0.2-0.3,0.8-1.5,0.6-1.8c-0.2-0.4-1.7,0-1.9-0.4
					c-0.2-0.4,1.1-1.3,1-1.7c-0.1-0.4-1.7-0.5-1.7-0.9c-0.1-0.4,1.4-0.9,1.4-1.4c0-0.4-1.5-0.9-1.5-1.3c0-0.4,1.6-0.6,1.7-1
					c0.1-0.4-1.2-1.2-1.1-1.6c0.1-0.4,1.7-0.2,1.9-0.6c0.2-0.4-0.9-1.5-0.7-1.8c0.2-0.3,1.7,0.2,1.9-0.1c0.3-0.3-0.5-1.6-0.2-1.9
					c0.3-0.3,1.6,0.6,1.9,0.4c0.3-0.2-0.1-1.7,0.2-1.9c0.4-0.2,1.4,1,1.8,0.8c0.4-0.2,0.3-1.7,0.7-1.8c0.4-0.1,1.1,1.3,1.5,1.2
					c0.4-0.1,0.7-1.6,1.1-1.6c0.4,0,0.8,1.5,1.2,1.5c0.4,0,1-1.4,1.4-1.3c0.4,0.1,0.4,1.6,0.8,1.8c0.4,0.1,1.3-1.1,1.7-0.9
					c0.4,0.2,0,1.7,0.4,1.9c0.3,0.2,1.6-0.8,1.9-0.5c0.3,0.3-0.4,1.6-0.1,1.9c0.3,0.3,1.7-0.4,1.9,0c0.2,0.3-0.8,1.5-0.6,1.8
					s1.7,0,1.9,0.4c0.2,0.4-1.1,1.3-1,1.7c0.1,0.4,1.7,0.5,1.7,0.9c0.1,0.4-1.4,0.9-1.4,1.4c0,0.4,1.5,0.9,1.5,1.3
					c0,0.4-1.6,0.6-1.7,1c-0.1,0.4,1.2,1.2,1.1,1.6c-0.1,0.4-1.7,0.2-1.9,0.6c-0.2,0.4,0.9,1.5,0.7,1.8c-0.2,0.3-1.7-0.2-1.9,0.1
					c-0.3,0.3,0.5,1.6,0.2,1.9c-0.3,0.3-1.6-0.6-1.9-0.4c-0.3,0.2,0.1,1.7-0.2,1.9c-0.4,0.2-1.4-1-1.8-0.8c-0.4,0.2-0.3,1.7-0.7,1.8
					c-0.4,0.1-1.1-1.3-1.5-1.2c-0.4,0.1-0.7,1.6-1.1,1.6c-0.4,0-0.8-1.5-1.2-1.5C19.6,30.6,19,32,18.6,31.9z"/>
				<g>
					<path fill="#F2F2F2" d="M19.2,28.8c-4.2-0.9-6.9-4.9-6-9.1c0.9-4.1,5-6.8,9.2-5.9s6.9,4.9,6,9.1S23.4,29.7,19.2,28.8z"/>
				</g>
			</g>
			<rect x="19.7" y="13.6" fill="#808080" width="1.3" height="15.7"/>
			<rect x="12.2" y="21.1" fill="#808080" width="16.7" height="0.9"/>
			<circle fill="#4D4D4D" cx="20.6" cy="21.4" r="2.8"/>
		</g>
		<g display="inline">
			<path fill="#4D4D4D" d="M32.9,33.4c-0.4,0.2-1.1-0.8-1.5-0.7c-0.4,0.1-0.6,1.3-1,1.3c-0.4,0-0.7-1.2-1.1-1.3
				c-0.4-0.1-1.1,0.9-1.5,0.8c-0.4-0.2-0.1-1.4-0.4-1.6c-0.3-0.2-1.4,0.4-1.7,0c-0.3-0.3,0.5-1.3,0.3-1.6c-0.2-0.4-1.4-0.3-1.5-0.7
				c-0.1-0.4,1-0.9,1-1.3c0-0.4-1.1-0.9-1.1-1.3c0.1-0.4,1.3-0.4,1.5-0.8c0.2-0.4-0.6-1.3-0.4-1.6c0.2-0.3,1.4,0.2,1.7,0
				c0.3-0.2,0-1.4,0.3-1.6c0.4-0.2,1.1,0.8,1.5,0.7c0.4-0.1,0.6-1.3,1-1.3c0.4,0,0.7,1.2,1.1,1.3c0.4,0.1,1.1-0.9,1.5-0.8
				c0.4,0.2,0.1,1.4,0.4,1.6c0.3,0.2,1.4-0.4,1.7,0c0.3,0.3-0.5,1.3-0.3,1.6c0.2,0.4,1.4,0.3,1.5,0.7c0.1,0.4-1,0.9-1,1.3
				c0,0.4,1.1,0.9,1.1,1.3c-0.1,0.4-1.3,0.4-1.5,0.8c-0.2,0.4,0.6,1.3,0.4,1.6c-0.2,0.3-1.4-0.2-1.7,0C32.9,32,33.2,33.2,32.9,33.4z
				"/>
			<path fill="#FFFFFF" d="M31.8,31.3c-1.7,0.9-3.9,0.2-4.8-1.5c-0.9-1.7-0.2-3.8,1.5-4.7c1.7-0.9,3.9-0.2,4.8,1.5
				S33.5,30.4,31.8,31.3z"/>
			<path fill="#808080" d="M31,29.8c-0.9,0.5-2,0.1-2.5-0.8c-0.5-0.9-0.1-2,0.8-2.5c0.9-0.5,2-0.1,2.5,0.8S31.9,29.3,31,29.8z"/>
		</g>
	</g>
	<g display="none" clip-path="url(#SVGID_2_)">
		<circle display="inline" fill="#CCCCCC" cx="23" cy="22.7" r="17.3"/>
		<g display="inline">
			<path fill="#E6E6E6" d="M23,46C10.3,46,0,35.7,0,23S10.3,0,23,0s23,10.3,23,23S35.7,46,23,46z M23,4.1C12.6,4.1,4.1,12.6,4.1,23
				S12.6,41.9,23,41.9S41.9,33.4,41.9,23S33.4,4.1,23,4.1z"/>
		</g>
		<g display="inline">
			<defs>
				<circle id="SVGID_3_" cx="23" cy="23" r="17.3"/>
			</defs>
			<clipPath id="SVGID_4_">
				<use xlink:href="#SVGID_3_"  overflow="visible"/>
			</clipPath>
			<g clip-path="url(#SVGID_4_)">
				<g>
					<g>
						<g enable-background="new    ">
							<defs>
								<polygon id="SVGID_5_" enable-background="new    " points="22.6,22.7 40.4,29.2 23.4,36.1 5.6,29.6 								"/>
							</defs>
							<clipPath id="SVGID_6_">
								<use xlink:href="#SVGID_5_"  overflow="visible"/>
							</clipPath>
							<g clip-path="url(#SVGID_6_)">
								<g>
									<g>
										<g>
											<path fill="#E6E6E6" d="M21.5,35.4l-14-5.1c-1.1-0.4-1.1-1-0.1-1.4l13.3-5.4c1-0.4,2.7-0.4,3.8,0l14,5.1
												c1.1,0.4,1.1,1,0.1,1.4l-13.3,5.4C24.2,35.8,22.6,35.8,21.5,35.4"/>
										</g>
									</g>
								</g>
							</g>
						</g>
					</g>
				</g>
				<polygon fill="#FFFFFF" points="26.7,11.8 25.3,11.8 25.3,10.4 24,10.4 24,11.8 22.6,11.8 22.6,13.1 24,13.1 24,14.4 25.3,14.4 
					25.3,13.1 26.7,13.1 				"/>
				<polygon fill="#FFFFFF" points="22.2,10.5 21.2,10.5 21.2,9.6 20.3,9.6 20.3,10.5 19.4,10.5 19.4,11.4 20.3,11.4 20.3,12.3 
					21.2,12.3 21.2,11.4 22.2,11.4 				"/>
				<polygon fill="#FFFFFF" points="24,15.4 22.6,15.4 22.6,14 21.3,14 21.3,15.4 19.9,15.4 19.9,16.6 21.3,16.6 21.3,18 22.6,18 
					22.6,16.6 24,16.6 				"/>
				<g>
					<polygon fill="#808080" points="18.2,29.5 25.4,17 32.7,29.5 					"/>
					<polygon fill="#4D4D4D" points="13.9,29.5 20.1,18.9 26.2,29.5 					"/>
				</g>
			</g>
		</g>
	</g>
	<g id="math" display="none" clip-path="url(#SVGID_2_)">
		<circle display="inline" fill="#CCCCCC" cx="23" cy="23.2" r="17.3"/>
		<g display="inline">
			<path fill="#E6E6E6" d="M23,46C10.3,46,0,35.7,0,23S10.3,0,23,0c12.7,0,23,10.3,23,23S35.7,46,23,46z M23,4.2
				C12.6,4.2,4.2,12.6,4.2,23S12.6,41.8,23,41.8S41.8,33.4,41.8,23S33.4,4.2,23,4.2z"/>
		</g>
		<g display="inline">
			<circle fill="#E6E6E6" cx="22.9" cy="23.4" r="10.2"/>
			<g>
				<g>
					<path fill="#4D4D4D" d="M20.2,13.5c0.3-1.4,1.9-2.7,3.5-2.7c0.6,0,1.1,0.3,1.1,0.9c0,0.6-0.4,1-1,1c-0.4,0-0.6-0.2-0.6-0.6
						c0-0.4,0.4-0.5,0.4-0.6c0-0.1-0.1-0.2-0.2-0.2c-0.6,0-1,1.7-1.1,2.1l-2.1,8.3h2.4v1h-2.7l-2,8.2c-0.2,0.8-0.5,1.4-1,2
						c-0.5,0.5-1.7,0.8-2.4,0.8c-0.6,0-1.1-0.3-1.1-0.9c0-0.6,0.4-1,1-1c0.4,0,0.6,0.2,0.6,0.6s-0.4,0.5-0.4,0.6
						c0,0.1,0.1,0.2,0.2,0.2c0.6,0,1-1.7,1.1-2.1l2.1-8.3h-2.4v-1h2.7L20.2,13.5z"/>
					<path fill="#4D4D4D" d="M21.5,28.3c0-2.4,1.6-4.1,3-4.9l0.4,0.6c-1.3,0.8-2.5,2.2-2.5,4.3c0,2.1,1.2,3.5,2.5,4.3l-0.4,0.6
						C23,32.4,21.5,30.7,21.5,28.3z"/>
					<path fill="#4D4D4D" d="M24.9,30.1h0.6l1.4-1.5l-1.3-1.4H25v-0.7h2v0.7h-0.6l0.9,1.1l0.9-1.1h-0.6v-0.7h2v0.7h-0.6l-1.3,1.4
						l1.4,1.5h0.6v0.7h-2v-0.7h0.6l-1-1.1l-1,1.1h0.6v0.7h-2V30.1z"/>
					<path fill="#4D4D4D" d="M29.8,32.5c1.3-0.8,2.5-2.2,2.5-4.3c0-2.1-1.2-3.4-2.5-4.3l0.4-0.6c1.4,0.8,3,2.5,3,4.9
						c0,2.4-1.6,4.1-3,4.9L29.8,32.5z"/>
				</g>
			</g>
		</g>
	</g>
	<g id="video" display="none" clip-path="url(#SVGID_2_)">
		<circle display="inline" fill="#CCCCCC" cx="23" cy="23" r="17.3"/>
		<g display="inline">
			<path fill="#E6E6E6" d="M23,46C10.3,46,0,35.7,0,23C0,10.3,10.3,0,23,0c12.7,0,23,10.3,23,23C46,35.7,35.7,46,23,46z M23,4.2
				C12.6,4.2,4.2,12.6,4.2,23c0,10.4,8.4,18.8,18.8,18.8S41.8,33.4,41.8,23C41.8,12.6,33.4,4.2,23,4.2z"/>
		</g>
		<g display="inline">
			<path fill="#4D4D4D" d="M31,32.4H16c-0.9,0-1.6-0.7-1.6-1.6v-11h18.1v11C32.6,31.6,31.9,32.4,31,32.4z"/>
			<polygon fill="#FFFFFF" points="31,12.2 13.5,15.7 14.4,19.4 31.9,16 			"/>
			<g>
				<polygon fill="#4D4D4D" points="14,15.5 13.6,16.1 14,17.7 16,15.2 				"/>
				<polygon fill="#4D4D4D" points="17.9,14.8 14.4,19.3 14.4,19.5 16.1,19.2 19.9,14.4 				"/>
				<polygon fill="#4D4D4D" points="22,14 18.1,18.8 20.1,18.4 24,13.6 				"/>
				<polygon fill="#4D4D4D" points="25.8,13.2 22,18 24,17.6 27.8,12.8 				"/>
				<polygon fill="#4D4D4D" points="31,12.2 29.7,12.4 25.9,17.2 27.9,16.8 31.1,12.7 				"/>
				<polygon fill="#4D4D4D" points="31.5,14.3 29.9,16.4 31.8,16 31.9,15.9 				"/>
			</g>
			<g>
				<ellipse fill="#999999" cx="23.5" cy="26.2" rx="3.5" ry="3.3"/>
				<path fill="#FFFFFF" d="M25.3,26.5l-2.7,1.4c-0.2,0.1-0.5,0-0.5-0.3v-2.8c0-0.2,0.3-0.4,0.5-0.3l2.7,1.4
					C25.5,26.1,25.5,26.4,25.3,26.5z"/>
			</g>
		</g>
	</g>
	<g id="_x32_D" display="none" clip-path="url(#SVGID_2_)">
		<circle display="inline" fill="#CCCCCC" cx="23" cy="23" r="17.3"/>
		<g display="inline">
			<path fill="#E6E6E6" d="M23,46C10.3,46,0,35.7,0,23C0,10.3,10.3,0,23,0c12.7,0,23,10.3,23,23C46,35.7,35.7,46,23,46z M23,4.2
				C12.6,4.2,4.2,12.6,4.2,23S12.6,41.8,23,41.8S41.8,33.4,41.8,23S33.4,4.2,23,4.2z"/>
		</g>
		<g display="inline">
			<g>
				<rect x="13.9" y="14.9" fill="#FFFFFF" width="11.4" height="11.4"/>
			</g>
			<g>
				<circle fill="#808080" cx="29.2" cy="22.7" r="5.8"/>
				<path fill="#E6E6E6" d="M29.2,29c-3.5,0-6.3-2.8-6.3-6.3s2.8-6.3,6.3-6.3s6.3,2.8,6.3,6.3S32.7,29,29.2,29z M29.2,17.5
					c-2.9,0-5.3,2.4-5.3,5.3s2.4,5.3,5.3,5.3s5.3-2.4,5.3-5.3S32.1,17.5,29.2,17.5z"/>
			</g>
			<g>
				<polygon fill="#4D4D4D" points="15.8,31.7 22.4,20.4 28.9,31.7 				"/>
				<path fill="#E6E6E6" d="M29.8,32.2H14.9l7.4-12.9L29.8,32.2z M16.8,31.2H28l-5.6-9.7L16.8,31.2z"/>
			</g>
		</g>
	</g>
	<g id="platform" display="none" clip-path="url(#SVGID_2_)">
		<circle display="inline" fill="#CCCCCC" cx="23" cy="23" r="17.3"/>
		<g display="inline">
			<path fill="#E6E6E6" d="M23,46C10.3,46,0,35.7,0,23C0,10.3,10.3,0,23,0c12.7,0,23,10.3,23,23C46,35.7,35.7,46,23,46z M23,4.2
				C12.6,4.2,4.2,12.6,4.2,23c0,10.4,8.4,18.8,18.8,18.8S41.8,33.4,41.8,23C41.8,12.6,33.4,4.2,23,4.2z"/>
		</g>
		<g display="inline">
			<path fill="#808080" d="M28.4,23.6H14.3c-0.3,0-0.6-0.3-0.6-0.6V13c0-0.3,0.3-0.6,0.6-0.6h14.1c0.3,0,0.6,0.3,0.6,0.6v10
				C29,23.3,28.7,23.6,28.4,23.6z"/>
			<rect x="14.8" y="13.8" fill="#4D4D4D" width="13.1" height="8.4"/>
			<path fill="#4D4D4D" d="M31.5,28.1H11.4c-0.2,0-0.4-0.2-0.4-0.4v-0.7h20.4c0.1,0,0.2,0.1,0.2,0.2v0.6
				C31.7,28,31.6,28.1,31.5,28.1z"/>
			<polygon fill="#808080" points="31.6,27 11.1,27 13.7,23.5 29,23.5 			"/>
			<rect x="13.8" y="23.1" fill="#4D4D4D" width="15.2" height="0.4"/>
			<g>
				<polygon fill="#FFFFFF" points="19.6,20.2 22.1,15.9 24.6,20.2 				"/>
				<polygon fill="#FFFFFF" points="18.1,20.2 20.2,16.5 22.4,20.2 				"/>
			</g>
			<g>
				<g>
					<path fill="#808080" d="M23.9,30.3V20.2c0-0.9,0.8-1.7,1.7-1.7h6.1c0.9,0,1.7,0.8,1.7,1.7v10.2c0,0.9-0.8,1.7-1.7,1.7h-6.1
						C24.7,32,23.9,31.3,23.9,30.3z"/>
					<path fill="#E6E6E6" d="M24.7,28.2v-7.4c0-0.9,0.7-1.6,1.6-1.6h4.5c0.9,0,1.6,0.7,1.6,1.6v7.4c0,0.9-0.7,1.6-1.6,1.6h-4.5
						C25.4,29.8,24.7,29.1,24.7,28.2z"/>
					<rect x="28.1" y="30.5" fill="#FFFFFF" width="1.1" height="1"/>
				</g>
				<g>
					<polygon fill="#4D4D4D" points="27.4,25.6 29.1,22.7 30.8,25.6 					"/>
					<polygon fill="#4D4D4D" points="26.4,25.6 27.9,23.1 29.3,25.6 					"/>
				</g>
			</g>
		</g>
	</g>
	<g id="images" display="none" clip-path="url(#SVGID_2_)">
		<circle display="inline" fill="#CCCCCC" cx="23" cy="23" r="17.3"/>
		<g display="inline">
			<g>
				<path fill="#999999" d="M32.9,31.4H13.1L23,10.3L32.9,31.4z M14.3,30.6h17.3L23,12.2L14.3,30.6z"/>
			</g>
			<g>
				<rect x="12.4" y="16.8" fill="#4D4D4D" width="21.1" height="15.4"/>
				<path fill="#E6E6E6" d="M34.1,32.9H11.9V16.2h22.3V32.9z M13,31.7H33V17.4H13V31.7z"/>
			</g>
			<circle fill="#F2F2F2" cx="23" cy="11.2" r="0.9"/>
			<rect x="13" y="27.9" fill="#808080" width="19.9" height="3.7"/>
			<polygon fill="#FFFFFF" points="29.9,22 28.3,22 28.3,20.5 26.9,20.5 26.9,22 25.4,22 25.4,23.5 26.9,23.5 26.9,25 28.3,25 
				28.3,23.5 29.9,23.5 			"/>
			<polygon fill="#FFFFFF" points="24.3,20.1 23.4,20.1 23.4,19.2 22.7,19.2 22.7,20.1 21.8,20.1 21.8,20.9 22.7,20.9 22.7,21.7 
				23.4,21.7 23.4,20.9 24.3,20.9 			"/>
			<polygon fill="#FFFFFF" points="20.7,21.8 20,21.8 20,21.2 19.4,21.2 19.4,21.8 18.8,21.8 18.8,22.4 19.4,22.4 19.4,23.1 
				20,23.1 20,22.4 20.7,22.4 			"/>
			<g>
				<polygon fill="#FFFFFF" points="15.6,32.5 20.2,24.5 24.9,32.5 				"/>
				<polygon fill="#E6E6E6" points="12.9,32.5 16.8,25.8 20.7,32.5 				"/>
			</g>
		</g>
		<g display="inline">
			<path fill="#E6E6E6" d="M23,46C10.3,46,0,35.7,0,23C0,10.3,10.3,0,23,0c12.7,0,23,10.3,23,23C46,35.7,35.7,46,23,46z M23,4.2
				C12.6,4.2,4.2,12.6,4.2,23S12.6,41.8,23,41.8S41.8,33.4,41.8,23S33.4,4.2,23,4.2z"/>
		</g>
	</g>
	<g id="audio" clip-path="url(#SVGID_2_)">
		<g>
			<g>
				<circle fill="#CCCCCC" cx="23" cy="22.8" r="17.3"/>
			</g>
			<g>
				<path fill="#E6E6E6" d="M23,46C10.3,46,0,35.7,0,23S10.3,0,23,0c12.7,0,23,10.3,23,23S35.7,46,23,46z M23,4.2
					C12.6,4.2,4.2,12.6,4.2,23S12.6,41.8,23,41.8S41.8,33.4,41.8,23S33.4,4.2,23,4.2z"/>
			</g>
		</g>
		<g>
			<path fill="#E6E6E6" d="M28.7,33.6c-1.2,0-1.4-1.2-2-10c-0.2-2.3-0.3-5.2-0.6-7c-0.2,1.2-0.3,2.7-0.5,3.9c-0.5,5.1-0.8,6.8-2,6.8
				c-1.2,0-1.6-1.6-2-3.7c-0.1-0.6-0.3-1.4-0.5-2c-0.2,0.9-0.4,2.4-0.6,3.5c-0.5,3.5-0.8,5.3-2,5.3c-1.2,0-1.5-1.8-2-6.8
				c-0.1-1.4-0.3-3.4-0.6-4.6c-0.2,0.9-0.4,2.1-0.5,3c-0.5,3.5-0.8,5.3-2,5.3c-1.2,0-1.6-1.6-2-3.7c-0.2-0.9-0.5-2.3-0.7-2.5
				c0,0,0.1,0.1,0.2,0.1v-1.5c1.2,0,1.6,1.6,2,3.7c0.1,0.6,0.3,1.4,0.5,2c0.2-0.9,0.4-2.4,0.6-3.5c0.5-3.5,0.8-5.3,2-5.3
				c1.2,0,1.5,1.8,2,6.8c0.1,1.4,0.3,3.4,0.6,4.6c0.2-0.9,0.4-2.1,0.5-3c0.5-3.5,0.8-5.3,2-5.3c1.2,0,1.6,1.6,2,3.7
				c0.1,0.5,0.3,1.3,0.4,1.8c0.3-1.2,0.5-3.3,0.6-4.9c0.5-5.1,0.8-6.8,2-6.8c1.2,0,1.4,1.2,2,10c0.2,2.3,0.3,5.2,0.6,7
				c0.2-1.2,0.3-2.7,0.5-3.9c0.5-5.1,0.8-6.8,2-6.8c1.2,0,1.6,1.6,2,3.7c0.2,0.9,0.5,2.3,0.7,2.5c0,0-0.1-0.1-0.2-0.1v1.5
				c-1.2,0-1.6-1.6-2-3.7c-0.1-0.5-0.3-1.3-0.4-1.8c-0.3,1.2-0.5,3.3-0.6,4.9C30.1,31.9,29.9,33.6,28.7,33.6z"/>
		</g>
		<g>
			<path fill="#4D4D4D" d="M28.7,33c-1.2,0-1.4-1.2-2-10c-0.2-2.3-0.3-5.2-0.6-7c-0.2,1.2-0.3,2.7-0.5,3.9c-0.5,5.1-0.8,6.8-2,6.8
				c-1.2,0-1.6-1.6-2-3.7c-0.1-0.6-0.3-1.4-0.5-2c-0.2,0.9-0.4,2.4-0.6,3.5c-0.5,3.5-0.8,5.3-2,5.3c-1.2,0-1.5-1.8-2-6.8
				c-0.1-1.4-0.3-3.4-0.6-4.6c-0.2,0.9-0.4,2.1-0.5,3c-0.5,3.5-0.8,5.3-2,5.3c-1.2,0-1.6-1.6-2-3.7c-0.2-0.9-0.5-2.3-0.7-2.5
				c0,0,0.1,0.1,0.2,0.1v-1.5c1.2,0,1.6,1.6,2,3.7c0.1,0.6,0.3,1.4,0.5,2c0.2-0.9,0.4-2.4,0.6-3.5c0.5-3.5,0.8-5.3,2-5.3
				c1.2,0,1.5,1.8,2,6.8c0.1,1.4,0.3,3.4,0.6,4.6c0.2-0.9,0.4-2.1,0.5-3c0.5-3.5,0.8-5.3,2-5.3c1.2,0,1.6,1.6,2,3.7
				c0.1,0.5,0.3,1.3,0.4,1.8c0.3-1.2,0.5-3.3,0.6-4.9c0.5-5.1,0.8-6.8,2-6.8c1.2,0,1.4,1.2,2,10c0.2,2.3,0.3,5.2,0.6,7
				c0.2-1.2,0.3-2.7,0.5-3.9c0.5-5.1,0.8-6.8,2-6.8c1.2,0,1.6,1.6,2,3.7c0.2,0.9,0.5,2.3,0.7,2.5c0,0-0.1-0.1-0.2-0.1v1.5
				c-1.2,0-1.6-1.6-2-3.7c-0.1-0.5-0.3-1.3-0.4-1.8c-0.3,1.2-0.5,3.3-0.6,4.9C30.1,31.3,29.9,33,28.7,33z"/>
		</g>
	</g>
	
		<linearGradient id="SVGID_7_" gradientUnits="userSpaceOnUse" x1="363.8314" y1="-157.5164" x2="403.5168" y2="-157.5164" gradientTransform="matrix(-0.4357 -0.4357 0.7071 -0.7071 293.3917 70.3728)">
		<stop  offset="0" style="stop-color:#FFFFFF;stop-opacity:0.2"/>
		<stop  offset="1" style="stop-color:#FBFBFB;stop-opacity:0"/>
	</linearGradient>
	<polygon clip-path="url(#SVGID_2_)" fill="url(#SVGID_7_)" points="23.5,-11.4 40.8,5.9 6.1,40.5 -11.2,23.3 	"/>
</g>
</svg>
