<?xml version="1.0" encoding="utf-8"?>
<!-- Generator: Adobe Illustrator 18.0.0, SVG Export Plug-In . SVG Version: 6.00 Build 0)  -->
<!DOCTYPE svg PUBLIC "-//W3C//DTD SVG 1.1//EN" "http://www.w3.org/Graphics/SVG/1.1/DTD/svg11.dtd">
<svg version="1.1" id="Layer_1" xmlns="http://www.w3.org/2000/svg" xmlns:xlink="http://www.w3.org/1999/xlink" x="0px" y="0px"
	 viewBox="0 0 59.5 33.3" enable-background="new 0 0 59.5 33.3" xml:space="preserve">
<g>
	<polygon fill="#CCCCCC" points="36.4,24.9 53.1,24.9 59.5,17.9 48.4,17.9 	"/>
	<polygon fill="#CCCCCC" points="23.3,32.9 47.3,32.9 39.3,28.1 	"/>
	
		<ellipse transform="matrix(0.9999 1.491686e-02 -1.491686e-02 0.9999 0.1482 -0.1464)" fill="#FFFFFF" stroke="#999999" stroke-width="0.7276" stroke-miterlimit="10" cx="9.9" cy="9.9" rx="9.5" ry="9.5"/>
	<path fill="#FFFFFF" stroke="#999999" stroke-width="0.7276" stroke-miterlimit="10" d="M9.8,12.6c-5.3-0.1-9.5-1.3-9.5-2.8
		c0-1.5,4.3-2.6,9.6-2.5s9.5,1.3,9.5,2.8S15.1,12.7,9.8,12.6z"/>
	<path fill="#E6E6E6" stroke="#999999" stroke-width="0.7276" stroke-miterlimit="10" d="M9.8,12.6C5,12.5,1,11.5,0.4,10.1
		c-0.1,5,4.4,9.1,9.3,9.2c4.9,0.1,9.5-3.8,9.6-8.9C18.7,11.7,14.7,12.7,9.8,12.6z"/>
	<path fill="#E6E6E6" stroke="#999999" stroke-width="0.7276" stroke-miterlimit="10" d="M0.4,10.1"/>
	<path fill="#E6E6E6" stroke="#999999" stroke-width="0.7276" stroke-miterlimit="10" d="M19.3,10.4"/>
	<polygon fill="#FFFFFF" stroke="#999999" stroke-width="0.7276" stroke-linejoin="round" stroke-miterlimit="10" points="
		41.8,24.3 25.5,24.3 25.5,7.4 41.8,7.9 	"/>
	<polygon fill="#FFFFFF" stroke="#999999" stroke-linejoin="round" stroke-miterlimit="10" points="25.5,7.4 33.2,2.4 48.4,2.4 
		41.8,7.4 	"/>
	<polygon fill="#E6E6E6" stroke="#999999" stroke-linejoin="bevel" stroke-miterlimit="10" points="41.4,7.9 48.4,2.8 48.4,17.9 
		41.4,24.3 	"/>
	<polygon fill="#FFFFFF" stroke="#999999" stroke-width="0.7276" stroke-linejoin="round" stroke-miterlimit="10" points="5.4,28.5 
		22.3,2.4 39.3,28.5 24.8,32.9 	"/>
	<polygon fill="#E6E6E6" stroke="#999999" stroke-width="0.7276" stroke-linejoin="round" stroke-miterlimit="10" points="
		25.1,32.9 22.3,2.4 39.3,28.5 	"/>
</g>
</svg>
