<?xml version="1.0" encoding="utf-8"?>
<!-- Generator: Adobe Illustrator 18.0.0, SVG Export Plug-In . SVG Version: 6.00 Build 0)  -->
<!DOCTYPE svg PUBLIC "-//W3C//DTD SVG 1.1//EN" "http://www.w3.org/Graphics/SVG/1.1/DTD/svg11.dtd">
<svg version="1.1" id="Layer_1" xmlns="http://www.w3.org/2000/svg" xmlns:xlink="http://www.w3.org/1999/xlink" x="0px" y="0px"
	 viewBox="0 0 46.3 46.3" enable-background="new 0 0 46.3 46.3" xml:space="preserve">
<g>
	<defs>
		<path id="SVGID_1_" d="M23.2,46.3l-0.4,0c-6.2-0.1-12-2.6-16.3-7C2.2,34.8-0.1,29,0,22.8C0.2,10.2,10.6,0,23.2,0l0.4,0
			c12.8,0.2,23,10.7,22.8,23.5C46.1,36,35.8,46.3,23.2,46.3z"/>
	</defs>
	<clipPath id="SVGID_2_">
		<use xlink:href="#SVGID_1_"  overflow="visible"/>
	</clipPath>
	<g clip-path="url(#SVGID_2_)">
		<circle fill="#CCCCCC" cx="23.4" cy="23.3" r="17.1"/>
		<g>
			<path fill="#E6E6E6" d="M23.2,46.3l-0.4,0c-6.2-0.1-12-2.6-16.3-7C2.2,34.8-0.1,29,0,22.8C0.2,10.2,10.6,0,23.2,0l0.4,0
				c12.8,0.2,23,10.7,22.8,23.5C46.1,36,35.8,46.3,23.2,46.3z M23.2,4.2c-10.3,0-18.8,8.3-18.9,18.6c-0.1,5,1.8,9.8,5.3,13.4
				c3.5,3.6,8.2,5.7,13.3,5.7l0.3,0c10.3,0,18.8-8.3,18.9-18.6c0.2-10.4-8.2-19-18.6-19.2L23.2,4.2z"/>
		</g>
		<g>
			
				<ellipse transform="matrix(0.9999 1.491686e-02 -1.491686e-02 0.9999 0.3477 -0.343)" fill="#E6E6E6" cx="23.2" cy="23.1" rx="12.1" ry="12.1"/>
			<path fill="#808080" d="M23.1,27.6c-6.7-0.1-12-1.7-12-3.6c0-1.9,5.5-3.3,12.1-3.2c6.7,0.1,12,1.7,12,3.6S29.8,27.7,23.1,27.6z"
				/>
			<g>
				<path fill="#4D4D4D" d="M23.1,27.6c-6.2-0.1-11.2-1.5-11.9-3.1c0.6,6,5.6,10.7,11.8,10.8c6.2,0.1,11.3-4.5,12.1-10.4
					C34.4,26.4,29.3,27.6,23.1,27.6z"/>
				<path fill="#4D4D4D" d="M11.2,24.4"/>
				<path fill="#4D4D4D" d="M35.1,24.8"/>
			</g>
			<g>
				<polygon fill="none" stroke="#FFFFFF" stroke-width="0.5743" stroke-miterlimit="10" points="22,23.5 22.2,12.1 34.3,23.7 				
					"/>
				
					<rect x="22" y="21.1" transform="matrix(0.9999 1.491686e-02 -1.491686e-02 0.9999 0.3355 -0.3473)" fill="none" stroke="#FFFFFF" stroke-width="0.5743" stroke-miterlimit="10" width="2.9" height="2.5"/>
			</g>
		</g>
	</g>
	
		<linearGradient id="SVGID_3_" gradientUnits="userSpaceOnUse" x1="363.9958" y1="-157.3821" x2="403.6813" y2="-157.3821" gradientTransform="matrix(-0.4357 -0.4357 0.7071 -0.7071 293.5329 70.6737)">
		<stop  offset="0" style="stop-color:#FFFFFF;stop-opacity:0.2"/>
		<stop  offset="1" style="stop-color:#FBFBFB;stop-opacity:0"/>
	</linearGradient>
	<polygon clip-path="url(#SVGID_2_)" fill="url(#SVGID_3_)" points="23.7,-11.3 41,6 6.3,40.7 -11,23.4 	"/>
</g>
</svg>
