<?xml version="1.0" encoding="utf-8"?>
<!-- Generator: Adobe Illustrator 18.0.0, SVG Export Plug-In . SVG Version: 6.00 Build 0)  -->
<!DOCTYPE svg PUBLIC "-//W3C//DTD SVG 1.1//EN" "http://www.w3.org/Graphics/SVG/1.1/DTD/svg11.dtd">
<svg version="1.1" id="Layer_1" xmlns="http://www.w3.org/2000/svg" xmlns:xlink="http://www.w3.org/1999/xlink" x="0px" y="0px"
	 width="30px" height="30px" viewBox="0 0 30 30" enable-background="new 0 0 30 30" xml:space="preserve">
<g id="geom_gray">
	<g>
		<g>
			<circle fill="#565C5C" cx="14.8" cy="14.9" r="13.4"/>
		</g>
		<g>
			<g opacity="0.5">
				<path fill="#010101" d="M1.9,15.5c0,6.9,5.8,12.4,12.9,12.4c6.6,0,12.1-4.9,12.8-11.1c-1.1,1.7-6.3,3-12.6,3
					c-7.1,0-12.8-1.6-12.8-3.7"/>
			</g>
		</g>
		<g>
			<ellipse fill="#444747" cx="14.9" cy="16" rx="13" ry="3.9"/>
		</g>
		<g>
			<g>
				<path fill="#FFFFFF" d="M28.5,15.8H27v-0.5h0.3L27,14.9l0.4-0.3L28.5,15.8z M25.1,15.8h-2v-0.5h2V15.8z M21.1,15.8h-2v-0.5h2
					V15.8z M17.1,15.8h-2v-0.5h2V15.8z M14.7,15.5h-0.5v-2h0.5V15.5z M25.6,13.5L24.2,12l0.4-0.3l1.4,1.4L25.6,13.5z M14.7,11.5
					h-0.5v-2h0.5V11.5z M22.8,10.6l-1.4-1.4l0.4-0.3l1.4,1.4L22.8,10.6z M20,7.7l-1.4-1.4L19,5.9l1.4,1.4L20,7.7z M14.7,7.5h-0.5v-2
					h0.5V7.5z M17.2,4.8l-1.4-1.4l0.4-0.3l1.4,1.4L17.2,4.8z M14.7,3.5h-0.5V1l0.5,0.6l-0.1,0.1l0,0L14.7,3.5z"/>
			</g>
			<g>
				<path fill="#FFFFFF" d="M17.2,15.8h-3V13h3V15.8z M14.7,15.3h2v-1.8h-2C14.7,13.5,14.7,15.3,14.7,15.3z"/>
			</g>
		</g>
		<g>
			<path fill="#FFFFFF" d="M14.8,28.8c-7.6,0-13.9-6.2-13.9-13.9S7.2,1,14.8,1s13.9,6.2,13.9,13.9S22.5,28.8,14.8,28.8z M14.8,2
				C7.7,2,1.9,7.8,1.9,14.9s5.8,12.9,12.9,12.9S27.7,22,27.7,14.9C27.7,7.8,21.9,2,14.8,2z"/>
		</g>
	</g>
</g>
</svg>
