<?xml version="1.0" encoding="utf-8"?>
<!-- Generator: Adobe Illustrator 18.0.0, SVG Export Plug-In . SVG Version: 6.00 Build 0)  -->
<!DOCTYPE svg PUBLIC "-//W3C//DTD SVG 1.1//EN" "http://www.w3.org/Graphics/SVG/1.1/DTD/svg11.dtd">
<svg version="1.1" id="Layer_1" xmlns="http://www.w3.org/2000/svg" xmlns:xlink="http://www.w3.org/1999/xlink" x="0px" y="0px"
	 width="30px" height="30px" viewBox="0 0 30 30" enable-background="new 0 0 30 30" xml:space="preserve">
<g id="images_gray">
	<g>
		<g>
			<g>
				<polygon fill="#646868" points="4.1,27.5 2.8,27.5 3.3,26.4 3.7,26.5 4.1,26.5 4.1,26.7 4.2,26.8 4.1,27.2 				"/>
			</g>
			<g>
				<path fill="#646868" d="M4.7,25.9l-0.9-0.4l0.4-0.9L5.1,25L4.7,25.9z M5.6,24l-0.9-0.4l0.4-0.9L6,23.1L5.6,24z M6.4,22.1
					l-0.9-0.4L6,20.8l0.9,0.4L6.4,22.1z M7.3,20.2l-0.9-0.4l0.4-0.9l0.9,0.4L7.3,20.2z M8.2,18.4L7.3,18l0.4-1l0.9,0.4L8.2,18.4z
					 M9.1,16.5l-0.9-0.4l0.4-0.9l0.9,0.4L9.1,16.5z M10,14.6l-1-0.4l0.4-0.9l0.9,0.4L10,14.6z M10.8,12.8l-0.9-0.4l0.4-0.9l0.9,0.4
					L10.8,12.8z M11.7,10.9l-0.9-0.4l0.4-0.9l0.9,0.4L11.7,10.9z M12.6,9l-0.9-0.4l0.4-0.9L13,8.1L12.6,9z M13.5,7.1l-0.9-0.4
					L13,5.8l0.9,0.4L13.5,7.1z M14.4,5.3l-0.9-0.4L13.9,4l0.9,0.4L14.4,5.3z"/>
			</g>
			<g>
				<polygon fill="#646868" points="15.2,3.4 15,3.3 14.8,3.4 14.6,3.1 14.3,3 15,1.6 15.7,3 15.4,3.1 				"/>
			</g>
			<g>
				<path fill="#646868" d="M25.3,25.9L24.9,25l0.9-0.4l0.4,0.9L25.3,25.9z M24.5,24L24,23.1l0.9-0.4l0.4,0.9L24.5,24z M23.6,22.1
					l-0.4-0.9l0.9-0.4l0.4,0.9L23.6,22.1z M22.7,20.2l-0.4-0.9l0.9-0.4l0.4,0.9L22.7,20.2z M21.8,18.4l-0.4-0.9l0.9-0.4l0.4,0.9
					L21.8,18.4z M20.9,16.5l-0.4-0.9l0.9-0.4l0.4,0.9L20.9,16.5z M20,14.6l-0.4-0.9l0.9-0.4l0.4,0.9L20,14.6z M19.2,12.8l-0.4-0.9
					l0.9-0.4l0.4,0.9L19.2,12.8z M18.3,10.9L17.9,10l0.9-0.4l0.4,0.9L18.3,10.9z M17.4,9L17,8.1l0.9-0.4l0.4,0.9L17.4,9z M16.5,7.1
					l-0.4-0.9L17,5.8l0.4,0.9L16.5,7.1z M15.6,5.3l-0.4-0.9L16.1,4l0.4,0.9L15.6,5.3z"/>
			</g>
			<g>
				<polygon fill="#646868" points="27.2,27.5 25.9,27.5 25.9,27.2 25.8,26.8 25.9,26.7 25.9,26.5 26.3,26.5 26.7,26.4 				"/>
			</g>
			<g>
				<path fill="#646868" d="M24.9,27.5h-1v-1h1V27.5z M22.8,27.5h-1v-1h1V27.5z M20.7,27.5h-1v-1h1V27.5z M18.6,27.5h-1v-1h1V27.5z
					 M16.6,27.5h-1v-1h1V27.5z M14.5,27.5h-1v-1h1V27.5z M12.4,27.5h-1v-1h1V27.5z M10.3,27.5h-1v-1h1V27.5z M8.2,27.5h-1v-1h1V27.5
					z M6.1,27.5h-1v-1h1V27.5z"/>
			</g>
		</g>
		<rect x="2" y="9.5" fill="#646868" width="26" height="19"/>
		<circle fill="#FFFFFF" cx="15" cy="2.6" r="1.1"/>
		<rect x="2" y="23.1" fill="#565C5C" width="26" height="5.4"/>
		<polygon fill="#FFFFFF" points="23.5,15.9 21.6,15.9 21.6,14 19.8,14 19.8,15.9 17.9,15.9 17.9,17.7 19.8,17.7 19.8,19.6 
			21.6,19.6 21.6,17.7 23.5,17.7 		"/>
		<polygon fill="#FFFFFF" points="16.6,13.5 15.5,13.5 15.5,12.4 14.6,12.4 14.6,13.5 13.5,13.5 13.5,14.4 14.6,14.4 14.6,15.5 
			15.5,15.5 15.5,14.4 16.6,14.4 		"/>
		<polygon fill="#FFFFFF" points="12.1,15.6 11.3,15.6 11.3,14.8 10.6,14.8 10.6,15.6 9.8,15.6 9.8,16.4 10.6,16.4 10.6,17.2 
			11.3,17.2 11.3,16.4 12.1,16.4 		"/>
		<g>
			<polygon fill="#FFFFFF" points="5.9,28.5 11.6,18.6 17.3,28.5 			"/>
			<polygon fill="#FFFFFF" points="2.6,28.5 7.4,20.1 12.2,28.5 			"/>
		</g>
	</g>
</g>
</svg>
