<?xml version="1.0" encoding="utf-8"?>
<!-- Generator: Adobe Illustrator 18.0.0, SVG Export Plug-In . SVG Version: 6.00 Build 0)  -->
<!DOCTYPE svg PUBLIC "-//W3C//DTD SVG 1.1//EN" "http://www.w3.org/Graphics/SVG/1.1/DTD/svg11.dtd">
<svg version="1.1" id="Layer_1" xmlns="http://www.w3.org/2000/svg" xmlns:xlink="http://www.w3.org/1999/xlink" x="0px" y="0px"
	 viewBox="0 0 46.7 27" enable-background="new 0 0 46.7 27" xml:space="preserve">
<g>
	<g>
		<polygon fill="#CCCCCC" points="23.5,25.9 40.3,25.9 46.7,18.9 35.5,18.9 		"/>
	</g>
	<g>
		<polyline fill="#E6E6E6" points="40.4,0.4 40.4,26.7 0.3,26.7 		"/>
	</g>
	<g>
		<path fill="#999999" d="M39,27H1.8c-1,0-1.8-0.8-1.8-1.8V9h40.7v16.2C40.7,26.2,40,27,39,27z M0.6,9.6v15.7c0,0.6,0.5,1.2,1.2,1.2
			H39c0.6,0,1.2-0.5,1.2-1.2V9.6H0.6z"/>
	</g>
	<g>
		<path fill="#999999" d="M40.4,9.3h-40V1.8C0.4,1,1,0.4,1.8,0.4h37.1c0.8,0,1.5,0.7,1.5,1.5V9.3z"/>
		<path fill="#999999" d="M40.8,9.7H0V1.8C0,0.8,0.8,0,1.8,0h37.1c1,0,1.8,0.8,1.8,1.8V9.7z M0.7,9H40V1.8c0-0.6-0.5-1.1-1.1-1.1
			H1.8c-0.6,0-1.1,0.5-1.1,1.1V9z"/>
	</g>
</g>
</svg>
