<?xml version="1.0" encoding="utf-8"?>
<!-- Generator: Adobe Illustrator 18.0.0, SVG Export Plug-In . SVG Version: 6.00 Build 0)  -->
<!DOCTYPE svg PUBLIC "-//W3C//DTD SVG 1.1//EN" "http://www.w3.org/Graphics/SVG/1.1/DTD/svg11.dtd">
<svg version="1.1" id="Layer_1" xmlns="http://www.w3.org/2000/svg" xmlns:xlink="http://www.w3.org/1999/xlink" x="0px" y="0px"
	 viewBox="0 0 61.5 61.5" enable-background="new 0 0 61.5 61.5" xml:space="preserve">
<g>
	<g>
		<circle fill-rule="evenodd" clip-rule="evenodd" fill="#2D3333" cx="30.7" cy="30.8" r="30.7"/>
		<circle fill="#A41E22" cx="30.7" cy="30.8" r="25.1"/>
	</g>
	<g>
		<g>
			<path fill-rule="evenodd" clip-rule="evenodd" fill="#A63C2D" d="M19.5,36.4c-2.9,0-3.8-2.4-3.8-4.1c0-1.7,0.9-4.1,3.8-4.1
				c2.9,0,3.8,2.4,3.8,4.1C23.2,34.1,22.3,36.4,19.5,36.4L19.5,36.4z M19.5,29.3c-1.7,0-2.7,1.3-2.7,3.1c0,1.8,1,3.1,2.7,3.1
				c1.7,0,2.7-1.3,2.7-3.1C22.2,30.6,21.1,29.3,19.5,29.3L19.5,29.3z M23.8,31.3h0.8V32h0c0.2-0.3,0.6-0.8,1.5-0.8
				c1.3,0,2.2,1.1,2.2,2.5c0,1.2-0.7,2.7-2.4,2.7c-0.7,0-1.1-0.3-1.3-0.7h0v2.5h-0.8V31.3L23.8,31.3z M25.9,35.7
				c0.9,0,1.5-0.8,1.5-1.9c0-0.6-0.3-1.9-1.5-1.9c-1.2,0-1.3,1.3-1.3,2.1C24.5,35.3,25.4,35.7,25.9,35.7L25.9,35.7z M33.3,34.7
				c0,0.2-0.3,0.9-0.9,1.3c-0.2,0.2-0.5,0.3-1.3,0.3c-1.4,0-2.2-1-2.2-2.5c0-1.5,0.7-2.7,2.4-2.7c1.4,0,2.1,1.1,2.1,2.9h-3.6
				c0,1,0.5,1.6,1.4,1.6c0.8,0,1.2-0.6,1.3-1H33.3L33.3,34.7z M32.4,33.4c0-0.8-0.4-1.5-1.4-1.5c-0.8,0-1.4,0.7-1.4,1.5H32.4
				L32.4,33.4z M38,36.2h-0.8v-3c0-0.9-0.2-1.3-1.1-1.3c-0.5,0-1.3,0.3-1.3,1.6v2.7H34v-4.9h0.8V32h0c0.2-0.3,0.6-0.8,1.5-0.8
				c0.8,0,1.7,0.3,1.7,1.7V36.2L38,36.2z"/>
			<path fill-rule="evenodd" clip-rule="evenodd" fill="#A63C2D" d="M42.8,32.1H46v4.1h-1.1l-0.2-1c-0.4,0.5-1,1.2-2.4,1.2
				c-1.9,0-3.5-1.3-3.5-4c0-2.1,1.2-4.1,3.8-4.1c2.4,0,3.3,1.5,3.4,2.6h-1.6c0-0.3-0.5-1.3-1.7-1.3c-1.1,0-2.2,0.8-2.2,2.8
				c0,2.1,1.1,2.6,2.2,2.6c0.4,0,1.5-0.1,1.9-1.7h-1.8V32.1L42.8,32.1z"/>
			<path fill-rule="evenodd" clip-rule="evenodd" fill="#A63C2D" d="M10.9,32.1c0,4.6,7.1,9.2,16.2,9.2c9.1,0,13.7-4.3,13.7-4.3
				c0.7-0.7-0.4-0.3-0.4-0.3c-1.6,1-6.4,3.3-13.7,2.4c-7.8-1-10.3-3.1-10.7-5.3l-0.2-1.2c0-0.8,0.1-1.7,0.5-2.6
				c0.8-1.7,3.2-4.1,10.4-4.8c7.4-0.7,12.1,1.4,13.7,2.4c0,0,1.1,0.5,0.4-0.3c0,0-4.6-4.3-13.7-4.3C18,22.9,10.8,27.5,10.9,32.1
				L10.9,32.1z"/>
			<polygon fill-rule="evenodd" clip-rule="evenodd" fill="#A63C2D" points="48.7,34.8 52.5,34.8 52.5,36.2 47.1,36.2 47.1,28.5 
				48.7,28.5 48.7,34.8 			"/>
			<path fill-rule="evenodd" clip-rule="evenodd" fill="#A63C2D" d="M53.4,35.6L53.4,35.6l-0.2,0.1v0.6h-0.1v-0.6h-0.2v-0.1H53.4
				L53.4,35.6z M53.6,35.6l0.2,0.5h0l0.2-0.5h0.1v0.7H54v-0.6h0l-0.2,0.6h-0.1L53.6,35.6L53.6,35.6l-0.1,0.7h-0.1v-0.7H53.6
				L53.6,35.6z"/>
		</g>
	</g>
	<g>
		<g>
			<path fill-rule="evenodd" clip-rule="evenodd" fill="#FFFFFF" d="M18.5,35.4c-2.9,0-3.8-2.4-3.8-4.1c0-1.7,0.9-4.1,3.8-4.1
				c2.9,0,3.8,2.4,3.8,4.1C22.2,33.1,21.3,35.4,18.5,35.4L18.5,35.4z M18.5,28.3c-1.7,0-2.7,1.3-2.7,3.1c0,1.8,1,3.1,2.7,3.1
				c1.7,0,2.7-1.3,2.7-3.1C21.2,29.6,20.1,28.3,18.5,28.3L18.5,28.3z M22.8,30.3h0.8V31h0c0.2-0.3,0.6-0.8,1.5-0.8
				c1.3,0,2.2,1.1,2.2,2.5c0,1.2-0.7,2.7-2.4,2.7c-0.7,0-1.1-0.3-1.3-0.7h0v2.5h-0.8V30.3L22.8,30.3z M24.9,34.7
				c0.9,0,1.5-0.8,1.5-1.9c0-0.6-0.3-1.9-1.5-1.9c-1.2,0-1.3,1.3-1.3,2.1C23.5,34.3,24.4,34.7,24.9,34.7L24.9,34.7z M32.3,33.7
				c0,0.2-0.3,0.9-0.9,1.3c-0.2,0.2-0.5,0.3-1.3,0.3c-1.4,0-2.2-1-2.2-2.5c0-1.5,0.7-2.7,2.4-2.7c1.4,0,2.1,1.1,2.1,2.9h-3.6
				c0,1,0.5,1.6,1.4,1.6c0.8,0,1.2-0.6,1.3-1H32.3L32.3,33.7z M31.4,32.4c0-0.8-0.4-1.5-1.4-1.5c-0.8,0-1.4,0.7-1.4,1.5H31.4
				L31.4,32.4z M37,35.2h-0.8v-3c0-0.9-0.2-1.3-1.1-1.3c-0.5,0-1.3,0.3-1.3,1.6v2.7H33v-4.9h0.8V31h0c0.2-0.3,0.6-0.8,1.5-0.8
				c0.8,0,1.7,0.3,1.7,1.7V35.2L37,35.2z"/>
			<path fill-rule="evenodd" clip-rule="evenodd" fill="#FFFFFF" d="M41.8,31.1H45v4.1h-1.1l-0.2-1c-0.4,0.5-1,1.2-2.4,1.2
				c-1.9,0-3.5-1.3-3.5-4c0-2.1,1.2-4.1,3.8-4.1c2.4,0,3.3,1.5,3.4,2.6h-1.6c0-0.3-0.5-1.3-1.7-1.3c-1.1,0-2.2,0.8-2.2,2.8
				c0,2.1,1.1,2.6,2.2,2.6c0.4,0,1.5-0.1,1.9-1.7h-1.8V31.1L41.8,31.1z"/>
			<path fill-rule="evenodd" clip-rule="evenodd" fill="#FFFFFF" d="M9.9,31.1c0,4.6,7.1,9.2,16.2,9.2c9.1,0,13.7-4.3,13.7-4.3
				c0.7-0.7-0.4-0.3-0.4-0.3c-1.6,1-6.4,3.3-13.7,2.4c-7.8-1-10.3-3.1-10.7-5.3l-0.2-1.2c0-0.8,0.1-1.7,0.5-2.6
				c0.8-1.7,3.2-4.1,10.4-4.8c7.4-0.7,12.1,1.4,13.7,2.4c0,0,1.1,0.5,0.4-0.3c0,0-4.6-4.3-13.7-4.3C17,21.9,9.8,26.5,9.9,31.1
				L9.9,31.1z"/>
			<polygon fill-rule="evenodd" clip-rule="evenodd" fill="#FFFFFF" points="47.7,33.8 51.5,33.8 51.5,35.2 46.1,35.2 46.1,27.5 
				47.7,27.5 47.7,33.8 			"/>
			<path fill-rule="evenodd" clip-rule="evenodd" fill="#FFFFFF" d="M52.4,34.6L52.4,34.6l-0.2,0.1v0.6h-0.1v-0.6h-0.2v-0.1H52.4
				L52.4,34.6z M52.6,34.6l0.2,0.5h0l0.2-0.5h0.1v0.7H53v-0.6h0l-0.2,0.6h-0.1L52.6,34.6L52.6,34.6l-0.1,0.7h-0.1v-0.7H52.6
				L52.6,34.6z"/>
		</g>
	</g>
	<g>
		<defs>
			<circle id="SVGID_1_" cx="30.8" cy="30.7" r="30.7"/>
		</defs>
		<clipPath id="SVGID_2_">
			<use xlink:href="#SVGID_1_"  overflow="visible"/>
		</clipPath>
		
			<linearGradient id="SVGID_3_" gradientUnits="userSpaceOnUse" x1="284.1796" y1="-15.4365" x2="337.7079" y2="-15.4365" gradientTransform="matrix(-0.4255 -0.4255 0.7071 -0.7071 162.8813 141.8786)">
			<stop  offset="0" style="stop-color:#FFFFFF;stop-opacity:0.05"/>
			<stop  offset="1" style="stop-color:#FBFBFB;stop-opacity:0"/>
		</linearGradient>
		<polygon clip-path="url(#SVGID_2_)" fill="url(#SVGID_3_)" points="31.6,-14.3 54.4,8.5 7.7,55.2 -15.1,32.5 		"/>
	</g>
</g>
</svg>
