<?xml version="1.0" encoding="utf-8"?>
<!-- Generator: Adobe Illustrator 18.0.0, SVG Export Plug-In . SVG Version: 6.00 Build 0)  -->
<!DOCTYPE svg PUBLIC "-//W3C//DTD SVG 1.1//EN" "http://www.w3.org/Graphics/SVG/1.1/DTD/svg11.dtd">
<svg version="1.1" id="Layer_1" xmlns="http://www.w3.org/2000/svg" xmlns:xlink="http://www.w3.org/1999/xlink" x="0px" y="0px"
	 viewBox="0 0 46 46" enable-background="new 0 0 46 46" xml:space="preserve">
<g>
	<defs>
		<path id="SVGID_1_" d="M23,45.9l-0.4,0c-6.1-0.1-11.9-2.6-16.2-7C2.2,34.6-0.1,28.8,0,22.6C0.2,10.1,10.5,0,23,0l0.3,0
			C36,0.2,46.2,10.6,46,23.3C45.8,35.8,35.5,45.9,23,45.9z"/>
	</defs>
	<clipPath id="SVGID_2_">
		<use xlink:href="#SVGID_1_"  overflow="visible"/>
	</clipPath>
	<g clip-path="url(#SVGID_2_)">
		<circle fill="#CCCCCC" cx="23" cy="23" r="17.3"/>
		<g>
			<path fill="#E6E6E6" d="M23,46C10.3,46,0,35.7,0,23C0,10.3,10.3,0,23,0c12.7,0,23,10.3,23,23C46,35.7,35.7,46,23,46z M23,4.2
				C12.6,4.2,4.2,12.6,4.2,23S12.6,41.8,23,41.8S41.8,33.4,41.8,23S33.4,4.2,23,4.2z"/>
		</g>
		<g>
			<g>
				<path fill="#808080" d="M18.6,31.9c-0.4-0.1-0.4-1.6-0.8-1.8c-0.4-0.1-1.3,1.1-1.7,0.9c-0.4-0.2,0-1.7-0.4-1.9
					c-0.3-0.2-1.6,0.8-1.9,0.5c-0.3-0.3,0.4-1.6,0.1-1.9c-0.3-0.3-1.7,0.4-1.9,0c-0.2-0.3,0.8-1.5,0.6-1.8c-0.2-0.4-1.7,0-1.9-0.4
					c-0.2-0.4,1.1-1.3,1-1.7c-0.1-0.4-1.7-0.5-1.7-0.9c-0.1-0.4,1.4-0.9,1.4-1.4c0-0.4-1.5-0.9-1.5-1.3c0-0.4,1.6-0.6,1.7-1
					c0.1-0.4-1.2-1.2-1.1-1.6c0.1-0.4,1.7-0.2,1.9-0.6c0.2-0.4-0.9-1.5-0.7-1.8c0.2-0.3,1.7,0.2,1.9-0.1c0.3-0.3-0.5-1.6-0.2-1.9
					c0.3-0.3,1.6,0.6,1.9,0.4c0.3-0.2-0.1-1.7,0.2-1.9c0.4-0.2,1.4,1,1.8,0.8c0.4-0.2,0.3-1.7,0.7-1.8c0.4-0.1,1.1,1.3,1.5,1.2
					c0.4-0.1,0.7-1.6,1.1-1.6c0.4,0,0.8,1.5,1.2,1.5c0.4,0,1-1.4,1.4-1.3c0.4,0.1,0.4,1.6,0.8,1.8c0.4,0.1,1.3-1.1,1.7-0.9
					c0.4,0.2,0,1.7,0.4,1.9c0.3,0.2,1.6-0.8,1.9-0.5c0.3,0.3-0.4,1.6-0.1,1.9c0.3,0.3,1.7-0.4,1.9,0c0.2,0.3-0.8,1.5-0.6,1.8
					s1.7,0,1.9,0.4c0.2,0.4-1.1,1.3-1,1.7c0.1,0.4,1.7,0.5,1.7,0.9c0.1,0.4-1.4,0.9-1.4,1.4c0,0.4,1.5,0.9,1.5,1.3
					c0,0.4-1.6,0.6-1.7,1c-0.1,0.4,1.2,1.2,1.1,1.6c-0.1,0.4-1.7,0.2-1.9,0.6c-0.2,0.4,0.9,1.5,0.7,1.8c-0.2,0.3-1.7-0.2-1.9,0.1
					c-0.3,0.3,0.5,1.6,0.2,1.9c-0.3,0.3-1.6-0.6-1.9-0.4c-0.3,0.2,0.1,1.7-0.2,1.9c-0.4,0.2-1.4-1-1.8-0.8c-0.4,0.2-0.3,1.7-0.7,1.8
					c-0.4,0.1-1.1-1.3-1.5-1.2c-0.4,0.1-0.7,1.6-1.1,1.6c-0.4,0-0.8-1.5-1.2-1.5C19.6,30.6,19,32,18.6,31.9z"/>
				<g>
					<path fill="#F2F2F2" d="M19.2,28.8c-4.2-0.9-6.9-4.9-6-9.1c0.9-4.1,5-6.8,9.2-5.9s6.9,4.9,6,9.1S23.4,29.7,19.2,28.8z"/>
				</g>
			</g>
			<rect x="19.7" y="13.6" fill="#808080" width="1.3" height="15.7"/>
			<rect x="12.2" y="21.1" fill="#808080" width="16.7" height="0.9"/>
			<circle fill="#4D4D4D" cx="20.6" cy="21.4" r="2.8"/>
		</g>
		<g>
			<path fill="#4D4D4D" d="M32.9,33.4c-0.4,0.2-1.1-0.8-1.5-0.7c-0.4,0.1-0.6,1.3-1,1.3c-0.4,0-0.7-1.2-1.1-1.3
				c-0.4-0.1-1.1,0.9-1.5,0.8c-0.4-0.2-0.1-1.4-0.4-1.6c-0.3-0.2-1.4,0.4-1.7,0c-0.3-0.3,0.5-1.3,0.3-1.6c-0.2-0.4-1.4-0.3-1.5-0.7
				c-0.1-0.4,1-0.9,1-1.3c0-0.4-1.1-0.9-1.1-1.3c0.1-0.4,1.3-0.4,1.5-0.8c0.2-0.4-0.6-1.3-0.4-1.6c0.2-0.3,1.4,0.2,1.7,0
				c0.3-0.2,0-1.4,0.3-1.6c0.4-0.2,1.1,0.8,1.5,0.7c0.4-0.1,0.6-1.3,1-1.3c0.4,0,0.7,1.2,1.1,1.3c0.4,0.1,1.1-0.9,1.5-0.8
				c0.4,0.2,0.1,1.4,0.4,1.6c0.3,0.2,1.4-0.4,1.7,0c0.3,0.3-0.5,1.3-0.3,1.6c0.2,0.4,1.4,0.3,1.5,0.7c0.1,0.4-1,0.9-1,1.3
				c0,0.4,1.1,0.9,1.1,1.3c-0.1,0.4-1.3,0.4-1.5,0.8c-0.2,0.4,0.6,1.3,0.4,1.6c-0.2,0.3-1.4-0.2-1.7,0C32.9,32,33.2,33.2,32.9,33.4z
				"/>
			<path fill="#FFFFFF" d="M31.8,31.3c-1.7,0.9-3.9,0.2-4.8-1.5c-0.9-1.7-0.2-3.8,1.5-4.7c1.7-0.9,3.9-0.2,4.8,1.5
				S33.5,30.4,31.8,31.3z"/>
			<path fill="#808080" d="M31,29.8c-0.9,0.5-2,0.1-2.5-0.8c-0.5-0.9-0.1-2,0.8-2.5c0.9-0.5,2-0.1,2.5,0.8S31.9,29.3,31,29.8z"/>
		</g>
	</g>
	
		<linearGradient id="SVGID_3_" gradientUnits="userSpaceOnUse" x1="363.8314" y1="-157.5164" x2="403.5168" y2="-157.5164" gradientTransform="matrix(-0.4357 -0.4357 0.7071 -0.7071 293.3917 70.3728)">
		<stop  offset="0" style="stop-color:#FFFFFF;stop-opacity:0.2"/>
		<stop  offset="1" style="stop-color:#FBFBFB;stop-opacity:0"/>
	</linearGradient>
	<polygon clip-path="url(#SVGID_2_)" fill="url(#SVGID_3_)" points="23.5,-11.4 40.8,5.9 6.1,40.5 -11.2,23.3 	"/>
</g>
</svg>
