<?xml version="1.0" encoding="utf-8"?>
<!-- Generator: Adobe Illustrator 18.0.0, SVG Export Plug-In . SVG Version: 6.00 Build 0)  -->
<!DOCTYPE svg PUBLIC "-//W3C//DTD SVG 1.1//EN" "http://www.w3.org/Graphics/SVG/1.1/DTD/svg11.dtd">
<svg version="1.1" id="Layer_2" xmlns="http://www.w3.org/2000/svg" xmlns:xlink="http://www.w3.org/1999/xlink" x="0px" y="0px"
	 viewBox="0 0 61.5 61.5" enable-background="new 0 0 61.5 61.5" xml:space="preserve">
<g>
	<g>
		<g>
			<circle fill-rule="evenodd" clip-rule="evenodd" fill="#2D3333" cx="30.7" cy="30.7" r="30.7"/>
			<circle fill="#A41C12" cx="30.7" cy="30.7" r="25.1"/>
		</g>
		<g>
			<g>
				<g>
					<path fill="#D65037" d="M25.2,41.9c-0.5-0.1-0.5-2.1-1-2.2c-0.5-0.2-1.7,1.4-2.1,1.2c-0.5-0.2,0-2.1-0.4-2.4
						c-0.4-0.3-1.9,1-2.3,0.6c-0.4-0.3,0.5-2.1,0.1-2.4c-0.4-0.4-2.1,0.5-2.4,0.1c-0.3-0.4,1-1.9,0.7-2.3s-2.2-0.1-2.4-0.5
						c-0.2-0.5,1.4-1.6,1.3-2.1c-0.1-0.5-2.1-0.6-2.2-1.1c-0.1-0.5,1.7-1.2,1.7-1.7c0-0.5-1.9-1.1-1.8-1.6c0-0.5,2-0.7,2.1-1.2
						c0.1-0.5-1.6-1.5-1.4-2c0.2-0.5,2.1-0.2,2.3-0.7c0.2-0.5-1.2-1.8-0.9-2.3c0.3-0.4,2.1,0.3,2.4-0.1c0.3-0.4-0.7-2.1-0.3-2.4
						c0.4-0.3,2,0.8,2.4,0.5c0.4-0.3-0.2-2.2,0.3-2.4c0.4-0.2,1.7,1.2,2.2,1c0.5-0.2,0.3-2.1,0.8-2.3c0.5-0.1,1.4,1.6,1.9,1.5
						c0.5-0.1,0.8-2,1.4-2c0.5,0,1,1.9,1.5,1.9c0.5,0,1.3-1.7,1.8-1.6c0.5,0.1,0.5,2.1,1,2.2c0.5,0.2,1.7-1.4,2.1-1.2
						c0.5,0.2,0,2.1,0.4,2.4c0.4,0.3,1.9-1,2.3-0.6c0.4,0.3-0.5,2.1-0.1,2.4c0.4,0.4,2.1-0.5,2.4-0.1c0.3,0.4-1,1.9-0.7,2.3
						s2.2,0.1,2.4,0.5c0.2,0.5-1.4,1.6-1.3,2.1c0.1,0.5,2.1,0.6,2.2,1.1c0.1,0.5-1.7,1.2-1.7,1.7c0,0.5,1.9,1.1,1.8,1.6
						c0,0.5-2,0.7-2.1,1.2c-0.1,0.5,1.6,1.5,1.4,2c-0.2,0.5-2.1,0.2-2.3,0.7c-0.2,0.5,1.2,1.8,0.9,2.3c-0.3,0.4-2.1-0.3-2.4,0.1
						c-0.3,0.4,0.7,2.1,0.3,2.4c-0.4,0.3-2-0.8-2.4-0.5c-0.4,0.3,0.2,2.2-0.3,2.4c-0.4,0.2-1.7-1.2-2.2-1c-0.5,0.2-0.3,2.1-0.8,2.3
						c-0.5,0.1-1.4-1.6-1.9-1.5c-0.5,0.1-0.8,2-1.4,2c-0.5,0-1-1.9-1.5-1.9C26.5,40.2,25.7,42,25.2,41.9z"/>
				</g>
				<g>
					<path fill="#FFFFFF" d="M26,38c-5.3-1.1-8.6-6.2-7.5-11.4s6.3-8.5,11.5-7.4c5.3,1.1,8.6,6.2,7.5,11.4S31.3,39.1,26,38z"/>
				</g>
			</g>
			<rect x="26.9" y="18.9" fill="#D65037" width="1.6" height="19.7"/>
			<rect x="17.4" y="28.4" fill="#D65037" width="20.9" height="1.2"/>
			<circle fill="#A53B2D" cx="27.8" cy="28.8" r="3.5"/>
		</g>
		<g>
			<g>
				<path fill="#6D261D" d="M43.1,45.6c-0.5,0.2-1.4-1-1.9-0.9c-0.5,0.1-0.8,1.7-1.3,1.7c-0.5,0-0.9-1.5-1.4-1.6
					c-0.5-0.1-1.4,1.2-1.9,1c-0.5-0.2-0.1-1.7-0.5-2c-0.4-0.3-1.8,0.4-2.1,0.1c-0.3-0.4,0.6-1.6,0.4-2.1c-0.2-0.4-1.8-0.4-1.9-0.9
					c-0.1-0.5,1.3-1.2,1.3-1.7c0-0.5-1.4-1.1-1.3-1.6c0.1-0.5,1.7-0.5,1.9-0.9c0.2-0.4-0.8-1.6-0.5-2c0.3-0.4,1.7,0.3,2.1,0
					c0.4-0.3,0-1.8,0.4-2c0.5-0.2,1.4,1,1.9,0.9c0.5-0.1,0.8-1.7,1.3-1.7c0.5,0,0.9,1.5,1.4,1.6c0.5,0.1,1.4-1.2,1.9-1
					c0.5,0.2,0.1,1.7,0.5,2c0.4,0.3,1.8-0.4,2.1-0.1c0.3,0.4-0.6,1.6-0.4,2.1c0.2,0.4,1.8,0.4,1.9,0.9c0.1,0.5-1.3,1.2-1.3,1.7
					c0,0.5,1.4,1.1,1.3,1.6c-0.1,0.5-1.7,0.5-1.9,0.9c-0.2,0.4,0.8,1.6,0.5,2c-0.3,0.4-1.7-0.3-2.1,0C43.2,43.9,43.6,45.4,43.1,45.6
					z"/>
			</g>
			<path fill="#FFFFFF" d="M41.8,43c-2.2,1.1-4.8,0.3-6-1.9c-1.1-2.1-0.3-4.8,1.9-5.9c2.2-1.1,4.8-0.3,6,1.9
				C44.8,39.2,44,41.9,41.8,43z"/>
			<path fill="#A53B2D" d="M40.8,41.1c-1.1,0.6-2.5,0.1-3.1-1c-0.6-1.1-0.1-2.5,1-3.1c1.1-0.6,2.5-0.1,3.1,1
				C42.4,39.2,42,40.5,40.8,41.1z"/>
		</g>
	</g>
	<g>
		<defs>
			<circle id="SVGID_1_" cx="30.8" cy="30.7" r="30.7"/>
		</defs>
		<clipPath id="SVGID_2_">
			<use xlink:href="#SVGID_1_"  overflow="visible"/>
		</clipPath>
		
			<linearGradient id="SVGID_3_" gradientUnits="userSpaceOnUse" x1="249.0141" y1="-20.7777" x2="302.5423" y2="-20.7777" gradientTransform="matrix(-0.4255 -0.4255 0.7071 -0.7071 151.6678 123.1214)">
			<stop  offset="0" style="stop-color:#FFFFFF;stop-opacity:0.05"/>
			<stop  offset="1" style="stop-color:#FBFBFB;stop-opacity:0"/>
		</linearGradient>
		<polygon clip-path="url(#SVGID_2_)" fill="url(#SVGID_3_)" points="31.6,-14.3 54.4,8.5 7.6,55.2 -15.1,32.5 		"/>
	</g>
</g>
</svg>
