<?xml version="1.0" encoding="utf-8"?>
<!-- Generator: Adobe Illustrator 18.0.0, SVG Export Plug-In . SVG Version: 6.00 Build 0)  -->
<!DOCTYPE svg PUBLIC "-//W3C//DTD SVG 1.1//EN" "http://www.w3.org/Graphics/SVG/1.1/DTD/svg11.dtd">
<svg version="1.1" id="Layer_1" xmlns="http://www.w3.org/2000/svg" xmlns:xlink="http://www.w3.org/1999/xlink" x="0px" y="0px"
	 width="30px" height="30px" viewBox="0 0 30 30" enable-background="new 0 0 30 30" xml:space="preserve">
<g id="video_gray">
	<g>
		<rect x="2.7" y="11.7" fill="#646868" width="24.5" height="16.3"/>
		<polygon fill="#FFFFFF" points="25.3,2.1 1.7,7 2.8,11.4 26.3,6.5 		"/>
		<g>
			<polygon fill="#565C5C" points="2.4,6.8 1.8,7.4 2.2,9.3 5,6.2 			"/>
			<polygon fill="#565C5C" points="7.7,5.7 2.7,11.2 2.8,11.5 5,11 10.3,5.1 			"/>
			<polygon fill="#565C5C" points="13.1,4.5 7.7,10.4 10.4,9.9 15.8,4 			"/>
			<polygon fill="#565C5C" points="18.2,3.5 13,9.3 15.6,8.8 20.9,2.9 			"/>
			<polygon fill="#565C5C" points="25.3,2 23.5,2.4 18.3,8.2 20.9,7.7 25.5,2.6 			"/>
			<polygon fill="#565C5C" points="25.9,4.5 23.6,7.1 26.2,6.6 26.4,6.4 			"/>
		</g>
		<g>
			<circle fill="#272A2A" cx="15" cy="19.7" r="4.9"/>
			<polygon fill="#FFFFFF" points="17.3,19.9 13.4,22 13.4,17.9 			"/>
		</g>
	</g>
</g>
</svg>
