<?xml version="1.0" encoding="utf-8"?>
<!-- Generator: Adobe Illustrator 18.0.0, SVG Export Plug-In . SVG Version: 6.00 Build 0)  -->
<!DOCTYPE svg PUBLIC "-//W3C//DTD SVG 1.1//EN" "http://www.w3.org/Graphics/SVG/1.1/DTD/svg11.dtd">
<svg version="1.1" xmlns="http://www.w3.org/2000/svg" xmlns:xlink="http://www.w3.org/1999/xlink" x="0px" y="0px" width="30px"
	 height="30px" viewBox="0 0 30 30" enable-background="new 0 0 30 30" xml:space="preserve">
<g id="Layer_1" display="none">
	<rect display="inline" fill-rule="evenodd" clip-rule="evenodd" fill="#272A2A" width="30" height="30"/>
</g>
<g id="opengl_red" display="none">
	<g display="inline">
		<g>
			<path fill-rule="evenodd" clip-rule="evenodd" fill="#A63C2D" d="M6.6,18.1c-1.9,0-2.4-1.6-2.4-2.6c0-1.1,0.6-2.6,2.4-2.6
				c1.9,0,2.4,1.6,2.4,2.6C9,16.5,8.4,18.1,6.6,18.1L6.6,18.1z M6.6,13.4c-1.1,0-1.7,0.9-1.7,2c0,1.2,0.7,2,1.7,2
				c1.1,0,1.7-0.9,1.7-2C8.3,14.3,7.7,13.4,6.6,13.4L6.6,13.4z M9.4,14.8h0.5v0.5h0c0.1-0.2,0.4-0.5,1-0.5c0.8,0,1.5,0.7,1.5,1.6
				c0,0.8-0.4,1.8-1.5,1.8c-0.4,0-0.7-0.2-0.8-0.4h0v1.6H9.4V14.8L9.4,14.8z M10.7,17.6c0.6,0,1-0.5,1-1.2c0-0.4-0.2-1.2-1-1.2
				c-0.8,0-0.9,0.8-0.9,1.4C9.9,17.3,10.4,17.6,10.7,17.6L10.7,17.6z M15.6,16.9c0,0.2-0.2,0.6-0.6,0.9c-0.1,0.1-0.4,0.2-0.9,0.2
				c-0.9,0-1.4-0.7-1.4-1.6c0-1,0.5-1.8,1.5-1.8c0.9,0,1.4,0.7,1.4,1.9h-2.3c0,0.7,0.3,1,0.9,1c0.5,0,0.8-0.4,0.8-0.6H15.6
				L15.6,16.9z M15,16.1c0-0.5-0.2-1-0.9-1c-0.5,0-0.9,0.5-0.9,1H15L15,16.1z M18.6,17.9H18v-2c0-0.6-0.2-0.8-0.7-0.8
				c-0.3,0-0.8,0.2-0.8,1.1v1.7H16v-3.2h0.5v0.5h0c0.1-0.2,0.4-0.5,1-0.5c0.5,0,1.1,0.2,1.1,1.1V17.9L18.6,17.9z"/>
			<path fill-rule="evenodd" clip-rule="evenodd" fill="#A63C2D" d="M21.7,15.3h2.1v2.7h-0.7L23,17.3c-0.3,0.3-0.6,0.8-1.6,0.8
				c-1.2,0-2.3-0.9-2.3-2.6c0-1.4,0.8-2.6,2.4-2.6c1.5,0,2.1,1,2.2,1.7h-1c0-0.2-0.4-0.8-1.1-0.8c-0.7,0-1.4,0.5-1.4,1.8
				c0,1.4,0.7,1.7,1.5,1.7c0.2,0,1-0.1,1.2-1.1h-1.2V15.3L21.7,15.3z"/>
			<path fill-rule="evenodd" clip-rule="evenodd" fill="#A63C2D" d="M1,15.3c0,3,4.6,6,10.5,5.9c5.9,0,8.9-2.8,8.9-2.8
				c0.4-0.5-0.3-0.2-0.3-0.2c-1,0.7-4.1,2.1-8.9,1.6c-5.1-0.6-6.7-2-7-3.4l-0.1-0.8c0-0.5,0.1-1.1,0.3-1.7c0.5-1.1,2.1-2.7,6.7-3.1
				c4.8-0.5,7.9,0.9,8.9,1.6c0,0,0.7,0.3,0.3-0.2c0,0-3-2.8-8.9-2.8C5.6,9.3,1,12.3,1,15.3L1,15.3z"/>
			<polygon fill-rule="evenodd" clip-rule="evenodd" fill="#A63C2D" points="25.5,17 28,17 28,17.9 24.5,17.9 24.5,13 25.5,13 
				25.5,17 			"/>
			<path fill-rule="evenodd" clip-rule="evenodd" fill="#A63C2D" d="M28.6,17.5L28.6,17.5l-0.1,0v0.4h-0.1v-0.4h-0.1v0H28.6
				L28.6,17.5z M28.7,17.5l0.1,0.3h0l0.1-0.3H29v0.4h0v-0.4h0l-0.1,0.4h0L28.7,17.5L28.7,17.5l0,0.4h0L28.7,17.5L28.7,17.5
				L28.7,17.5z"/>
		</g>
		<g>
			<path fill-rule="evenodd" clip-rule="evenodd" fill="#FFFFFF" d="M6.6,17.6c-1.9,0-2.4-1.6-2.4-2.6c0-1.1,0.6-2.6,2.4-2.6
				c1.9,0,2.4,1.6,2.4,2.6C9,16,8.4,17.6,6.6,17.6L6.6,17.6z M6.6,12.9c-1.1,0-1.7,0.9-1.7,2c0,1.2,0.7,2,1.7,2c1.1,0,1.7-0.9,1.7-2
				C8.3,13.8,7.7,12.9,6.6,12.9L6.6,12.9z M9.4,14.2h0.5v0.5h0c0.1-0.2,0.4-0.5,1-0.5c0.8,0,1.5,0.7,1.5,1.6c0,0.8-0.4,1.8-1.5,1.8
				c-0.4,0-0.7-0.2-0.8-0.4h0v1.6H9.4V14.2L9.4,14.2z M10.7,17.1c0.6,0,1-0.5,1-1.2c0-0.4-0.2-1.2-1-1.2c-0.8,0-0.9,0.8-0.9,1.4
				C9.9,16.8,10.4,17.1,10.7,17.1L10.7,17.1z M15.6,16.4c0,0.2-0.2,0.6-0.6,0.9c-0.1,0.1-0.4,0.2-0.9,0.2c-0.9,0-1.4-0.7-1.4-1.6
				c0-1,0.5-1.8,1.5-1.8c0.9,0,1.4,0.7,1.4,1.9h-2.3c0,0.7,0.3,1,0.9,1c0.5,0,0.8-0.4,0.8-0.6H15.6L15.6,16.4z M15,15.6
				c0-0.5-0.2-1-0.9-1c-0.5,0-0.9,0.5-0.9,1H15L15,15.6z M18.6,17.4H18v-2c0-0.6-0.2-0.8-0.7-0.8c-0.3,0-0.8,0.2-0.8,1.1v1.7H16
				v-3.2h0.5v0.5h0c0.1-0.2,0.4-0.5,1-0.5c0.5,0,1.1,0.2,1.1,1.1V17.4L18.6,17.4z"/>
			<path fill-rule="evenodd" clip-rule="evenodd" fill="#FFFFFF" d="M21.7,14.7h2.1v2.7h-0.7L23,16.8c-0.3,0.3-0.6,0.8-1.6,0.8
				c-1.2,0-2.3-0.9-2.3-2.6c0-1.4,0.8-2.6,2.4-2.6c1.5,0,2.1,1,2.2,1.7h-1c0-0.2-0.4-0.8-1.1-0.8c-0.7,0-1.4,0.5-1.4,1.8
				c0,1.4,0.7,1.7,1.5,1.7c0.2,0,1-0.1,1.2-1.1h-1.2V14.7L21.7,14.7z"/>
			<path fill-rule="evenodd" clip-rule="evenodd" fill="#FFFFFF" d="M1,14.7c0,3,4.6,6,10.5,5.9c5.9,0,8.9-2.8,8.9-2.8
				c0.4-0.5-0.3-0.2-0.3-0.2c-1,0.7-4.1,2.1-8.9,1.6c-5.1-0.6-6.7-2-7-3.4L4.1,15c0-0.5,0.1-1.1,0.3-1.7c0.5-1.1,2.1-2.7,6.7-3.1
				c4.8-0.5,7.9,0.9,8.9,1.6c0,0,0.7,0.3,0.3-0.2c0,0-3-2.8-8.9-2.8C5.6,8.8,1,11.7,1,14.7L1,14.7z"/>
			<polygon fill-rule="evenodd" clip-rule="evenodd" fill="#FFFFFF" points="25.5,16.5 28,16.5 28,17.4 24.5,17.4 24.5,12.4 
				25.5,12.4 25.5,16.5 			"/>
			<path fill-rule="evenodd" clip-rule="evenodd" fill="#FFFFFF" d="M28.6,17L28.6,17l-0.1,0v0.4h-0.1V17h-0.1v0H28.6L28.6,17z
				 M28.7,17l0.1,0.3h0l0.1-0.3H29v0.4h0V17h0l-0.1,0.4h0L28.7,17L28.7,17l0,0.4h0L28.7,17L28.7,17L28.7,17z"/>
		</g>
	</g>
</g>
<g id="opengl_gray" display="none">
	<g display="inline">
		<path fill-rule="evenodd" clip-rule="evenodd" fill="#2E3030" d="M6.6,18.1c-1.9,0-2.4-1.6-2.4-2.6c0-1.1,0.6-2.6,2.4-2.6
			c1.9,0,2.4,1.6,2.4,2.6C9,16.5,8.4,18.1,6.6,18.1L6.6,18.1z M6.6,13.4c-1.1,0-1.7,0.9-1.7,2c0,1.2,0.7,2,1.7,2
			c1.1,0,1.7-0.9,1.7-2C8.3,14.3,7.7,13.4,6.6,13.4L6.6,13.4z M9.4,14.8h0.5v0.5h0c0.1-0.2,0.4-0.5,1-0.5c0.8,0,1.5,0.7,1.5,1.6
			c0,0.8-0.4,1.8-1.5,1.8c-0.4,0-0.7-0.2-0.8-0.4h0v1.6H9.4V14.8L9.4,14.8z M10.7,17.6c0.6,0,1-0.5,1-1.2c0-0.4-0.2-1.2-1-1.2
			c-0.8,0-0.9,0.8-0.9,1.4C9.9,17.3,10.4,17.6,10.7,17.6L10.7,17.6z M15.6,16.9c0,0.2-0.2,0.6-0.6,0.9c-0.1,0.1-0.4,0.2-0.9,0.2
			c-0.9,0-1.4-0.7-1.4-1.6c0-1,0.5-1.8,1.5-1.8c0.9,0,1.4,0.7,1.4,1.9h-2.3c0,0.7,0.3,1,0.9,1c0.5,0,0.8-0.4,0.8-0.6H15.6L15.6,16.9
			z M15,16.1c0-0.5-0.2-1-0.9-1c-0.5,0-0.9,0.5-0.9,1H15L15,16.1z M18.6,17.9H18v-2c0-0.6-0.2-0.8-0.7-0.8c-0.3,0-0.8,0.2-0.8,1.1
			v1.7H16v-3.2h0.5v0.5h0c0.1-0.2,0.4-0.5,1-0.5c0.5,0,1.1,0.2,1.1,1.1V17.9L18.6,17.9z"/>
		<path fill-rule="evenodd" clip-rule="evenodd" fill="#2E3030" d="M21.7,15.3h2.1v2.7h-0.7L23,17.3c-0.3,0.3-0.6,0.8-1.6,0.8
			c-1.2,0-2.3-0.9-2.3-2.6c0-1.4,0.8-2.6,2.4-2.6c1.5,0,2.1,1,2.2,1.7h-1c0-0.2-0.4-0.8-1.1-0.8c-0.7,0-1.4,0.5-1.4,1.8
			c0,1.4,0.7,1.7,1.5,1.7c0.2,0,1-0.1,1.2-1.1h-1.2V15.3L21.7,15.3z"/>
		<path fill-rule="evenodd" clip-rule="evenodd" fill="#2E3030" d="M1,15.3c0,3,4.6,6,10.5,5.9c5.9,0,8.9-2.8,8.9-2.8
			c0.4-0.5-0.3-0.2-0.3-0.2c-1,0.7-4.1,2.1-8.9,1.6c-5.1-0.6-6.7-2-7-3.4l-0.1-0.8c0-0.5,0.1-1.1,0.3-1.7c0.5-1.1,2.1-2.7,6.7-3.1
			c4.8-0.5,7.9,0.9,8.9,1.6c0,0,0.7,0.3,0.3-0.2c0,0-3-2.8-8.9-2.8C5.6,9.3,1,12.3,1,15.3L1,15.3z"/>
		<polygon fill-rule="evenodd" clip-rule="evenodd" fill="#2E3030" points="25.5,17 28,17 28,17.9 24.5,17.9 24.5,13 25.5,13 
			25.5,17 		"/>
		<path fill-rule="evenodd" clip-rule="evenodd" fill="#2E3030" d="M28.6,17.5L28.6,17.5l-0.1,0v0.4h-0.1v-0.4h-0.1v0H28.6
			L28.6,17.5z M28.7,17.5l0.1,0.3h0l0.1-0.3H29v0.4h0v-0.4h0l-0.1,0.4h0L28.7,17.5L28.7,17.5l0,0.4h0L28.7,17.5L28.7,17.5L28.7,17.5
			z"/>
	</g>
	<g display="inline">
		<path fill-rule="evenodd" clip-rule="evenodd" fill="#FFFFFF" d="M6.6,17.6c-1.9,0-2.4-1.6-2.4-2.6c0-1.1,0.6-2.6,2.4-2.6
			c1.9,0,2.4,1.6,2.4,2.6C9,16,8.4,17.6,6.6,17.6L6.6,17.6z M6.6,12.9c-1.1,0-1.7,0.9-1.7,2c0,1.2,0.7,2,1.7,2c1.1,0,1.7-0.9,1.7-2
			C8.3,13.8,7.7,12.9,6.6,12.9L6.6,12.9z M9.4,14.2h0.5v0.5h0c0.1-0.2,0.4-0.5,1-0.5c0.8,0,1.5,0.7,1.5,1.6c0,0.8-0.4,1.8-1.5,1.8
			c-0.4,0-0.7-0.2-0.8-0.4h0v1.6H9.4V14.2L9.4,14.2z M10.7,17.1c0.6,0,1-0.5,1-1.2c0-0.4-0.2-1.2-1-1.2c-0.8,0-0.9,0.8-0.9,1.4
			C9.9,16.8,10.4,17.1,10.7,17.1L10.7,17.1z M15.6,16.4c0,0.2-0.2,0.6-0.6,0.9c-0.1,0.1-0.4,0.2-0.9,0.2c-0.9,0-1.4-0.7-1.4-1.6
			c0-1,0.5-1.8,1.5-1.8c0.9,0,1.4,0.7,1.4,1.9h-2.3c0,0.7,0.3,1,0.9,1c0.5,0,0.8-0.4,0.8-0.6H15.6L15.6,16.4z M15,15.6
			c0-0.5-0.2-1-0.9-1c-0.5,0-0.9,0.5-0.9,1H15L15,15.6z M18.6,17.4H18v-2c0-0.6-0.2-0.8-0.7-0.8c-0.3,0-0.8,0.2-0.8,1.1v1.7H16v-3.2
			h0.5v0.5h0c0.1-0.2,0.4-0.5,1-0.5c0.5,0,1.1,0.2,1.1,1.1V17.4L18.6,17.4z"/>
		<path fill-rule="evenodd" clip-rule="evenodd" fill="#FFFFFF" d="M21.7,14.7h2.1v2.7h-0.7L23,16.8c-0.3,0.3-0.6,0.8-1.6,0.8
			c-1.2,0-2.3-0.9-2.3-2.6c0-1.4,0.8-2.6,2.4-2.6c1.5,0,2.1,1,2.2,1.7h-1c0-0.2-0.4-0.8-1.1-0.8c-0.7,0-1.4,0.5-1.4,1.8
			c0,1.4,0.7,1.7,1.5,1.7c0.2,0,1-0.1,1.2-1.1h-1.2V14.7L21.7,14.7z"/>
		<path fill-rule="evenodd" clip-rule="evenodd" fill="#FFFFFF" d="M1,14.7c0,3,4.6,6,10.5,5.9c5.9,0,8.9-2.8,8.9-2.8
			c0.4-0.5-0.3-0.2-0.3-0.2c-1,0.7-4.1,2.1-8.9,1.6c-5.1-0.6-6.7-2-7-3.4L4.1,15c0-0.5,0.1-1.1,0.3-1.7c0.5-1.1,2.1-2.7,6.7-3.1
			c4.8-0.5,7.9,0.9,8.9,1.6c0,0,0.7,0.3,0.3-0.2c0,0-3-2.8-8.9-2.8C5.6,8.8,1,11.7,1,14.7L1,14.7z"/>
		<polygon fill-rule="evenodd" clip-rule="evenodd" fill="#FFFFFF" points="25.5,16.5 28,16.5 28,17.4 24.5,17.4 24.5,12.4 
			25.5,12.4 25.5,16.5 		"/>
		<path fill-rule="evenodd" clip-rule="evenodd" fill="#FFFFFF" d="M28.6,17L28.6,17l-0.1,0v0.4h-0.1V17h-0.1v0H28.6L28.6,17z
			 M28.7,17l0.1,0.3h0l0.1-0.3H29v0.4h0V17h0l-0.1,0.4h0L28.7,17L28.7,17l0,0.4h0L28.7,17L28.7,17L28.7,17z"/>
	</g>
</g>
<g id="geom_red" display="none">
	<g display="inline">
		<g>
			<circle fill="#D65237" cx="14.8" cy="14.9" r="13.4"/>
		</g>
		<g>
			<g opacity="0.5">
				<path fill="#010101" d="M1.9,15.5c0,6.9,5.8,12.4,12.9,12.4c6.6,0,12.1-4.9,12.8-11.1c-1.1,1.7-6.3,3-12.6,3
					c-7.1,0-12.8-1.6-12.8-3.7"/>
			</g>
		</g>
		<g>
			<ellipse fill="#A63C2D" cx="14.9" cy="16" rx="13" ry="3.9"/>
		</g>
		<g>
			<g>
				<path fill="#FFFFFF" d="M28.5,15.8h-1.5v-0.5h0.3L27,14.9l0.4-0.3L28.5,15.8z M25.1,15.8h-2v-0.5h2V15.8z M21.1,15.8h-2v-0.5h2
					V15.8z M17.1,15.8h-2v-0.5h2V15.8z M14.7,15.5l-0.5,0l0-2l0.5,0L14.7,15.5z M25.6,13.5L24.2,12l0.4-0.3l1.4,1.4L25.6,13.5z
					 M14.7,11.5l-0.5,0l0-2l0.5,0L14.7,11.5z M22.8,10.6l-1.4-1.4l0.4-0.3l1.4,1.4L22.8,10.6z M20,7.7l-1.4-1.4L19,5.9l1.4,1.4
					L20,7.7z M14.7,7.5l-0.5,0l0-2l0.5,0L14.7,7.5z M17.2,4.8l-1.4-1.4l0.4-0.3l1.4,1.4L17.2,4.8z M14.7,3.5l-0.5,0l0-2.5l0.5,0.6
					l-0.1,0.1h0L14.7,3.5z"/>
			</g>
			<g>
				<path fill="#FFFFFF" d="M17.2,15.8h-3V13h3V15.8z M14.7,15.3h2v-1.8h-2V15.3z"/>
			</g>
		</g>
		<g>
			<path fill="#FFFFFF" d="M14.8,28.8c-7.6,0-13.9-6.2-13.9-13.9S7.2,1,14.8,1s13.9,6.2,13.9,13.9S22.5,28.8,14.8,28.8z M14.8,2
				C7.7,2,1.9,7.8,1.9,14.9c0,7.1,5.8,12.9,12.9,12.9c7.1,0,12.9-5.8,12.9-12.9C27.7,7.8,21.9,2,14.8,2z"/>
		</g>
	</g>
</g>
<g id="geom_gray" display="none">
	<g display="inline">
		<g>
			<circle fill="#565C5C" cx="14.8" cy="14.9" r="13.4"/>
		</g>
		<g>
			<g opacity="0.5">
				<path fill="#010101" d="M1.9,15.5c0,6.9,5.8,12.4,12.9,12.4c6.6,0,12.1-4.9,12.8-11.1c-1.1,1.7-6.3,3-12.6,3
					c-7.1,0-12.8-1.6-12.8-3.7"/>
			</g>
		</g>
		<g>
			<ellipse fill="#444747" cx="14.9" cy="16" rx="13" ry="3.9"/>
		</g>
		<g>
			<g>
				<path fill="#FFFFFF" d="M28.5,15.8h-1.5v-0.5h0.3L27,14.9l0.4-0.3L28.5,15.8z M25.1,15.8h-2v-0.5h2V15.8z M21.1,15.8h-2v-0.5h2
					V15.8z M17.1,15.8h-2v-0.5h2V15.8z M14.7,15.5l-0.5,0l0-2l0.5,0L14.7,15.5z M25.6,13.5L24.2,12l0.4-0.3l1.4,1.4L25.6,13.5z
					 M14.7,11.5l-0.5,0l0-2l0.5,0L14.7,11.5z M22.8,10.6l-1.4-1.4l0.4-0.3l1.4,1.4L22.8,10.6z M20,7.7l-1.4-1.4L19,5.9l1.4,1.4
					L20,7.7z M14.7,7.5l-0.5,0l0-2l0.5,0L14.7,7.5z M17.2,4.8l-1.4-1.4l0.4-0.3l1.4,1.4L17.2,4.8z M14.7,3.5l-0.5,0l0-2.5l0.5,0.6
					l-0.1,0.1h0L14.7,3.5z"/>
			</g>
			<g>
				<path fill="#FFFFFF" d="M17.2,15.8h-3V13h3V15.8z M14.7,15.3h2v-1.8h-2V15.3z"/>
			</g>
		</g>
		<g>
			<path fill="#FFFFFF" d="M14.8,28.8c-7.6,0-13.9-6.2-13.9-13.9S7.2,1,14.8,1s13.9,6.2,13.9,13.9S22.5,28.8,14.8,28.8z M14.8,2
				C7.7,2,1.9,7.8,1.9,14.9c0,7.1,5.8,12.9,12.9,12.9c7.1,0,12.9-5.8,12.9-12.9C27.7,7.8,21.9,2,14.8,2z"/>
		</g>
	</g>
</g>
<g id="math-red" display="none">
	<g display="inline">
		<circle fill="#A63C2D" cx="15" cy="15" r="11.3"/>
		<circle fill="#6D271D" cx="15" cy="15" r="9.2"/>
		<g>
			<g>
				<path fill="#FFFFFF" d="M11.6,3.6c0.4-1.6,2.2-3.1,4-3.1c0.7,0,1.3,0.3,1.3,1.1c0,0.6-0.5,1.1-1.1,1.1c-0.4,0-0.7-0.3-0.7-0.7
					c0-0.4,0.4-0.5,0.4-0.7c0-0.2-0.1-0.2-0.3-0.2C14.6,1,14.1,3,14,3.4l-2.4,9.5h2.8v1.1h-3.1L9,23.4c-0.2,0.9-0.6,1.6-1.2,2.2
					c-0.6,0.6-2,0.9-2.8,0.9c-0.7,0-1.3-0.3-1.3-1.1c0-0.6,0.5-1.1,1.1-1.1c0.4,0,0.7,0.3,0.7,0.7s-0.4,0.5-0.4,0.7
					c0,0.1,0.1,0.2,0.3,0.2c0.7,0,1.1-1.9,1.3-2.4L9,14.1H6.3v-1.1h3L11.6,3.6z"/>
				<path fill="#FFFFFF" d="M13.1,20.5c0-2.7,1.8-4.7,3.4-5.6l0.5,0.7c-1.5,0.9-2.8,2.5-2.8,4.9c0,2.4,1.3,3.9,2.8,4.9l-0.5,0.7
					C14.9,25.2,13.1,23.2,13.1,20.5z"/>
				<path fill="#FFFFFF" d="M17,22.6h0.7l1.6-1.7l-1.5-1.6h-0.6v-0.9h2.3v0.8h-0.6l1,1.2l1-1.2h-0.6v-0.8h2.3v0.9h-0.7l-1.5,1.6
					l1.6,1.7h0.7v0.9h-2.3v-0.8h0.6l-1.1-1.3l-1.1,1.3h0.7v0.8H17V22.6z"/>
				<path fill="#FFFFFF" d="M22.7,25.4c1.5-0.9,2.8-2.5,2.8-4.9c0-2.4-1.3-3.9-2.8-4.9l0.5-0.7c1.6,0.9,3.4,2.9,3.4,5.6
					c0,2.8-1.8,4.7-3.4,5.6L22.7,25.4z"/>
			</g>
		</g>
	</g>
</g>
<g id="math_gray" display="none">
	<g display="inline">
		<circle fill="#565C5C" cx="15" cy="15" r="11.3"/>
		<circle fill="#444747" cx="15" cy="15" r="9.2"/>
		<g>
			<g>
				<path fill="#FFFFFF" d="M11.6,3.6c0.4-1.6,2.2-3.1,4-3.1c0.7,0,1.3,0.3,1.3,1.1c0,0.6-0.5,1.1-1.1,1.1c-0.4,0-0.7-0.3-0.7-0.7
					c0-0.4,0.4-0.5,0.4-0.7c0-0.2-0.1-0.2-0.3-0.2C14.6,1,14.1,3,14,3.4l-2.4,9.5h2.8v1.1h-3.1L9,23.4c-0.2,0.9-0.6,1.6-1.2,2.2
					c-0.6,0.6-2,0.9-2.8,0.9c-0.7,0-1.3-0.3-1.3-1.1c0-0.6,0.5-1.1,1.1-1.1c0.4,0,0.7,0.3,0.7,0.7s-0.4,0.5-0.4,0.7
					c0,0.1,0.1,0.2,0.3,0.2c0.7,0,1.1-1.9,1.3-2.4L9,14.1H6.3v-1.1h3L11.6,3.6z"/>
				<path fill="#FFFFFF" d="M13.1,20.5c0-2.7,1.8-4.7,3.4-5.6l0.5,0.7c-1.5,0.9-2.8,2.5-2.8,4.9c0,2.4,1.3,3.9,2.8,4.9l-0.5,0.7
					C14.9,25.2,13.1,23.2,13.1,20.5z"/>
				<path fill="#FFFFFF" d="M17,22.6h0.7l1.6-1.7l-1.5-1.6h-0.6v-0.9h2.3v0.8h-0.6l1,1.2l1-1.2h-0.6v-0.8h2.3v0.9h-0.7l-1.5,1.6
					l1.6,1.7h0.7v0.9h-2.3v-0.8h0.6l-1.1-1.3l-1.1,1.3h0.7v0.8H17V22.6z"/>
				<path fill="#FFFFFF" d="M22.7,25.4c1.5-0.9,2.8-2.5,2.8-4.9c0-2.4-1.3-3.9-2.8-4.9l0.5-0.7c1.6,0.9,3.4,2.9,3.4,5.6
					c0,2.8-1.8,4.7-3.4,5.6L22.7,25.4z"/>
			</g>
		</g>
	</g>
</g>
<g id="system_red" display="none">
	<g display="inline">
		<g>
			<g>
				<g>
					<path fill="#6D271D" d="M10,27c-0.5-0.1-0.5-1.9-0.9-2c-0.5-0.2-1.5,1.3-2,1.1c-0.4-0.2,0-2-0.4-2.2c-0.4-0.3-1.8,0.9-2.2,0.6
						c-0.4-0.3,0.5-1.9,0.1-2.2c-0.3-0.3-2,0.4-2.2,0.1c-0.3-0.4,0.9-1.7,0.7-2.1c-0.2-0.4-2-0.1-2.2-0.5c-0.2-0.4,1.3-1.5,1.2-1.9
						c-0.1-0.5-1.9-0.5-2-1c-0.1-0.5,1.6-1.1,1.6-1.6c0-0.5-1.7-1-1.7-1.5c0-0.5,1.8-0.7,1.9-1.1C2,12,0.5,11.1,0.6,10.6
						c0.2-0.5,1.9-0.2,2.1-0.6C3,9.6,1.7,8.3,2,7.9c0.3-0.4,1.9,0.3,2.2-0.1c0.3-0.4-0.6-1.9-0.3-2.2C4.3,5.3,5.8,6.3,6.1,6
						C6.5,5.7,6,4,6.4,3.8c0.4-0.2,1.6,1.1,2,0.9c0.4-0.2,0.3-2,0.8-2.1C9.7,2.5,10.5,4.1,11,4c0.5-0.1,0.8-1.8,1.3-1.9
						c0.5,0,0.9,1.7,1.4,1.8c0.5,0,1.2-1.6,1.7-1.5c0.5,0.1,0.5,1.9,0.9,2c0.5,0.2,1.5-1.3,2-1.1c0.4,0.2,0,2,0.4,2.2
						c0.4,0.3,1.8-0.9,2.2-0.6c0.4,0.3-0.5,1.9-0.1,2.2c0.3,0.3,2-0.4,2.2-0.1c0.3,0.4-0.9,1.7-0.7,2.1c0.2,0.4,2,0.1,2.2,0.5
						c0.2,0.4-1.3,1.5-1.2,1.9c0.1,0.5,1.9,0.5,2,1c0.1,0.5-1.6,1.1-1.6,1.6c0,0.5,1.7,1,1.7,1.5c0,0.5-1.8,0.7-1.9,1.1
						c-0.1,0.5,1.4,1.4,1.3,1.8c-0.2,0.5-1.9,0.2-2.1,0.6c-0.2,0.4,1.1,1.7,0.8,2.1c-0.3,0.4-1.9-0.3-2.2,0.1
						c-0.3,0.4,0.6,1.9,0.3,2.2c-0.3,0.3-1.8-0.7-2.2-0.4c-0.4,0.3,0.2,2-0.3,2.2c-0.4,0.2-1.6-1.1-2-0.9c-0.4,0.2-0.3,2-0.8,2.1
						c-0.5,0.1-1.3-1.5-1.8-1.4c-0.5,0.1-0.8,1.8-1.3,1.9c-0.5,0-0.9-1.7-1.4-1.8C11.2,25.4,10.5,27.1,10,27z"/>
					<path fill="#A63C2D" d="M10.7,24c-5.2-1.1-8.5-6.1-7.4-11.2s6.2-8.4,11.4-7.3s8.5,6.1,7.4,11.2S15.8,25,10.7,24z"/>
					<path fill="#6D271D" d="M22.6,16.3l-5.2-1.1c0.3-2.3-1.2-4.5-3.4-5.2l1.1-5.1L14,4.7l-1.1,5.1c-2.4-0.2-4.6,1.2-5.3,3.4
						l-5.2-1.1l-0.2,1.1l5.2,1.1c-0.2,2.3,1.2,4.4,3.4,5.1l-1.1,5.2l1.1,0.2l1.1-5.2c2.3,0.2,4.5-1.2,5.2-3.3l5.3,1.1L22.6,16.3z"/>
				</g>
				<circle fill="#A63C2D" cx="12.4" cy="14.8" r="2.1"/>
			</g>
		</g>
		<g>
			<path fill="#A63C2D" d="M25.6,25.2c-2.2,1.1-4.8,0.2-5.9-1.9s-0.3-4.7,1.9-5.8c2.2-1.1,4.8-0.2,5.9,1.9S27.8,24.1,25.6,25.2z"/>
			<polygon fill="#6D271D" points="19.8,23.6 19.6,23.2 27.4,19.2 27.6,19.6 			"/>
			<polygon fill="#6D271D" points="25.8,25.1 25.4,25.3 21.4,17.6 21.8,17.4 			"/>
			<path fill="#6D271D" d="M24.5,23.2c-1,0.5-2.2,0.1-2.7-0.9c-0.5-1-0.1-2.2,0.9-2.7c1-0.5,2.2-0.1,2.7,0.9
				C25.9,21.5,25.5,22.7,24.5,23.2z"/>
			<path fill="#FFFFFF" d="M30,22.7c0.1-0.4-1.2-1-1.2-1.4c0-0.4,1.2-1,1.1-1.5c-0.1-0.4-1.5-0.4-1.7-0.8c-0.2-0.4,0.6-1.5,0.3-1.8
				c-0.3-0.3-1.5,0.3-1.8,0c-0.4-0.3-0.1-1.6-0.5-1.8c-0.4-0.2-1.2,0.9-1.6,0.8c-0.4-0.1-0.8-1.4-1.2-1.4c-0.4,0-0.7,1.4-1.1,1.5
				c-0.4,0.1-1.3-1-1.7-0.8c-0.4,0.2-0.1,1.5-0.4,1.8c-0.3,0.3-1.6-0.3-1.8,0c-0.3,0.3,0.6,1.4,0.4,1.8c-0.2,0.4-1.5,0.4-1.6,0.8
				c-0.1,0.4,1.2,1,1.2,1.4c0,0.4-1.2,1-1.1,1.5c0.1,0.4,1.5,0.4,1.7,0.8c0.2,0.4-0.6,1.5-0.3,1.8c0.3,0.3,1.5-0.3,1.8,0
				c0.4,0.3,0.1,1.6,0.5,1.8c0.4,0.2,1.2-0.9,1.6-0.8c0.4,0.1,0.8,1.4,1.2,1.4c0.4,0,0.7-1.4,1.1-1.5c0.4-0.1,1.3,1,1.7,0.8
				c0.4-0.2,0.1-1.5,0.4-1.8c0.3-0.3,1.6,0.3,1.8,0c0.3-0.3-0.6-1.4-0.4-1.8C28.5,23.1,29.9,23.1,30,22.7z M25.6,25.2
				c-2.2,1.1-4.8,0.2-5.9-1.9s-0.3-4.7,1.9-5.8c2.2-1.1,4.8-0.2,5.9,1.9C28.6,21.5,27.8,24.1,25.6,25.2z"/>
		</g>
	</g>
</g>
<g id="system_gray" display="none">
	<g display="inline">
		<g>
			<g>
				<g>
					<path fill="#646868" d="M10,27c-0.5-0.1-0.5-1.9-0.9-2c-0.5-0.2-1.5,1.3-2,1.1c-0.4-0.2,0-2-0.4-2.2c-0.4-0.3-1.8,0.9-2.2,0.6
						c-0.4-0.3,0.5-1.9,0.1-2.2c-0.3-0.3-2,0.4-2.2,0.1c-0.3-0.4,0.9-1.7,0.7-2.1c-0.2-0.4-2-0.1-2.2-0.5c-0.2-0.4,1.3-1.5,1.2-1.9
						c-0.1-0.5-1.9-0.5-2-1c-0.1-0.5,1.6-1.1,1.6-1.6c0-0.5-1.7-1-1.7-1.5c0-0.5,1.8-0.7,1.9-1.1C2,12,0.5,11.1,0.6,10.6
						c0.2-0.5,1.9-0.2,2.1-0.6C3,9.6,1.7,8.3,2,7.9c0.3-0.4,1.9,0.3,2.2-0.1c0.3-0.4-0.6-1.9-0.3-2.2C4.3,5.3,5.8,6.3,6.1,6
						C6.5,5.7,6,4,6.4,3.8c0.4-0.2,1.6,1.1,2,0.9c0.4-0.2,0.3-2,0.8-2.1C9.7,2.5,10.5,4.1,11,4c0.5-0.1,0.8-1.8,1.3-1.9
						c0.5,0,0.9,1.7,1.4,1.8c0.5,0,1.2-1.6,1.7-1.5c0.5,0.1,0.5,1.9,0.9,2c0.5,0.2,1.5-1.3,2-1.1c0.4,0.2,0,2,0.4,2.2
						c0.4,0.3,1.8-0.9,2.2-0.6c0.4,0.3-0.5,1.9-0.1,2.2c0.3,0.3,2-0.4,2.2-0.1c0.3,0.4-0.9,1.7-0.7,2.1c0.2,0.4,2,0.1,2.2,0.5
						c0.2,0.4-1.3,1.5-1.2,1.9c0.1,0.5,1.9,0.5,2,1c0.1,0.5-1.6,1.1-1.6,1.6c0,0.5,1.7,1,1.7,1.5c0,0.5-1.8,0.7-1.9,1.1
						c-0.1,0.5,1.4,1.4,1.3,1.8c-0.2,0.5-1.9,0.2-2.1,0.6c-0.2,0.4,1.1,1.7,0.8,2.1c-0.3,0.4-1.9-0.3-2.2,0.1
						c-0.3,0.4,0.6,1.9,0.3,2.2c-0.3,0.3-1.8-0.7-2.2-0.4c-0.4,0.3,0.2,2-0.3,2.2c-0.4,0.2-1.6-1.1-2-0.9c-0.4,0.2-0.3,2-0.8,2.1
						c-0.5,0.1-1.3-1.5-1.8-1.4c-0.5,0.1-0.8,1.8-1.3,1.9c-0.5,0-0.9-1.7-1.4-1.8C11.2,25.4,10.5,27.1,10,27z"/>
					<path fill="#2E3030" d="M10.7,24c-5.2-1.1-8.5-6.1-7.4-11.2s6.2-8.4,11.4-7.3s8.5,6.1,7.4,11.2S15.8,25,10.7,24z"/>
					<path fill="#646868" d="M22.6,16.3l-5.2-1.1c0.3-2.3-1.2-4.5-3.4-5.2l1.1-5.1L14,4.7l-1.1,5.1c-2.4-0.2-4.6,1.2-5.3,3.4
						l-5.2-1.1l-0.2,1.1l5.2,1.1c-0.2,2.3,1.2,4.4,3.4,5.1l-1.1,5.2l1.1,0.2l1.1-5.2c2.3,0.2,4.5-1.2,5.2-3.3l5.3,1.1L22.6,16.3z"/>
				</g>
				<circle fill="#2E3030" cx="12.4" cy="14.8" r="2.1"/>
			</g>
		</g>
		<g>
			<path fill="#646868" d="M25.6,25.2c-2.2,1.1-4.8,0.2-5.9-1.9s-0.3-4.7,1.9-5.8c2.2-1.1,4.8-0.2,5.9,1.9S27.8,24.1,25.6,25.2z"/>
			<polygon fill="#2E3030" points="19.8,23.6 19.6,23.2 27.4,19.2 27.6,19.6 			"/>
			<polygon fill="#2E3030" points="25.8,25.1 25.4,25.3 21.4,17.6 21.8,17.4 			"/>
			<path fill="#2E3030" d="M24.5,23.2c-1,0.5-2.2,0.1-2.7-0.9c-0.5-1-0.1-2.2,0.9-2.7c1-0.5,2.2-0.1,2.7,0.9
				C25.9,21.5,25.5,22.7,24.5,23.2z"/>
			<path fill="#FFFFFF" d="M30,22.7c0.1-0.4-1.2-1-1.2-1.4c0-0.4,1.2-1,1.1-1.5c-0.1-0.4-1.5-0.4-1.7-0.8c-0.2-0.4,0.6-1.5,0.3-1.8
				c-0.3-0.3-1.5,0.3-1.8,0c-0.4-0.3-0.1-1.6-0.5-1.8c-0.4-0.2-1.2,0.9-1.6,0.8c-0.4-0.1-0.8-1.4-1.2-1.4c-0.4,0-0.7,1.4-1.1,1.5
				c-0.4,0.1-1.3-1-1.7-0.8c-0.4,0.2-0.1,1.5-0.4,1.8c-0.3,0.3-1.6-0.3-1.8,0c-0.3,0.3,0.6,1.4,0.4,1.8c-0.2,0.4-1.5,0.4-1.6,0.8
				c-0.1,0.4,1.2,1,1.2,1.4c0,0.4-1.2,1-1.1,1.5c0.1,0.4,1.5,0.4,1.7,0.8c0.2,0.4-0.6,1.5-0.3,1.8c0.3,0.3,1.5-0.3,1.8,0
				c0.4,0.3,0.1,1.6,0.5,1.8c0.4,0.2,1.2-0.9,1.6-0.8c0.4,0.1,0.8,1.4,1.2,1.4c0.4,0,0.7-1.4,1.1-1.5c0.4-0.1,1.3,1,1.7,0.8
				c0.4-0.2,0.1-1.5,0.4-1.8c0.3-0.3,1.6,0.3,1.8,0c0.3-0.3-0.6-1.4-0.4-1.8C28.5,23.1,29.9,23.1,30,22.7z M25.6,25.2
				c-2.2,1.1-4.8,0.2-5.9-1.9s-0.3-4.7,1.9-5.8c2.2-1.1,4.8-0.2,5.9,1.9C28.6,21.5,27.8,24.1,25.6,25.2z"/>
		</g>
	</g>
</g>
<g id="audio_red" display="none">
	<g display="inline">
		<path fill="#A63C2D" d="M28,15.8h-1.3c0-6-5.2-10.9-11.7-10.9S3.3,9.8,3.3,15.8H2C2,9,7.8,3.5,15,3.5S28,9,28,15.8z"/>
		<path fill="#6D271D" d="M4.6,11.1L3,10.3c2.2-4.3,6.8-7,11.9-7c5.1,0,9.7,2.7,11.9,7l-1.6,0.8c-1.9-3.7-6-6-10.3-6
			C10.6,5.1,6.5,7.4,4.6,11.1z"/>
		<path fill="#6D271D" d="M3.4,24.4L3.4,24.4c-1.3,0-3.4-1.1-3.4-2.4l0-4.8c0-1.3,1.6-2.4,2.9-2.4h0.5"/>
		<path fill="#6D271D" d="M4.4,14.8L4.4,14.8c0.5,0,1.3,1.1,1.3,2.4v4.8c0,1.3-0.6,2.4-1.1,2.4H4.4"/>
		<path fill="#6D271D" d="M26.6,24.4L26.6,24.4c1.3,0,3.4-1.1,3.4-2.4v-4.8c0-1.3-1.6-2.4-2.9-2.4h-0.5"/>
		<path fill="#6D271D" d="M25.6,14.8L25.6,14.8c-0.5,0-1.3,1.1-1.3,2.4v4.8c0,1.3,0.6,2.4,1.1,2.4h0.2"/>
		<g>
			<path fill="#A63C2D" d="M22.7,21.4c-0.2-0.4-0.3-1.1-0.4-1.6c-0.3-1.4-0.5-2.4-1.3-2.4c-0.8,0-0.9,1.1-1.3,4.6
				c-0.1,0.9-0.2,2.2-0.4,3c-0.2-1.2-0.3-3.4-0.4-5.1c-0.4-5.9-0.6-6.7-1.3-6.7c-0.8,0-0.9,1.1-1.3,4.6c-0.1,1.1-0.3,2.8-0.5,3.5
				c-0.1-0.4-0.3-1-0.4-1.4c-0.3-1.4-0.5-2.4-1.3-2.4c-0.8,0-1,1.1-1.3,3.5c-0.1,0.7-0.2,1.7-0.4,2.3c-0.2-0.8-0.3-2.3-0.4-3.4
				c-0.4-3.5-0.5-4.6-1.3-4.6c-0.8,0-1,1.1-1.3,3.5c-0.1,0.8-0.3,2-0.4,2.5c-0.1-0.4-0.3-1.1-0.4-1.5c-0.3-1.4-0.5-2.4-1.3-2.4v1.1
				c0.2,0.4,0.3,1.1,0.4,1.6C8,21.4,8.2,22.5,9,22.5c0.8,0,1-1.1,1.3-3.5c0.1-0.7,0.2-1.7,0.4-2.3c0.2,0.8,0.3,2.3,0.4,3.4
				c0.4,3.5,0.5,4.6,1.3,4.6c0.8,0,1-1.1,1.3-3.5c0.1-0.8,0.3-2,0.4-2.5c0.1,0.4,0.3,1.1,0.4,1.5c0.3,1.4,0.5,2.4,1.3,2.4
				c0.8,0,0.9-1.1,1.3-4.6c0.1-0.9,0.2-2.2,0.4-3c0.2,1.2,0.3,3.4,0.4,5.1c0.4,5.8,0.6,6.7,1.3,6.7c0.8,0,0.9-1.1,1.3-4.6
				c0.1-1.1,0.3-2.8,0.5-3.5c0.1,0.4,0.3,1,0.4,1.4c0.3,1.4,0.5,2.4,1.3,2.4V21.4z"/>
			<path fill="#FFFFFF" d="M22.7,20.5c-0.2-0.4-0.3-1.1-0.4-1.6c-0.3-1.4-0.5-2.4-1.3-2.4c-0.8,0-0.9,1.1-1.3,4.6
				c-0.1,0.9-0.2,2.2-0.4,3c-0.2-1.2-0.3-3.4-0.4-5.1c-0.4-5.9-0.6-6.7-1.3-6.7c-0.8,0-0.9,1.1-1.3,4.6c-0.1,1.1-0.3,2.8-0.5,3.5
				c-0.1-0.4-0.3-1-0.4-1.4c-0.3-1.4-0.5-2.4-1.3-2.4c-0.8,0-1,1.1-1.3,3.5c-0.1,0.7-0.2,1.7-0.4,2.3c-0.2-0.8-0.3-2.3-0.4-3.4
				c-0.4-3.5-0.5-4.6-1.3-4.6c-0.8,0-1,1.1-1.3,3.5c-0.1,0.8-0.3,2-0.4,2.5c-0.1-0.4-0.3-1.1-0.4-1.5c-0.3-1.4-0.5-2.4-1.3-2.4v1.1
				c0.2,0.4,0.3,1.1,0.4,1.6C8,20.5,8.2,21.6,9,21.6c0.8,0,1-1.1,1.3-3.5c0.1-0.7,0.2-1.7,0.4-2.3c0.2,0.8,0.3,2.3,0.4,3.4
				c0.4,3.5,0.5,4.6,1.3,4.6c0.8,0,1-1.1,1.3-3.5c0.1-0.8,0.3-2,0.4-2.5c0.1,0.4,0.3,1.1,0.4,1.5c0.3,1.4,0.5,2.4,1.3,2.4
				c0.8,0,0.9-1.1,1.3-4.6c0.1-0.9,0.2-2.2,0.4-3c0.2,1.2,0.3,3.4,0.4,5.1c0.4,5.8,0.6,6.7,1.3,6.7c0.8,0,0.9-1.1,1.3-4.6
				c0.1-1.1,0.3-2.8,0.5-3.5c0.1,0.4,0.3,1,0.4,1.4c0.3,1.4,0.5,2.4,1.3,2.4V20.5z"/>
		</g>
	</g>
</g>
<g id="audio_gray" display="none">
	<g display="inline">
		<path fill="#444747" d="M28,15.8h-1.3c0-6-5.2-10.9-11.7-10.9S3.3,9.8,3.3,15.8H2C2,9,7.8,3.5,15,3.5S28,9,28,15.8z"/>
		<path fill="#646868" d="M4.6,11.1L3,10.3c2.2-4.3,6.8-7,11.9-7c5.1,0,9.7,2.7,11.9,7l-1.6,0.8c-1.9-3.7-6-6-10.3-6
			C10.6,5.1,6.5,7.4,4.6,11.1z"/>
		<path fill="#646868" d="M3.4,24.4L3.4,24.4c-1.3,0-3.4-1.1-3.4-2.4l0-4.8c0-1.3,1.6-2.4,2.9-2.4h0.5"/>
		<path fill="#646868" d="M4.4,14.8L4.4,14.8c0.5,0,1.3,1.1,1.3,2.4v4.8c0,1.3-0.6,2.4-1.1,2.4H4.4"/>
		<path fill="#646868" d="M26.6,24.4L26.6,24.4c1.3,0,3.4-1.1,3.4-2.4v-4.8c0-1.3-1.6-2.4-2.9-2.4h-0.5"/>
		<path fill="#646868" d="M25.6,14.8L25.6,14.8c-0.5,0-1.3,1.1-1.3,2.4v4.8c0,1.3,0.6,2.4,1.1,2.4h0.2"/>
		<g>
			<path fill="#444747" d="M22.7,21.4c-0.2-0.4-0.3-1.1-0.4-1.6c-0.3-1.4-0.5-2.4-1.3-2.4c-0.8,0-0.9,1.1-1.3,4.6
				c-0.1,0.9-0.2,2.2-0.4,3c-0.2-1.2-0.3-3.4-0.4-5.1c-0.4-5.9-0.6-6.7-1.3-6.7c-0.8,0-0.9,1.1-1.3,4.6c-0.1,1.1-0.3,2.8-0.5,3.5
				c-0.1-0.4-0.3-1-0.4-1.4c-0.3-1.4-0.5-2.4-1.3-2.4c-0.8,0-1,1.1-1.3,3.5c-0.1,0.7-0.2,1.7-0.4,2.3c-0.2-0.8-0.3-2.3-0.4-3.4
				c-0.4-3.5-0.5-4.6-1.3-4.6c-0.8,0-1,1.1-1.3,3.5c-0.1,0.8-0.3,2-0.4,2.5c-0.1-0.4-0.3-1.1-0.4-1.5c-0.3-1.4-0.5-2.4-1.3-2.4v1.1
				c0.2,0.4,0.3,1.1,0.4,1.6C8,21.4,8.2,22.5,9,22.5c0.8,0,1-1.1,1.3-3.5c0.1-0.7,0.2-1.7,0.4-2.3c0.2,0.8,0.3,2.3,0.4,3.4
				c0.4,3.5,0.5,4.6,1.3,4.6c0.8,0,1-1.1,1.3-3.5c0.1-0.8,0.3-2,0.4-2.5c0.1,0.4,0.3,1.1,0.4,1.5c0.3,1.4,0.5,2.4,1.3,2.4
				c0.8,0,0.9-1.1,1.3-4.6c0.1-0.9,0.2-2.2,0.4-3c0.2,1.2,0.3,3.4,0.4,5.1c0.4,5.8,0.6,6.7,1.3,6.7c0.8,0,0.9-1.1,1.3-4.6
				c0.1-1.1,0.3-2.8,0.5-3.5c0.1,0.4,0.3,1,0.4,1.4c0.3,1.4,0.5,2.4,1.3,2.4V21.4z"/>
			<path fill="#FFFFFF" d="M22.7,20.5c-0.2-0.4-0.3-1.1-0.4-1.6c-0.3-1.4-0.5-2.4-1.3-2.4c-0.8,0-0.9,1.1-1.3,4.6
				c-0.1,0.9-0.2,2.2-0.4,3c-0.2-1.2-0.3-3.4-0.4-5.1c-0.4-5.9-0.6-6.7-1.3-6.7c-0.8,0-0.9,1.1-1.3,4.6c-0.1,1.1-0.3,2.8-0.5,3.5
				c-0.1-0.4-0.3-1-0.4-1.4c-0.3-1.4-0.5-2.4-1.3-2.4c-0.8,0-1,1.1-1.3,3.5c-0.1,0.7-0.2,1.7-0.4,2.3c-0.2-0.8-0.3-2.3-0.4-3.4
				c-0.4-3.5-0.5-4.6-1.3-4.6c-0.8,0-1,1.1-1.3,3.5c-0.1,0.8-0.3,2-0.4,2.5c-0.1-0.4-0.3-1.1-0.4-1.5c-0.3-1.4-0.5-2.4-1.3-2.4v1.1
				c0.2,0.4,0.3,1.1,0.4,1.6C8,20.5,8.2,21.6,9,21.6c0.8,0,1-1.1,1.3-3.5c0.1-0.7,0.2-1.7,0.4-2.3c0.2,0.8,0.3,2.3,0.4,3.4
				c0.4,3.5,0.5,4.6,1.3,4.6c0.8,0,1-1.1,1.3-3.5c0.1-0.8,0.3-2,0.4-2.5c0.1,0.4,0.3,1.1,0.4,1.5c0.3,1.4,0.5,2.4,1.3,2.4
				c0.8,0,0.9-1.1,1.3-4.6c0.1-0.9,0.2-2.2,0.4-3c0.2,1.2,0.3,3.4,0.4,5.1c0.4,5.8,0.6,6.7,1.3,6.7c0.8,0,0.9-1.1,1.3-4.6
				c0.1-1.1,0.3-2.8,0.5-3.5c0.1,0.4,0.3,1,0.4,1.4c0.3,1.4,0.5,2.4,1.3,2.4V20.5z"/>
		</g>
	</g>
</g>
<g id="_x32_d_red" display="none">
	<g display="inline">
		<g>
			<g>
				<rect x="0.8" y="3.8" fill="#FFFFFF" width="15.2" height="15.2"/>
			</g>
			<g>
				<circle fill="#A63C2D" cx="21.1" cy="14.3" r="7.7"/>
				<path fill="#FFFFFF" d="M21.1,22.5c-4.5,0-8.2-3.7-8.2-8.2c0-4.5,3.7-8.2,8.2-8.2c4.5,0,8.2,3.7,8.2,8.2
					C29.3,18.8,25.7,22.5,21.1,22.5z M21.1,7.1c-4,0-7.2,3.2-7.2,7.2s3.2,7.2,7.2,7.2s7.2-3.2,7.2-7.2S25.1,7.1,21.1,7.1z"/>
			</g>
			<g>
				<polygon fill="#6D271D" points="3.4,26.2 12,11.2 20.7,26.2 				"/>
			</g>
		</g>
	</g>
</g>
<g id="_x32_d_gray" display="none">
	<g display="inline">
		<g>
			<g>
				<rect x="0.8" y="3.8" fill="#FFFFFF" width="15.2" height="15.2"/>
			</g>
			<g>
				<circle fill="#565C5C" cx="21.1" cy="14.3" r="7.7"/>
				<path fill="#FFFFFF" d="M21.1,22.5c-4.5,0-8.2-3.7-8.2-8.2c0-4.5,3.7-8.2,8.2-8.2c4.5,0,8.2,3.7,8.2,8.2
					C29.3,18.8,25.7,22.5,21.1,22.5z M21.1,7.1c-4,0-7.2,3.2-7.2,7.2s3.2,7.2,7.2,7.2s7.2-3.2,7.2-7.2S25.1,7.1,21.1,7.1z"/>
			</g>
			<g>
				<polygon fill="#646868" points="3.4,26.2 12,11.2 20.7,26.2 				"/>
			</g>
		</g>
	</g>
</g>
<g id="video_red" display="none">
	<g display="inline">
		<rect x="2.7" y="11.7" fill="#6D271D" width="24.5" height="16.3"/>
		<polygon fill="#FFFFFF" points="25.3,2.1 1.7,7 2.8,11.4 26.3,6.5 		"/>
		<g>
			<polygon fill="#6D271D" points="2.4,6.8 1.8,7.4 2.2,9.3 5,6.2 			"/>
			<polygon fill="#6D271D" points="7.7,5.7 2.7,11.2 2.8,11.5 5,11 10.3,5.1 			"/>
			<polygon fill="#6D271D" points="13.1,4.5 7.7,10.4 10.4,9.9 15.8,4 			"/>
			<polygon fill="#6D271D" points="18.2,3.5 13,9.3 15.6,8.8 20.9,2.9 			"/>
			<polygon fill="#6D271D" points="25.3,2 23.5,2.4 18.3,8.2 20.9,7.7 25.5,2.6 			"/>
			<polygon fill="#6D271D" points="25.9,4.5 23.6,7.1 26.2,6.6 26.4,6.4 			"/>
		</g>
		<g>
			<circle fill="#A63C2D" cx="15" cy="19.7" r="4.9"/>
			<polygon fill="#FFFFFF" points="17.3,19.9 13.4,22 13.4,17.9 			"/>
		</g>
	</g>
</g>
<g id="video_gray" display="none">
	<g display="inline">
		<rect x="2.7" y="11.7" fill="#646868" width="24.5" height="16.3"/>
		<polygon fill="#FFFFFF" points="25.3,2.1 1.7,7 2.8,11.4 26.3,6.5 		"/>
		<g>
			<polygon fill="#565C5C" points="2.4,6.8 1.8,7.4 2.2,9.3 5,6.2 			"/>
			<polygon fill="#565C5C" points="7.7,5.7 2.7,11.2 2.8,11.5 5,11 10.3,5.1 			"/>
			<polygon fill="#565C5C" points="13.1,4.5 7.7,10.4 10.4,9.9 15.8,4 			"/>
			<polygon fill="#565C5C" points="18.2,3.5 13,9.3 15.6,8.8 20.9,2.9 			"/>
			<polygon fill="#565C5C" points="25.3,2 23.5,2.4 18.3,8.2 20.9,7.7 25.5,2.6 			"/>
			<polygon fill="#565C5C" points="25.9,4.5 23.6,7.1 26.2,6.6 26.4,6.4 			"/>
		</g>
		<g>
			<circle fill="#272A2A" cx="15" cy="19.7" r="4.9"/>
			<polygon fill="#FFFFFF" points="17.3,19.9 13.4,22 13.4,17.9 			"/>
		</g>
	</g>
</g>
<g id="images_red" display="none">
	<g display="inline">
		<g>
			<g>
				<polygon fill="#6D271D" points="4.1,27.5 2.8,27.5 3.3,26.4 3.7,26.5 4.1,26.5 4.1,26.7 4.2,26.8 4.1,27.2 				"/>
			</g>
			<g>
				<path fill="#6D271D" d="M4.7,25.9l-0.9-0.4l0.4-0.9l0.9,0.4L4.7,25.9z M5.6,24l-0.9-0.4l0.4-0.9L6,23.1L5.6,24z M6.4,22.1
					l-0.9-0.4L6,20.8l0.9,0.4L6.4,22.1z M7.3,20.2l-0.9-0.4l0.4-0.9l0.9,0.4L7.3,20.2z M8.2,18.4l-0.9-0.4L7.7,17l0.9,0.4L8.2,18.4z
					 M9.1,16.5l-0.9-0.4l0.4-0.9l0.9,0.4L9.1,16.5z M10,14.6L9,14.2l0.4-0.9l0.9,0.4L10,14.6z M10.8,12.8l-0.9-0.4l0.4-0.9l0.9,0.4
					L10.8,12.8z M11.7,10.9l-0.9-0.4l0.4-0.9l0.9,0.4L11.7,10.9z M12.6,9l-0.9-0.4l0.4-0.9L13,8.1L12.6,9z M13.5,7.1l-0.9-0.4
					L13,5.8l0.9,0.4L13.5,7.1z M14.4,5.3l-0.9-0.4l0.4-0.9l0.9,0.4L14.4,5.3z"/>
			</g>
			<g>
				<polygon fill="#6D271D" points="15.2,3.4 15,3.3 14.8,3.4 14.6,3.1 14.3,3 15,1.6 15.7,3 15.4,3.1 				"/>
			</g>
			<g>
				<path fill="#6D271D" d="M25.3,25.9l-0.4-0.9l0.9-0.4l0.4,0.9L25.3,25.9z M24.5,24L24,23.1l0.9-0.4l0.4,0.9L24.5,24z M23.6,22.1
					l-0.4-0.9l0.9-0.4l0.4,0.9L23.6,22.1z M22.7,20.2l-0.4-0.9l0.9-0.4l0.4,0.9L22.7,20.2z M21.8,18.4l-0.4-0.9l0.9-0.4l0.4,0.9
					L21.8,18.4z M20.9,16.5l-0.4-0.9l0.9-0.4l0.4,0.9L20.9,16.5z M20,14.6l-0.4-0.9l0.9-0.4l0.4,0.9L20,14.6z M19.2,12.8l-0.4-0.9
					l0.9-0.4l0.4,0.9L19.2,12.8z M18.3,10.9l-0.4-0.9l0.9-0.4l0.4,0.9L18.3,10.9z M17.4,9L17,8.1l0.9-0.4l0.4,0.9L17.4,9z M16.5,7.1
					l-0.4-0.9L17,5.8l0.4,0.9L16.5,7.1z M15.6,5.3l-0.4-0.9l0.9-0.4l0.4,0.9L15.6,5.3z"/>
			</g>
			<g>
				<polygon fill="#6D271D" points="27.2,27.5 25.9,27.5 25.9,27.2 25.8,26.8 25.9,26.7 25.9,26.5 26.3,26.5 26.7,26.4 				"/>
			</g>
			<g>
				<path fill="#6D271D" d="M24.9,27.5h-1v-1h1V27.5z M22.8,27.5h-1v-1h1V27.5z M20.7,27.5h-1v-1h1V27.5z M18.6,27.5h-1v-1h1V27.5z
					 M16.6,27.5h-1v-1h1V27.5z M14.5,27.5h-1v-1h1V27.5z M12.4,27.5h-1v-1h1V27.5z M10.3,27.5h-1v-1h1V27.5z M8.2,27.5h-1v-1h1V27.5
					z M6.1,27.5h-1v-1h1V27.5z"/>
			</g>
		</g>
		<rect x="2" y="9.5" fill="#6D271D" width="26" height="19"/>
		<circle fill="#FFFFFF" cx="15" cy="2.6" r="1.1"/>
		<rect x="2" y="23.1" fill="#A63C2D" width="26" height="5.4"/>
		<polygon fill="#FFFFFF" points="23.5,15.9 21.6,15.9 21.6,14 19.8,14 19.8,15.9 17.9,15.9 17.9,17.7 19.8,17.7 19.8,19.6 
			21.6,19.6 21.6,17.7 23.5,17.7 		"/>
		<polygon fill="#FFFFFF" points="16.6,13.5 15.5,13.5 15.5,12.4 14.6,12.4 14.6,13.5 13.5,13.5 13.5,14.4 14.6,14.4 14.6,15.5 
			15.5,15.5 15.5,14.4 16.6,14.4 		"/>
		<polygon fill="#FFFFFF" points="12.1,15.6 11.3,15.6 11.3,14.8 10.6,14.8 10.6,15.6 9.8,15.6 9.8,16.4 10.6,16.4 10.6,17.2 
			11.3,17.2 11.3,16.4 12.1,16.4 		"/>
		<g>
			<polygon fill="#FFFFFF" points="5.9,28.5 11.6,18.6 17.3,28.5 			"/>
			<polygon fill="#FFFFFF" points="2.6,28.5 7.4,20.1 12.2,28.5 			"/>
		</g>
	</g>
</g>
<g id="images_gray" display="none">
	<g display="inline">
		<g>
			<g>
				<polygon fill="#646868" points="4.1,27.5 2.8,27.5 3.3,26.4 3.7,26.5 4.1,26.5 4.1,26.7 4.2,26.8 4.1,27.2 				"/>
			</g>
			<g>
				<path fill="#646868" d="M4.7,25.9l-0.9-0.4l0.4-0.9l0.9,0.4L4.7,25.9z M5.6,24l-0.9-0.4l0.4-0.9L6,23.1L5.6,24z M6.4,22.1
					l-0.9-0.4L6,20.8l0.9,0.4L6.4,22.1z M7.3,20.2l-0.9-0.4l0.4-0.9l0.9,0.4L7.3,20.2z M8.2,18.4l-0.9-0.4L7.7,17l0.9,0.4L8.2,18.4z
					 M9.1,16.5l-0.9-0.4l0.4-0.9l0.9,0.4L9.1,16.5z M10,14.6L9,14.2l0.4-0.9l0.9,0.4L10,14.6z M10.8,12.8l-0.9-0.4l0.4-0.9l0.9,0.4
					L10.8,12.8z M11.7,10.9l-0.9-0.4l0.4-0.9l0.9,0.4L11.7,10.9z M12.6,9l-0.9-0.4l0.4-0.9L13,8.1L12.6,9z M13.5,7.1l-0.9-0.4
					L13,5.8l0.9,0.4L13.5,7.1z M14.4,5.3l-0.9-0.4l0.4-0.9l0.9,0.4L14.4,5.3z"/>
			</g>
			<g>
				<polygon fill="#646868" points="15.2,3.4 15,3.3 14.8,3.4 14.6,3.1 14.3,3 15,1.6 15.7,3 15.4,3.1 				"/>
			</g>
			<g>
				<path fill="#646868" d="M25.3,25.9l-0.4-0.9l0.9-0.4l0.4,0.9L25.3,25.9z M24.5,24L24,23.1l0.9-0.4l0.4,0.9L24.5,24z M23.6,22.1
					l-0.4-0.9l0.9-0.4l0.4,0.9L23.6,22.1z M22.7,20.2l-0.4-0.9l0.9-0.4l0.4,0.9L22.7,20.2z M21.8,18.4l-0.4-0.9l0.9-0.4l0.4,0.9
					L21.8,18.4z M20.9,16.5l-0.4-0.9l0.9-0.4l0.4,0.9L20.9,16.5z M20,14.6l-0.4-0.9l0.9-0.4l0.4,0.9L20,14.6z M19.2,12.8l-0.4-0.9
					l0.9-0.4l0.4,0.9L19.2,12.8z M18.3,10.9l-0.4-0.9l0.9-0.4l0.4,0.9L18.3,10.9z M17.4,9L17,8.1l0.9-0.4l0.4,0.9L17.4,9z M16.5,7.1
					l-0.4-0.9L17,5.8l0.4,0.9L16.5,7.1z M15.6,5.3l-0.4-0.9l0.9-0.4l0.4,0.9L15.6,5.3z"/>
			</g>
			<g>
				<polygon fill="#646868" points="27.2,27.5 25.9,27.5 25.9,27.2 25.8,26.8 25.9,26.7 25.9,26.5 26.3,26.5 26.7,26.4 				"/>
			</g>
			<g>
				<path fill="#646868" d="M24.9,27.5h-1v-1h1V27.5z M22.8,27.5h-1v-1h1V27.5z M20.7,27.5h-1v-1h1V27.5z M18.6,27.5h-1v-1h1V27.5z
					 M16.6,27.5h-1v-1h1V27.5z M14.5,27.5h-1v-1h1V27.5z M12.4,27.5h-1v-1h1V27.5z M10.3,27.5h-1v-1h1V27.5z M8.2,27.5h-1v-1h1V27.5
					z M6.1,27.5h-1v-1h1V27.5z"/>
			</g>
		</g>
		<rect x="2" y="9.5" fill="#646868" width="26" height="19"/>
		<circle fill="#FFFFFF" cx="15" cy="2.6" r="1.1"/>
		<rect x="2" y="23.1" fill="#565C5C" width="26" height="5.4"/>
		<polygon fill="#FFFFFF" points="23.5,15.9 21.6,15.9 21.6,14 19.8,14 19.8,15.9 17.9,15.9 17.9,17.7 19.8,17.7 19.8,19.6 
			21.6,19.6 21.6,17.7 23.5,17.7 		"/>
		<polygon fill="#FFFFFF" points="16.6,13.5 15.5,13.5 15.5,12.4 14.6,12.4 14.6,13.5 13.5,13.5 13.5,14.4 14.6,14.4 14.6,15.5 
			15.5,15.5 15.5,14.4 16.6,14.4 		"/>
		<polygon fill="#FFFFFF" points="12.1,15.6 11.3,15.6 11.3,14.8 10.6,14.8 10.6,15.6 9.8,15.6 9.8,16.4 10.6,16.4 10.6,17.2 
			11.3,17.2 11.3,16.4 12.1,16.4 		"/>
		<g>
			<polygon fill="#FFFFFF" points="5.9,28.5 11.6,18.6 17.3,28.5 			"/>
			<polygon fill="#FFFFFF" points="2.6,28.5 7.4,20.1 12.2,28.5 			"/>
		</g>
	</g>
</g>
<g id="app_red">
	<g>
		<g>
			<g enable-background="new    ">
				<defs>
					<polygon id="SVGID_1_" enable-background="new    " points="14.6,16.1 30,21.7 15.4,27.6 0,22 					"/>
				</defs>
				<clipPath id="SVGID_2_">
					<use xlink:href="#SVGID_1_"  overflow="visible"/>
				</clipPath>
				<g clip-path="url(#SVGID_2_)">
					<polyline fill="#A63C2D" points="15.4,27.6 0,22 14.6,16.1 30,21.7 15.4,27.6 					"/>
				</g>
			</g>
		</g>
		<g>
			<g enable-background="new    ">
				<defs>
					<polygon id="SVGID_3_" enable-background="new    " points="14.6,13.7 30,19.3 15.4,25.2 0,19.6 					"/>
				</defs>
				<clipPath id="SVGID_4_">
					<use xlink:href="#SVGID_3_"  overflow="visible"/>
				</clipPath>
				<g clip-path="url(#SVGID_4_)">
					<polyline fill="#6D271D" points="15.4,25.2 0,19.6 14.6,13.7 30,19.3 15.4,25.2 					"/>
				</g>
			</g>
		</g>
		<polygon fill="#FFFFFF" points="18.2,4.3 17,4.3 17,3.1 15.9,3.1 15.9,4.3 14.7,4.3 14.7,5.4 15.9,5.4 15.9,6.6 17,6.6 17,5.4 
			18.2,5.4 		"/>
		<polygon fill="#FFFFFF" points="14.3,3.2 13.5,3.2 13.5,2.4 12.7,2.4 12.7,3.2 11.9,3.2 11.9,4 12.7,4 12.7,4.8 13.5,4.8 13.5,4 
			14.3,4 		"/>
		<polygon fill="#FFFFFF" points="15.8,7.4 14.6,7.4 14.6,6.2 13.5,6.2 13.5,7.4 12.3,7.4 12.3,8.5 13.5,8.5 13.5,9.7 14.6,9.7 
			14.6,8.5 15.8,8.5 		"/>
		<g>
			<polygon fill="#A63C2D" points="10.8,19.6 17.1,8.8 23.3,19.6 			"/>
			<polygon fill="#A63C2D" points="7.2,19.6 12.5,10.4 17.8,19.6 			"/>
		</g>
	</g>
</g>
<g id="app_gray" display="none">
	<g display="inline">
		<g>
			<g enable-background="new    ">
				<defs>
					<polygon id="SVGID_5_" enable-background="new    " points="14.6,16.1 30,21.7 15.4,27.6 0,22 					"/>
				</defs>
				<use xlink:href="#SVGID_5_"  overflow="visible" fill="#676767"/>
				<clipPath id="SVGID_6_">
					<use xlink:href="#SVGID_5_"  overflow="visible"/>
				</clipPath>
				<g clip-path="url(#SVGID_6_)">
					<polyline fill="#646868" points="15.4,27.6 0,22 14.6,16.1 30,21.7 15.4,27.6 					"/>
				</g>
			</g>
		</g>
		<g>
			<g enable-background="new    ">
				<defs>
					<polygon id="SVGID_7_" enable-background="new    " points="14.6,13.7 30,19.3 15.4,25.2 0,19.6 					"/>
				</defs>
				<use xlink:href="#SVGID_7_"  overflow="visible" fill="#464646"/>
				<clipPath id="SVGID_8_">
					<use xlink:href="#SVGID_7_"  overflow="visible"/>
				</clipPath>
				<g clip-path="url(#SVGID_8_)">
					<polyline fill="#444747" points="15.4,25.2 0,19.6 14.6,13.7 30,19.3 15.4,25.2 					"/>
				</g>
			</g>
		</g>
		<polygon fill="#FFFFFF" points="18.2,4.3 17,4.3 17,3.1 15.9,3.1 15.9,4.3 14.7,4.3 14.7,5.4 15.9,5.4 15.9,6.6 17,6.6 17,5.4 
			18.2,5.4 		"/>
		<polygon fill="#FFFFFF" points="14.3,3.2 13.5,3.2 13.5,2.4 12.7,2.4 12.7,3.2 11.9,3.2 11.9,4 12.7,4 12.7,4.8 13.5,4.8 13.5,4 
			14.3,4 		"/>
		<polygon fill="#FFFFFF" points="15.8,7.4 14.6,7.4 14.6,6.2 13.5,6.2 13.5,7.4 12.3,7.4 12.3,8.5 13.5,8.5 13.5,9.7 14.6,9.7 
			14.6,8.5 15.8,8.5 		"/>
		<g>
			<polygon fill="#646868" points="10.8,19.6 17.1,8.8 23.3,19.6 			"/>
			<polygon fill="#646868" points="7.2,19.6 12.5,10.4 17.8,19.6 			"/>
		</g>
	</g>
</g>
<g id="platform_red" display="none">
	<g display="inline">
		<rect x="3" y="5.4" fill="#A63C2D" width="16.9" height="12.4"/>
		<rect x="4.2" y="7" fill="#6D271D" width="14.5" height="9.4"/>
		<rect x="0" y="21.7" fill="#6D271D" width="22.9" height="1.1"/>
		<polygon fill="#A63C2D" points="22.8,21.7 0,21.7 3,17.8 19.9,17.8 		"/>
		<rect x="2.8" y="17.3" fill="#6D271D" width="16.9" height="0.5"/>
		<g>
			<rect x="17.5" y="8.1" fill="#6D271D" width="10.5" height="15"/>
			<rect x="18.4" y="8.9" fill="#A63C2D" width="8.7" height="11.8"/>
			<rect x="22.1" y="21.4" fill="#A63C2D" width="1.3" height="1.1"/>
		</g>
		<g>
			<polygon fill="#FFFFFF" points="9.4,14.1 12.2,9.2 15,14.1 			"/>
			<polygon fill="#FFFFFF" points="7.8,14.1 10.2,10 12.5,14.1 			"/>
		</g>
		<g>
			<rect x="13.5" y="13.5" fill="#6D271D" width="6.2" height="11"/>
			<rect x="14.2" y="14.3" fill="#A63C2D" width="4.7" height="8.1"/>
			<rect x="16.2" y="22.9" fill="#A63C2D" width="0.7" height="0.8"/>
		</g>
		<g>
			<polygon fill="#FFFFFF" points="15.7,19 16.9,16.9 18.2,19 			"/>
			<polygon fill="#FFFFFF" points="15,19 16,17.2 17.1,19 			"/>
		</g>
		<g>
			<polygon fill="#FFFFFF" points="21.4,16 23.3,12.7 25.2,16 			"/>
			<polygon fill="#FFFFFF" points="20.3,16 21.9,13.2 23.5,16 			"/>
		</g>
	</g>
</g>
<g id="platform_gray" display="none">
	<g display="inline">
		<rect x="3" y="5.4" fill="#646868" width="16.9" height="12.4"/>
		<rect x="4.2" y="7" fill="#444747" width="14.5" height="9.4"/>
		<rect x="0" y="21.7" fill="#444747" width="22.9" height="1.1"/>
		<polygon fill="#646868" points="22.8,21.7 0,21.7 3,17.8 19.9,17.8 		"/>
		<rect x="2.8" y="17.3" fill="#444747" width="16.9" height="0.5"/>
		<g>
			<rect x="17.5" y="8.1" fill="#444747" width="10.5" height="15"/>
			<rect x="18.4" y="8.9" fill="#646868" width="8.7" height="11.8"/>
			<rect x="22.1" y="21.4" fill="#646868" width="1.3" height="1.1"/>
		</g>
		<g>
			<polygon fill="#FFFFFF" points="9.4,14.1 12.2,9.2 15,14.1 			"/>
			<polygon fill="#FFFFFF" points="7.8,14.1 10.2,10 12.5,14.1 			"/>
		</g>
		<g>
			<rect x="13.5" y="13.5" fill="#444747" width="6.2" height="11"/>
			<rect x="14.2" y="14.3" fill="#646868" width="4.7" height="8.1"/>
			<rect x="16.2" y="22.9" fill="#646868" width="0.7" height="0.8"/>
		</g>
		<g>
			<polygon fill="#FFFFFF" points="15.7,19 16.9,16.9 18.2,19 			"/>
			<polygon fill="#FFFFFF" points="15,19 16,17.2 17.1,19 			"/>
		</g>
		<g>
			<polygon fill="#FFFFFF" points="21.4,16 23.3,12.7 25.2,16 			"/>
			<polygon fill="#FFFFFF" points="20.3,16 21.9,13.2 23.5,16 			"/>
		</g>
	</g>
</g>
</svg>
