<?xml version="1.0" encoding="utf-8"?>
<!-- Generator: Adobe Illustrator 18.0.0, SVG Export Plug-In . SVG Version: 6.00 Build 0)  -->
<!DOCTYPE svg PUBLIC "-//W3C//DTD SVG 1.1//EN" "http://www.w3.org/Graphics/SVG/1.1/DTD/svg11.dtd">
<svg version="1.1" id="math_gray" xmlns="http://www.w3.org/2000/svg" xmlns:xlink="http://www.w3.org/1999/xlink" x="0px" y="0px"
	 viewBox="0 0 30 30" enable-background="new 0 0 30 30" xml:space="preserve">
<g>
	<circle fill="#565C5C" cx="15" cy="15" r="11.3"/>
	<circle fill="#444747" cx="15" cy="15" r="9.2"/>
	<g>
		<g>
			<path fill="#FFFFFF" d="M11.6,3.6c0.4-1.6,2.2-3.1,4-3.1c0.7,0,1.3,0.3,1.3,1.1c0,0.6-0.5,1.1-1.1,1.1c-0.4,0-0.7-0.3-0.7-0.7
				s0.4-0.5,0.4-0.7s-0.1-0.2-0.3-0.2C14.6,1,14.1,3,14,3.4l-2.4,9.5h2.8V14h-3.1L9,23.4c-0.2,0.9-0.6,1.6-1.2,2.2s-2,0.9-2.8,0.9
				c-0.7,0-1.3-0.3-1.3-1.1c0-0.6,0.5-1.1,1.1-1.1c0.4,0,0.7,0.3,0.7,0.7s-0.4,0.5-0.4,0.7c0,0.1,0.1,0.2,0.3,0.2
				c0.7,0,1.1-1.9,1.3-2.4L9,14.1H6.3V13h3L11.6,3.6z"/>
			<path fill="#FFFFFF" d="M13.1,20.5c0-2.7,1.8-4.7,3.4-5.6l0.5,0.7c-1.5,0.9-2.8,2.5-2.8,4.9s1.3,3.9,2.8,4.9l-0.5,0.7
				C14.9,25.2,13.1,23.2,13.1,20.5z"/>
			<path fill="#FFFFFF" d="M17,22.6h0.7l1.6-1.7l-1.5-1.6h-0.6v-0.9h2.3v0.8h-0.6l1,1.2l1-1.2h-0.6v-0.8h2.3v0.9h-0.7l-1.5,1.6
				l1.6,1.7h0.7v0.9h-2.3v-0.8H21l-1.1-1.3l-1.1,1.3h0.7v0.8H17V22.6z"/>
			<path fill="#FFFFFF" d="M22.7,25.4c1.5-0.9,2.8-2.5,2.8-4.9s-1.3-3.9-2.8-4.9l0.5-0.7c1.6,0.9,3.4,2.9,3.4,5.6
				c0,2.8-1.8,4.7-3.4,5.6L22.7,25.4z"/>
		</g>
	</g>
</g>
</svg>
