<?xml version="1.0" encoding="utf-8"?>
<!-- Generator: Adobe Illustrator 18.0.0, SVG Export Plug-In . SVG Version: 6.00 Build 0)  -->
<!DOCTYPE svg PUBLIC "-//W3C//DTD SVG 1.1//EN" "http://www.w3.org/Graphics/SVG/1.1/DTD/svg11.dtd">
<svg version="1.1" id="opengl_gray" xmlns="http://www.w3.org/2000/svg" xmlns:xlink="http://www.w3.org/1999/xlink" x="0px"
	 y="0px" width="30px" height="30px" viewBox="0 0 30 30" enable-background="new 0 0 30 30" xml:space="preserve">
<g>
	<path fill-rule="evenodd" clip-rule="evenodd" fill="#2E3030" d="M6.6,18.1c-1.9,0-2.4-1.6-2.4-2.6c0-1.1,0.6-2.6,2.4-2.6
		c1.9,0,2.4,1.6,2.4,2.6C9,16.5,8.4,18.1,6.6,18.1L6.6,18.1z M6.6,13.4c-1.1,0-1.7,0.9-1.7,2c0,1.2,0.7,2,1.7,2c1.1,0,1.7-0.9,1.7-2
		C8.3,14.3,7.7,13.4,6.6,13.4L6.6,13.4z M9.4,14.8h0.5v0.5h0c0.1-0.2,0.4-0.5,1-0.5c0.8,0,1.5,0.7,1.5,1.6c0,0.8-0.4,1.8-1.5,1.8
		c-0.4,0-0.7-0.2-0.8-0.4h0v1.6H9.4V14.8L9.4,14.8z M10.7,17.6c0.6,0,1-0.5,1-1.2c0-0.4-0.2-1.2-1-1.2c-0.8,0-0.9,0.8-0.9,1.4
		C9.9,17.3,10.4,17.6,10.7,17.6L10.7,17.6z M15.6,16.9c0,0.2-0.2,0.6-0.6,0.9c-0.1,0.1-0.4,0.2-0.9,0.2c-0.9,0-1.4-0.7-1.4-1.6
		c0-1,0.5-1.8,1.5-1.8c0.9,0,1.4,0.7,1.4,1.9h-2.3c0,0.7,0.3,1,0.9,1c0.5,0,0.8-0.4,0.8-0.6H15.6L15.6,16.9z M15,16.1
		c0-0.5-0.2-1-0.9-1c-0.5,0-0.9,0.5-0.9,1H15L15,16.1z M18.6,17.9H18v-2c0-0.6-0.2-0.8-0.7-0.8c-0.3,0-0.8,0.2-0.8,1.1v1.7H16v-3.2
		h0.5v0.5h0c0.1-0.2,0.4-0.5,1-0.5c0.5,0,1.1,0.2,1.1,1.1V17.9L18.6,17.9z"/>
	<path fill-rule="evenodd" clip-rule="evenodd" fill="#2E3030" d="M21.7,15.3h2.1v2.7h-0.7L23,17.3c-0.3,0.3-0.6,0.8-1.6,0.8
		c-1.2,0-2.3-0.9-2.3-2.6c0-1.4,0.8-2.6,2.4-2.6c1.5,0,2.1,1,2.2,1.7h-1c0-0.2-0.4-0.8-1.1-0.8c-0.7,0-1.4,0.5-1.4,1.8
		c0,1.4,0.7,1.7,1.5,1.7c0.2,0,1-0.1,1.2-1.1h-1.2V15.3L21.7,15.3z"/>
	<path fill-rule="evenodd" clip-rule="evenodd" fill="#2E3030" d="M1,15.3c0,3,4.6,6,10.5,5.9c5.9,0,8.9-2.8,8.9-2.8
		c0.4-0.5-0.3-0.2-0.3-0.2c-1,0.7-4.1,2.1-8.9,1.6c-5.1-0.6-6.7-2-7-3.4l-0.1-0.8c0-0.5,0.1-1.1,0.3-1.7c0.5-1.1,2.1-2.7,6.7-3.1
		c4.8-0.5,7.9,0.9,8.9,1.6c0,0,0.7,0.3,0.3-0.2c0,0-3-2.8-8.9-2.8C5.6,9.3,1,12.3,1,15.3L1,15.3z"/>
	<polygon fill-rule="evenodd" clip-rule="evenodd" fill="#2E3030" points="25.5,17 28,17 28,17.9 24.5,17.9 24.5,13 25.5,13 
		25.5,17 	"/>
	<path fill-rule="evenodd" clip-rule="evenodd" fill="#2E3030" d="M28.6,17.5L28.6,17.5l-0.1,0v0.4h-0.1v-0.4h-0.1v0H28.6L28.6,17.5
		z M28.7,17.5l0.1,0.3h0l0.1-0.3H29v0.4h0v-0.4h0l-0.1,0.4h0L28.7,17.5L28.7,17.5l0,0.4h0L28.7,17.5L28.7,17.5L28.7,17.5z"/>
</g>
<g>
	<path fill-rule="evenodd" clip-rule="evenodd" fill="#FFFFFF" d="M6.6,17.6c-1.9,0-2.4-1.6-2.4-2.6c0-1.1,0.6-2.6,2.4-2.6
		c1.9,0,2.4,1.6,2.4,2.6C9,16,8.4,17.6,6.6,17.6L6.6,17.6z M6.6,12.9c-1.1,0-1.7,0.9-1.7,2c0,1.2,0.7,2,1.7,2c1.1,0,1.7-0.9,1.7-2
		C8.3,13.8,7.7,12.9,6.6,12.9L6.6,12.9z M9.4,14.2h0.5v0.5h0c0.1-0.2,0.4-0.5,1-0.5c0.8,0,1.5,0.7,1.5,1.6c0,0.8-0.4,1.8-1.5,1.8
		c-0.4,0-0.7-0.2-0.8-0.4h0v1.6H9.4V14.2L9.4,14.2z M10.7,17.1c0.6,0,1-0.5,1-1.2c0-0.4-0.2-1.2-1-1.2c-0.8,0-0.9,0.8-0.9,1.4
		C9.9,16.8,10.4,17.1,10.7,17.1L10.7,17.1z M15.6,16.4c0,0.2-0.2,0.6-0.6,0.9c-0.1,0.1-0.4,0.2-0.9,0.2c-0.9,0-1.4-0.7-1.4-1.6
		c0-1,0.5-1.8,1.5-1.8c0.9,0,1.4,0.7,1.4,1.9h-2.3c0,0.7,0.3,1,0.9,1c0.5,0,0.8-0.4,0.8-0.6H15.6L15.6,16.4z M15,15.6
		c0-0.5-0.2-1-0.9-1c-0.5,0-0.9,0.5-0.9,1H15L15,15.6z M18.6,17.4H18v-2c0-0.6-0.2-0.8-0.7-0.8c-0.3,0-0.8,0.2-0.8,1.1v1.7H16v-3.2
		h0.5v0.5h0c0.1-0.2,0.4-0.5,1-0.5c0.5,0,1.1,0.2,1.1,1.1V17.4L18.6,17.4z"/>
	<path fill-rule="evenodd" clip-rule="evenodd" fill="#FFFFFF" d="M21.7,14.7h2.1v2.7h-0.7L23,16.8c-0.3,0.3-0.6,0.8-1.6,0.8
		c-1.2,0-2.3-0.9-2.3-2.6c0-1.4,0.8-2.6,2.4-2.6c1.5,0,2.1,1,2.2,1.7h-1c0-0.2-0.4-0.8-1.1-0.8c-0.7,0-1.4,0.5-1.4,1.8
		c0,1.4,0.7,1.7,1.5,1.7c0.2,0,1-0.1,1.2-1.1h-1.2V14.7L21.7,14.7z"/>
	<path fill-rule="evenodd" clip-rule="evenodd" fill="#FFFFFF" d="M1,14.7c0,3,4.6,6,10.5,5.9c5.9,0,8.9-2.8,8.9-2.8
		c0.4-0.5-0.3-0.2-0.3-0.2c-1,0.7-4.1,2.1-8.9,1.6c-5.1-0.6-6.7-2-7-3.4L4.1,15c0-0.5,0.1-1.1,0.3-1.7c0.5-1.1,2.1-2.7,6.7-3.1
		c4.8-0.5,7.9,0.9,8.9,1.6c0,0,0.7,0.3,0.3-0.2c0,0-3-2.8-8.9-2.8C5.6,8.8,1,11.7,1,14.7L1,14.7z"/>
	<polygon fill-rule="evenodd" clip-rule="evenodd" fill="#FFFFFF" points="25.5,16.5 28,16.5 28,17.4 24.5,17.4 24.5,12.4 
		25.5,12.4 25.5,16.5 	"/>
	<path fill-rule="evenodd" clip-rule="evenodd" fill="#FFFFFF" d="M28.6,17L28.6,17l-0.1,0v0.4h-0.1V17h-0.1v0H28.6L28.6,17z
		 M28.7,17l0.1,0.3h0l0.1-0.3H29v0.4h0V17h0l-0.1,0.4h0L28.7,17L28.7,17l0,0.4h0L28.7,17L28.7,17L28.7,17z"/>
</g>
</svg>
