<?xml version="1.0" encoding="utf-8"?>
<!-- Generator: Adobe Illustrator 18.0.0, SVG Export Plug-In . SVG Version: 6.00 Build 0)  -->
<!DOCTYPE svg PUBLIC "-//W3C//DTD SVG 1.1//EN" "http://www.w3.org/Graphics/SVG/1.1/DTD/svg11.dtd">
<svg version="1.1" id="Layer_1" xmlns="http://www.w3.org/2000/svg" xmlns:xlink="http://www.w3.org/1999/xlink" x="0px" y="0px"
	 width="30px" height="30px" viewBox="0 0 30 30" enable-background="new 0 0 30 30" xml:space="preserve">
<g id="platform_gray">
	<g>
		<rect x="3" y="5.4" fill="#646868" width="16.9" height="12.4"/>
		<rect x="4.2" y="7" fill="#444747" width="14.5" height="9.4"/>
		<rect x="0" y="21.7" fill="#444747" width="22.9" height="1.1"/>
		<polygon fill="#646868" points="22.8,21.7 0,21.7 3,17.8 19.9,17.8 		"/>
		<rect x="2.8" y="17.3" fill="#444747" width="16.9" height="0.5"/>
		<g>
			<rect x="17.5" y="8.1" fill="#444747" width="10.5" height="15"/>
			<rect x="18.4" y="8.9" fill="#646868" width="8.7" height="11.8"/>
			<rect x="22.1" y="21.4" fill="#646868" width="1.3" height="1.1"/>
		</g>
		<g>
			<polygon fill="#FFFFFF" points="9.4,14.1 12.2,9.2 15,14.1 			"/>
			<polygon fill="#FFFFFF" points="7.8,14.1 10.2,10 12.5,14.1 			"/>
		</g>
		<g>
			<rect x="13.5" y="13.5" fill="#444747" width="6.2" height="11"/>
			<rect x="14.2" y="14.3" fill="#646868" width="4.7" height="8.1"/>
			<rect x="16.2" y="22.9" fill="#646868" width="0.7" height="0.8"/>
		</g>
		<g>
			<polygon fill="#FFFFFF" points="15.7,19 16.9,16.9 18.2,19 			"/>
			<polygon fill="#FFFFFF" points="15,19 16,17.2 17.1,19 			"/>
		</g>
		<g>
			<polygon fill="#FFFFFF" points="21.4,16 23.3,12.7 25.2,16 			"/>
			<polygon fill="#FFFFFF" points="20.3,16 21.9,13.2 23.5,16 			"/>
		</g>
	</g>
</g>
</svg>
