<?xml version="1.0" encoding="utf-8"?>
<!-- Generator: Adobe Illustrator 18.0.0, SVG Export Plug-In . SVG Version: 6.00 Build 0)  -->
<!DOCTYPE svg PUBLIC "-//W3C//DTD SVG 1.1//EN" "http://www.w3.org/Graphics/SVG/1.1/DTD/svg11.dtd">
<svg version="1.1" id="system_gray" xmlns="http://www.w3.org/2000/svg" xmlns:xlink="http://www.w3.org/1999/xlink" x="0px"
	 y="0px" viewBox="0 0 30 30" enable-background="new 0 0 30 30" xml:space="preserve">
<g>
	<g>
		<g>
			<g>
				<path fill="#646868" d="M10,27c-0.5-0.1-0.5-1.9-0.9-2c-0.5-0.2-1.5,1.3-2,1.1c-0.4-0.2,0-2-0.4-2.2c-0.4-0.3-1.8,0.9-2.2,0.6
					c-0.4-0.3,0.5-1.9,0.1-2.2c-0.3-0.3-2,0.4-2.2,0.1c-0.3-0.4,0.9-1.7,0.7-2.1c-0.2-0.4-2-0.1-2.2-0.5s1.3-1.5,1.2-1.9
					c-0.1-0.5-1.9-0.5-2-1s1.6-1.1,1.6-1.6S0,14.3,0,13.8s1.8-0.7,1.9-1.1C2,12,0.5,11.1,0.6,10.6c0.2-0.5,1.9-0.2,2.1-0.6
					C3,9.6,1.7,8.3,2,7.9s1.9,0.3,2.2-0.1c0.3-0.4-0.6-1.9-0.3-2.2C4.3,5.3,5.8,6.3,6.1,6C6.5,5.7,6,4,6.4,3.8s1.6,1.1,2,0.9
					c0.4-0.2,0.3-2,0.8-2.1S10.5,4.1,11,4s0.8-1.8,1.3-1.9c0.5,0,0.9,1.7,1.4,1.8c0.5,0,1.2-1.6,1.7-1.5c0.5,0.1,0.5,1.9,0.9,2
					c0.5,0.2,1.5-1.3,2-1.1c0.4,0.2,0,2,0.4,2.2c0.4,0.3,1.8-0.9,2.2-0.6c0.4,0.3-0.5,1.9-0.1,2.2c0.3,0.3,2-0.4,2.2-0.1
					c0.3,0.4-0.9,1.7-0.7,2.1c0.2,0.4,2,0.1,2.2,0.5s-1.3,1.5-1.2,1.9c0.1,0.5,1.9,0.5,2,1s-1.6,1.1-1.6,1.6s1.7,1,1.7,1.5
					s-1.8,0.7-1.9,1.1c-0.1,0.5,1.4,1.4,1.3,1.8c-0.2,0.5-1.9,0.2-2.1,0.6s1.1,1.7,0.8,2.1c-0.3,0.4-1.9-0.3-2.2,0.1
					c-0.3,0.4,0.6,1.9,0.3,2.2c-0.3,0.3-1.8-0.7-2.2-0.4c-0.4,0.3,0.2,2-0.3,2.2c-0.4,0.2-1.6-1.1-2-0.9s-0.3,2-0.8,2.1
					S15,25,14.5,25.1s-0.8,1.8-1.3,1.9c-0.5,0-0.9-1.7-1.4-1.8C11.2,25.4,10.5,27.1,10,27z"/>
				<path fill="#2E3030" d="M10.7,24c-5.2-1.1-8.5-6.1-7.4-11.2s6.2-8.4,11.4-7.3s8.5,6.1,7.4,11.2S15.8,25,10.7,24z"/>
				<path fill="#646868" d="M22.6,16.3l-5.2-1.1c0.3-2.3-1.2-4.5-3.4-5.2l1.1-5.1L14,4.7l-1.1,5.1c-2.4-0.2-4.6,1.2-5.3,3.4
					l-5.2-1.1l-0.2,1.1l5.2,1.1c-0.2,2.3,1.2,4.4,3.4,5.1l-1.1,5.2l1.1,0.2l1.1-5.2c2.3,0.2,4.5-1.2,5.2-3.3l5.3,1.1L22.6,16.3z"/>
			</g>
			<circle fill="#2E3030" cx="12.4" cy="14.8" r="2.1"/>
		</g>
	</g>
	<g>
		<path fill="#646868" d="M25.6,25.2c-2.2,1.1-4.8,0.2-5.9-1.9s-0.3-4.7,1.9-5.8c2.2-1.1,4.8-0.2,5.9,1.9S27.8,24.1,25.6,25.2z"/>
		<polygon fill="#2E3030" points="19.8,23.6 19.6,23.2 27.4,19.2 27.6,19.6 		"/>
		<polygon fill="#2E3030" points="25.8,25.1 25.4,25.3 21.4,17.6 21.8,17.4 		"/>
		<path fill="#2E3030" d="M24.5,23.2c-1,0.5-2.2,0.1-2.7-0.9s-0.1-2.2,0.9-2.7s2.2-0.1,2.7,0.9S25.5,22.7,24.5,23.2z"/>
		<path fill="#FFFFFF" d="M30,22.7c0.1-0.4-1.2-1-1.2-1.4s1.2-1,1.1-1.5c-0.1-0.4-1.5-0.4-1.7-0.8s0.6-1.5,0.3-1.8
			c-0.3-0.3-1.5,0.3-1.8,0c-0.4-0.3-0.1-1.6-0.5-1.8s-1.2,0.9-1.6,0.8s-0.8-1.4-1.2-1.4c-0.4,0-0.7,1.4-1.1,1.5s-1.3-1-1.7-0.8
			c-0.4,0.2-0.1,1.5-0.4,1.8s-1.6-0.3-1.8,0c-0.3,0.3,0.6,1.4,0.4,1.8s-1.5,0.4-1.6,0.8s1.2,1,1.2,1.4s-1.2,1-1.1,1.5
			c0.1,0.4,1.5,0.4,1.7,0.8s-0.6,1.5-0.3,1.8c0.3,0.3,1.5-0.3,1.8,0c0.4,0.3,0.1,1.6,0.5,1.8c0.4,0.2,1.2-0.9,1.6-0.8
			s0.8,1.4,1.2,1.4c0.4,0,0.7-1.4,1.1-1.5s1.3,1,1.7,0.8c0.4-0.2,0.1-1.5,0.4-1.8s1.6,0.3,1.8,0c0.3-0.3-0.6-1.4-0.4-1.8
			C28.5,23.1,29.9,23.1,30,22.7z M25.6,25.2c-2.2,1.1-4.8,0.2-5.9-1.9s-0.3-4.7,1.9-5.8c2.2-1.1,4.8-0.2,5.9,1.9
			C28.6,21.5,27.8,24.1,25.6,25.2z"/>
	</g>
</g>
</svg>
