# This file uses centimeters as units for non-parametric coordinates.

mtllib losphere.mtl
g default
v 1.320327 -1.423035 -0.599120
v 0.972517 -1.423035 -1.077840
v 0.460063 -1.423035 -1.373706
v -0.128427 -1.423035 -1.435559
v -0.691197 -1.423035 -1.252704
v -1.130938 -1.423035 -0.856759
v -1.371617 -1.423035 -0.316186
v -1.371618 -1.423035 0.275545
v -1.130939 -1.423035 0.816118
v -0.691197 -1.423035 1.212064
v -0.128428 -1.423035 1.394919
v 0.460062 -1.423035 1.333066
v 0.972516 -1.423035 1.037201
v 1.320327 -1.423035 0.558480
v 1.443355 -1.423035 -0.020320
v 1.858808 0.000000 -0.838867
v 1.366929 0.000000 -1.515880
v 0.642210 0.000000 -1.934297
v -0.190040 0.000000 -2.021771
v -0.985916 0.000000 -1.763175
v -1.607806 0.000000 -1.203224
v -1.948177 0.000000 -0.438738
v -1.948177 0.000000 0.398096
v -1.607806 0.000000 1.162582
v -0.985918 0.000000 1.722534
v -0.190041 0.000000 1.981130
v 0.642209 0.000000 1.893657
v 1.366929 0.000000 1.475240
v 1.858808 0.000000 0.798227
v 2.032795 0.000000 -0.020320
v 1.320327 1.423035 -0.599120
v 0.972517 1.423035 -1.077840
v 0.460063 1.423035 -1.373706
v -0.128427 1.423035 -1.435559
v -0.691197 1.423035 -1.252704
v -1.130938 1.423035 -0.856759
v -1.371617 1.423035 -0.316186
v -1.371618 1.423035 0.275545
v -1.130939 1.423035 0.816118
v -0.691197 1.423035 1.212064
v -0.128428 1.423035 1.394919
v 0.460062 1.423035 1.333066
v 0.972516 1.423035 1.037201
v 1.320327 1.423035 0.558480
v 1.443355 1.423035 -0.020320
v 0.020320 -2.012475 -0.020320
v 0.020320 2.012475 -0.020320
vt 0.000000 0.250000
vt 0.066667 0.250000
vt 0.133333 0.250000
vt 0.200000 0.250000
vt 0.266667 0.250000
vt 0.333333 0.250000
vt 0.400000 0.250000
vt 0.466667 0.250000
vt 0.533333 0.250000
vt 0.600000 0.250000
vt 0.666667 0.250000
vt 0.733333 0.250000
vt 0.800000 0.250000
vt 0.866667 0.250000
vt 0.933333 0.250000
vt 1.000000 0.250000
vt 0.000000 0.500000
vt 0.066667 0.500000
vt 0.133333 0.500000
vt 0.200000 0.500000
vt 0.266667 0.500000
vt 0.333333 0.500000
vt 0.400000 0.500000
vt 0.466667 0.500000
vt 0.533333 0.500000
vt 0.600000 0.500000
vt 0.666667 0.500000
vt 0.733333 0.500000
vt 0.800000 0.500000
vt 0.866667 0.500000
vt 0.933333 0.500000
vt 1.000000 0.500000
vt 0.000000 0.750000
vt 0.066667 0.750000
vt 0.133333 0.750000
vt 0.200000 0.750000
vt 0.266667 0.750000
vt 0.333333 0.750000
vt 0.400000 0.750000
vt 0.466667 0.750000
vt 0.533333 0.750000
vt 0.600000 0.750000
vt 0.666667 0.750000
vt 0.733333 0.750000
vt 0.800000 0.750000
vt 0.866667 0.750000
vt 0.933333 0.750000
vt 1.000000 0.750000
vt 0.033333 0.000000
vt 0.100000 0.000000
vt 0.166667 0.000000
vt 0.233333 0.000000
vt 0.300000 0.000000
vt 0.366667 0.000000
vt 0.433333 0.000000
vt 0.500000 0.000000
vt 0.566667 0.000000
vt 0.633333 0.000000
vt 0.700000 0.000000
vt 0.766667 0.000000
vt 0.833333 0.000000
vt 0.900000 0.000000
vt 0.966667 0.000000
vt 0.033333 1.000000
vt 0.100000 1.000000
vt 0.166667 1.000000
vt 0.233333 1.000000
vt 0.300000 1.000000
vt 0.366667 1.000000
vt 0.433333 1.000000
vt 0.500000 1.000000
vt 0.566667 1.000000
vt 0.633333 1.000000
vt 0.700000 1.000000
vt 0.766667 1.000000
vt 0.833333 1.000000
vt 0.900000 1.000000
vt 0.966667 1.000000
vn 0.844006 -0.382683 -0.375776
vn 0.618196 -0.382683 -0.686576
vn 0.618196 -0.382683 -0.686576
vn 0.844006 -0.382683 -0.375776
vn 0.285495 -0.382683 -0.878662
vn 0.285495 -0.382683 -0.878662
vn -0.096571 -0.382683 -0.918818
vn -0.096571 -0.382683 -0.918818
vn -0.461939 -0.382683 -0.800103
vn -0.461939 -0.382683 -0.800103
vn -0.747434 -0.382683 -0.543043
vn -0.747434 -0.382683 -0.543043
vn -0.903690 -0.382683 -0.192086
vn -0.903690 -0.382683 -0.192086
vn -0.903691 -0.382683 0.192085
vn -0.903691 -0.382683 0.192085
vn -0.747434 -0.382683 0.543042
vn -0.747434 -0.382683 0.543042
vn -0.461940 -0.382683 0.800103
vn -0.461940 -0.382683 0.800103
vn -0.096572 -0.382683 0.918818
vn -0.096572 -0.382683 0.918818
vn 0.285494 -0.382684 0.878662
vn 0.285494 -0.382684 0.878662
vn 0.618196 -0.382683 0.686576
vn 0.618196 -0.382683 0.686576
vn 0.844006 -0.382683 0.375776
vn 0.844006 -0.382683 0.375776
vn 0.923880 -0.382684 -0.000000
vn 0.923880 -0.382684 -0.000000
vn 0.844006 0.382683 -0.375776
vn 0.618196 0.382683 -0.686576
vn 0.618196 0.382683 -0.686576
vn 0.844006 0.382683 -0.375776
vn 0.285495 0.382683 -0.878662
vn 0.285495 0.382683 -0.878662
vn -0.096571 0.382683 -0.918818
vn -0.096571 0.382683 -0.918818
vn -0.461939 0.382683 -0.800103
vn -0.461939 0.382683 -0.800103
vn -0.747434 0.382683 -0.543043
vn -0.747434 0.382683 -0.543043
vn -0.903690 0.382683 -0.192086
vn -0.903690 0.382683 -0.192086
vn -0.903691 0.382683 0.192085
vn -0.903691 0.382683 0.192085
vn -0.747434 0.382683 0.543042
vn -0.747434 0.382683 0.543042
vn -0.461940 0.382683 0.800103
vn -0.461940 0.382683 0.800103
vn -0.096572 0.382683 0.918818
vn -0.096572 0.382683 0.918818
vn 0.285494 0.382684 0.878662
vn 0.285494 0.382684 0.878662
vn 0.618196 0.382683 0.686576
vn 0.618196 0.382683 0.686576
vn 0.844006 0.382683 0.375776
vn 0.844006 0.382683 0.375776
vn 0.923880 0.382683 -0.000000
vn 0.923880 0.382683 -0.000000
vn 0.256065 -0.923880 -0.284389
vn 0.349599 -0.923880 -0.155651
vn 0.000000 -1.000000 -0.000000
vn 0.118256 -0.923880 -0.363954
vn -0.040001 -0.923880 -0.380587
vn -0.191342 -0.923880 -0.331414
vn -0.309597 -0.923879 -0.224936
vn -0.374321 -0.923879 -0.079565
vn -0.374321 -0.923880 0.079564
vn -0.309598 -0.923880 0.224935
vn -0.191342 -0.923879 0.331414
vn -0.040001 -0.923880 0.380587
vn 0.118256 -0.923880 0.363954
vn 0.256065 -0.923880 0.284389
vn 0.349599 -0.923880 0.155651
vn 0.382684 -0.923880 -0.000000
vn 0.349599 0.923880 -0.155651
vn 0.256065 0.923880 -0.284389
vn 0.000000 1.000000 -0.000000
vn 0.118256 0.923880 -0.363954
vn -0.040001 0.923880 -0.380587
vn -0.191342 0.923880 -0.331414
vn -0.309597 0.923880 -0.224936
vn -0.374321 0.923880 -0.079565
vn -0.374321 0.923880 0.079564
vn -0.309598 0.923880 0.224935
vn -0.191342 0.923879 0.331414
vn -0.040001 0.923880 0.380587
vn 0.118256 0.923879 0.363954
vn 0.256065 0.923880 0.284389
vn 0.349599 0.923880 0.155651
vn 0.382684 0.923880 -0.000000
s 1
g pSphere1
usemtl initialShadingGroup
f 1/1/1 2/2/2 17/18/3 16/17/4
f 2/2/2 3/3/5 18/19/6 17/18/3
f 3/3/5 4/4/7 19/20/8 18/19/6
f 4/4/7 5/5/9 20/21/10 19/20/8
f 5/5/9 6/6/11 21/22/12 20/21/10
f 6/6/11 7/7/13 22/23/14 21/22/12
f 7/7/13 8/8/15 23/24/16 22/23/14
f 8/8/15 9/9/17 24/25/18 23/24/16
f 9/9/17 10/10/19 25/26/20 24/25/18
f 10/10/19 11/11/21 26/27/22 25/26/20
f 11/11/21 12/12/23 27/28/24 26/27/22
f 12/12/23 13/13/25 28/29/26 27/28/24
f 13/13/25 14/14/27 29/30/28 28/29/26
f 14/14/27 15/15/29 30/31/30 29/30/28
f 15/15/29 1/16/1 16/32/4 30/31/30
s 2
f 16/17/31 17/18/32 32/34/33 31/33/34
f 17/18/32 18/19/35 33/35/36 32/34/33
f 18/19/35 19/20/37 34/36/38 33/35/36
f 19/20/37 20/21/39 35/37/40 34/36/38
f 20/21/39 21/22/41 36/38/42 35/37/40
f 21/22/41 22/23/43 37/39/44 36/38/42
f 22/23/43 23/24/45 38/40/46 37/39/44
f 23/24/45 24/25/47 39/41/48 38/40/46
f 24/25/47 25/26/49 40/42/50 39/41/48
f 25/26/49 26/27/51 41/43/52 40/42/50
f 26/27/51 27/28/53 42/44/54 41/43/52
f 27/28/53 28/29/55 43/45/56 42/44/54
f 28/29/55 29/30/57 44/46/58 43/45/56
f 29/30/57 30/31/59 45/47/60 44/46/58
f 30/31/59 16/32/31 31/48/34 45/47/60
s 3
f 2/2/61 1/1/62 46/49/63
f 3/3/64 2/2/61 46/50/63
f 4/4/65 3/3/64 46/51/63
f 5/5/66 4/4/65 46/52/63
f 6/6/67 5/5/66 46/53/63
f 7/7/68 6/6/67 46/54/63
f 8/8/69 7/7/68 46/55/63
f 9/9/70 8/8/69 46/56/63
f 10/10/71 9/9/70 46/57/63
f 11/11/72 10/10/71 46/58/63
f 12/12/73 11/11/72 46/59/63
f 13/13/74 12/12/73 46/60/63
f 14/14/75 13/13/74 46/61/63
f 15/15/76 14/14/75 46/62/63
f 1/16/62 15/15/76 46/63/63
s 4
f 31/33/77 32/34/78 47/64/79
f 32/34/78 33/35/80 47/65/79
f 33/35/80 34/36/81 47/66/79
f 34/36/81 35/37/82 47/67/79
f 35/37/82 36/38/83 47/68/79
f 36/38/83 37/39/84 47/69/79
f 37/39/84 38/40/85 47/70/79
f 38/40/85 39/41/86 47/71/79
f 39/41/86 40/42/87 47/72/79
f 40/42/87 41/43/88 47/73/79
f 41/43/88 42/44/89 47/74/79
f 42/44/89 43/45/90 47/75/79
f 43/45/90 44/46/91 47/76/79
f 44/46/91 45/47/92 47/77/79
f 45/47/92 31/48/77 47/78/79
